NotoSansTamil-Bold.ufo
<glyph name="quotedbl.tamil" format="2">
  <advance width="536"/>
  <unicode hex="0022"/>
  <outline>
    <contour>
      <point x="85" y="542" type="line"/>
      <point x="219" y="542" type="line"/>
      <point x="239" y="800" type="line"/>
      <point x="65" y="800" type="line"/>
    </contour>
    <contour>
      <point x="317" y="542" type="line"/>
      <point x="451" y="542" type="line"/>
      <point x="471" y="800" type="line"/>
      <point x="297" y="800" type="line"/>
    </contour>
  </outline>
</glyph>
<glyph name="parenleft.tamil" format="2">
  <advance width="380"/>
  <unicode hex="0028"/>
  <outline>
    <contour>
      <point x="47" y="279" type="curve" smooth="yes"/>
      <point x="47" y="82"/>
      <point x="97" y="-97"/>
      <point x="194" y="-244" type="curve"/>
      <point x="353" y="-244" type="line"/>
      <point x="263" y="-80"/>
      <point x="215" y="86"/>
      <point x="215" y="279" type="curve" smooth="yes"/>
      <point x="215" y="470"/>
      <point x="263" y="636"/>
      <point x="353" y="800" type="curve"/>
      <point x="194" y="800" type="line"/>
      <point x="97" y="653"/>
      <point x="47" y="474"/>
    </contour>
  </outline>
</glyph>
<glyph name="comma.tamil" format="2">
  <advance width="315"/>
  <unicode hex="002C"/>
  <outline>
    <contour>
      <point x="247" y="146" type="line"/>
      <point x="80" y="146" type="line"/>
      <point x="71" y="66"/>
      <point x="51" y="-48"/>
      <point x="32" y="-139" type="curve"/>
      <point x="168" y="-139" type="line"/>
      <point x="201" y="-65"/>
      <point x="236" y="63"/>
      <point x="254" y="135" type="curve"/>
    </contour>
  </outline>
</glyph>
<glyph name="hyphen.tamil" format="2">
  <advance width="348"/>
  <unicode hex="002D"/>
  <outline>
    <contour>
      <point x="36" y="233" type="line"/>
      <point x="312" y="233" type="line"/>
      <point x="312" y="382" type="line"/>
      <point x="36" y="382" type="line"/>
    </contour>
  </outline>
</glyph>
<glyph name="slash.tamil" format="2">
  <advance width="457"/>
  <unicode hex="002F"/>
  <outline>
    <contour>
      <point x="17" y="-244" type="line"/>
      <point x="174" y="-244" type="line"/>
      <point x="440" y="800" type="line"/>
      <point x="283" y="800" type="line"/>
    </contour>
  </outline>
</glyph>
<glyph name="zero.tamil" format="2">
  <advance width="572"/>
  <unicode hex="0030"/>
  <outline>
    <contour>
      <point x="285" y="-10" type="curve" smooth="yes"/>
      <point x="464" y="-10"/>
      <point x="537" y="130"/>
      <point x="537" y="359" type="curve" smooth="yes"/>
      <point x="537" y="590"/>
      <point x="465" y="724"/>
      <point x="287" y="724" type="curve" smooth="yes"/>
      <point x="108" y="724"/>
      <point x="35" y="584"/>
      <point x="35" y="355" type="curve" smooth="yes"/>
      <point x="35" y="124"/>
      <point x="107" y="-10"/>
    </contour>
    <contour>
      <point x="286" y="136" type="curve" smooth="yes"/>
      <point x="237" y="136"/>
      <point x="223" y="211"/>
      <point x="223" y="356" type="curve" smooth="yes"/>
      <point x="223" y="502"/>
      <point x="237" y="578"/>
      <point x="286" y="578" type="curve" smooth="yes"/>
      <point x="335" y="578"/>
      <point x="349" y="503"/>
      <point x="349" y="358" type="curve" smooth="yes"/>
      <point x="349" y="212"/>
      <point x="335" y="136"/>
    </contour>
  </outline>
</glyph>
<glyph name="four.tamil" format="2">
  <advance width="572"/>
  <unicode hex="0034"/>
  <outline>
    <contour>
      <point x="298" y="0" type="line"/>
      <point x="484" y="0" type="line"/>
      <point x="484" y="139" type="line"/>
      <point x="559" y="139" type="line"/>
      <point x="559" y="278" type="line"/>
      <point x="484" y="278" type="line"/>
      <point x="484" y="714" type="line"/>
      <point x="304" y="714" type="line"/>
      <point x="16" y="276" type="line"/>
      <point x="16" y="139" type="line"/>
      <point x="298" y="139" type="line"/>
    </contour>
    <contour>
      <point x="184" y="278" type="line"/>
      <point x="251" y="384" type="line" smooth="yes"/>
      <point x="275" y="422"/>
      <point x="287" y="445"/>
      <point x="298" y="470" type="curve"/>
      <point x="302" y="470" type="line"/>
      <point x="299" y="431"/>
      <point x="298" y="402"/>
      <point x="298" y="356" type="curve" smooth="yes"/>
      <point x="298" y="278" type="line"/>
    </contour>
  </outline>
</glyph>
<glyph name="five.tamil" format="2">
  <advance width="572"/>
  <unicode hex="0035"/>
  <outline>
    <contour>
      <point x="246" y="-10" type="curve" smooth="yes"/>
      <point x="434" y="-10"/>
      <point x="532" y="79"/>
      <point x="532" y="237" type="curve" smooth="yes"/>
      <point x="532" y="390"/>
      <point x="434" y="464"/>
      <point x="321" y="464" type="curve" smooth="yes"/>
      <point x="282" y="464"/>
      <point x="265" y="461"/>
      <point x="238" y="455" type="curve"/>
      <point x="250" y="561" type="line"/>
      <point x="490" y="561" type="line"/>
      <point x="490" y="714" type="line"/>
      <point x="91" y="714" type="line"/>
      <point x="60" y="341" type="line"/>
      <point x="129" y="307" type="line"/>
      <point x="161" y="318"/>
      <point x="191" y="325"/>
      <point x="230" y="325" type="curve" smooth="yes"/>
      <point x="300" y="325"/>
      <point x="342" y="293"/>
      <point x="342" y="230" type="curve" smooth="yes"/>
      <point x="342" y="166"/>
      <point x="305" y="136"/>
      <point x="226" y="136" type="curve" smooth="yes"/>
      <point x="162" y="136"/>
      <point x="101" y="153"/>
      <point x="47" y="179" type="curve"/>
      <point x="47" y="26" type="line"/>
      <point x="101" y="2"/>
      <point x="163" y="-10"/>
    </contour>
  </outline>
</glyph>
<glyph name="seven.tamil" format="2">
  <advance width="572"/>
  <unicode hex="0037"/>
  <outline>
    <contour>
      <point x="89" y="0" type="line"/>
      <point x="291" y="0" type="line"/>
      <point x="541" y="602" type="line"/>
      <point x="541" y="714" type="line"/>
      <point x="27" y="714" type="line"/>
      <point x="27" y="561" type="line"/>
      <point x="337" y="561" type="line"/>
    </contour>
  </outline>
</glyph>
<glyph name="nine.tamil" format="2">
  <advance width="572"/>
  <unicode hex="0039"/>
  <outline>
    <contour>
      <point x="177" y="-10" type="curve" smooth="yes"/>
      <point x="485" y="-10"/>
      <point x="543" y="207"/>
      <point x="543" y="388" type="curve" smooth="yes"/>
      <point x="543" y="626"/>
      <point x="429" y="724"/>
      <point x="275" y="724" type="curve" smooth="yes"/>
      <point x="125" y="724"/>
      <point x="27" y="630"/>
      <point x="27" y="470" type="curve" smooth="yes"/>
      <point x="27" y="322"/>
      <point x="100" y="238"/>
      <point x="221" y="238" type="curve" smooth="yes"/>
      <point x="299" y="238"/>
      <point x="343" y="269"/>
      <point x="366" y="321" type="curve"/>
      <point x="372" y="321" type="line"/>
      <point x="363" y="208"/>
      <point x="316" y="136"/>
      <point x="177" y="136" type="curve" smooth="yes"/>
      <point x="140" y="136"/>
      <point x="105" y="139"/>
      <point x="72" y="145" type="curve"/>
      <point x="72" y="-2" type="line"/>
      <point x="107" y="-8"/>
      <point x="140" y="-10"/>
    </contour>
    <contour>
      <point x="282" y="380" type="curve" smooth="yes"/>
      <point x="230" y="380"/>
      <point x="211" y="419"/>
      <point x="211" y="481" type="curve" smooth="yes"/>
      <point x="211" y="546"/>
      <point x="237" y="578"/>
      <point x="281" y="578" type="curve" smooth="yes"/>
      <point x="333" y="578"/>
      <point x="354" y="523"/>
      <point x="354" y="465" type="curve" smooth="yes"/>
      <point x="354" y="420"/>
      <point x="330" y="380"/>
    </contour>
  </outline>
</glyph>
<glyph name="semicolon.tamil" format="2">
  <advance width="315"/>
  <unicode hex="003B"/>
  <outline>
    <contour>
      <point x="247" y="146" type="line"/>
      <point x="80" y="146" type="line"/>
      <point x="71" y="66"/>
      <point x="51" y="-48"/>
      <point x="32" y="-139" type="curve"/>
      <point x="168" y="-139" type="line"/>
      <point x="201" y="-65"/>
      <point x="236" y="63"/>
      <point x="254" y="135" type="curve"/>
    </contour>
    <contour>
      <point x="162" y="376" type="curve" smooth="yes"/>
      <point x="216" y="376"/>
      <point x="262" y="403"/>
      <point x="262" y="470" type="curve" smooth="yes"/>
      <point x="262" y="538"/>
      <point x="216" y="563"/>
      <point x="162" y="563" type="curve" smooth="yes"/>
      <point x="105" y="563"/>
      <point x="58" y="538"/>
      <point x="58" y="470" type="curve" smooth="yes"/>
      <point x="58" y="403"/>
      <point x="105" y="376"/>
    </contour>
  </outline>
</glyph>
<glyph name="less.tamil" format="2">
  <advance width="572"/>
  <unicode hex="003C"/>
  <outline>
    <contour>
      <point x="532" y="87" type="line"/>
      <point x="532" y="231" type="line"/>
      <point x="229" y="354" type="line"/>
      <point x="532" y="492" type="line"/>
      <point x="532" y="637" type="line"/>
      <point x="38" y="390" type="line"/>
      <point x="38" y="306" type="line"/>
    </contour>
  </outline>
</glyph>
<glyph name="greater.tamil" format="2">
  <advance width="572"/>
  <unicode hex="003E"/>
  <outline>
    <contour>
      <point x="40" y="87" type="line"/>
      <point x="534" y="306" type="line"/>
      <point x="534" y="390" type="line"/>
      <point x="40" y="637" type="line"/>
      <point x="40" y="492" type="line"/>
      <point x="343" y="354" type="line"/>
      <point x="40" y="231" type="line"/>
    </contour>
  </outline>
</glyph>
<glyph name="question.tamil" format="2">
  <advance width="536"/>
  <unicode hex="003F"/>
  <outline>
    <contour>
      <point x="281" y="724" type="curve" smooth="yes"/>
      <point x="185" y="724"/>
      <point x="105" y="698"/>
      <point x="32" y="656" type="curve"/>
      <point x="98" y="526" type="line"/>
      <point x="157" y="556"/>
      <point x="207" y="578"/>
      <point x="266" y="578" type="curve" smooth="yes"/>
      <point x="315" y="578"/>
      <point x="337" y="559"/>
      <point x="337" y="527" type="curve" smooth="yes"/>
      <point x="337" y="497"/>
      <point x="317" y="475"/>
      <point x="256" y="435" type="curve" smooth="yes"/>
      <point x="188" y="391"/>
      <point x="174" y="353"/>
      <point x="174" y="287" type="curve" smooth="yes"/>
      <point x="174" y="250" type="line"/>
      <point x="324" y="250" type="line"/>
      <point x="324" y="272" type="line" smooth="yes"/>
      <point x="324" y="303"/>
      <point x="336" y="324"/>
      <point x="392" y="359" type="curve" smooth="yes"/>
      <point x="474" y="409"/>
      <point x="514" y="461"/>
      <point x="514" y="543" type="curve" smooth="yes"/>
      <point x="514" y="648"/>
      <point x="436" y="724"/>
    </contour>
    <contour>
      <point x="256" y="-12" type="curve" smooth="yes"/>
      <point x="311" y="-12"/>
      <point x="357" y="15"/>
      <point x="357" y="81" type="curve" smooth="yes"/>
      <point x="357" y="150"/>
      <point x="311" y="175"/>
      <point x="256" y="175" type="curve" smooth="yes"/>
      <point x="199" y="175"/>
      <point x="153" y="150"/>
      <point x="153" y="81" type="curve" smooth="yes"/>
      <point x="153" y="15"/>
      <point x="199" y="-12"/>
    </contour>
  </outline>
</glyph>
<glyph name="bracketleft.tamil" format="2">
  <advance width="369"/>
  <unicode hex="005B"/>
  <outline>
    <contour>
      <point x="72" y="-244" type="line"/>
      <point x="333" y="-244" type="line"/>
      <point x="333" y="-120" type="line"/>
      <point x="227" y="-120" type="line"/>
      <point x="227" y="676" type="line"/>
      <point x="333" y="676" type="line"/>
      <point x="333" y="800" type="line"/>
      <point x="72" y="800" type="line"/>
    </contour>
  </outline>
</glyph>
<glyph name="backslash.tamil" format="2">
  <advance width="457"/>
  <unicode hex="005C"/>
  <outline>
    <contour>
      <point x="283" y="-244" type="line"/>
      <point x="440" y="-244" type="line"/>
      <point x="174" y="800" type="line"/>
      <point x="17" y="800" type="line"/>
    </contour>
  </outline>
</glyph>
<glyph name="bracketright.tamil" format="2">
  <advance width="369"/>
  <unicode hex="005D"/>
  <outline>
    <contour>
      <point x="36" y="-244" type="line"/>
      <point x="297" y="-244" type="line"/>
      <point x="297" y="800" type="line"/>
      <point x="36" y="800" type="line"/>
      <point x="36" y="676" type="line"/>
      <point x="142" y="676" type="line"/>
      <point x="142" y="-120" type="line"/>
      <point x="36" y="-120" type="line"/>
    </contour>
  </outline>
</glyph>
<glyph name="braceleft.tamil" format="2">
  <advance width="431"/>
  <unicode hex="007B"/>
  <outline>
    <contour>
      <point x="395" y="-244" type="curve"/>
      <point x="395" y="-108" type="line"/>
      <point x="324" y="-108"/>
      <point x="302" y="-94"/>
      <point x="302" y="-48" type="curve" smooth="yes"/>
      <point x="302" y="151" type="line" smooth="yes"/>
      <point x="302" y="227"/>
      <point x="261" y="263"/>
      <point x="185" y="275" type="curve"/>
      <point x="185" y="281" type="line"/>
      <point x="261" y="293"/>
      <point x="302" y="329"/>
      <point x="302" y="405" type="curve" smooth="yes"/>
      <point x="302" y="604" type="line" smooth="yes"/>
      <point x="302" y="650"/>
      <point x="324" y="664"/>
      <point x="395" y="664" type="curve"/>
      <point x="395" y="800" type="line"/>
      <point x="190" y="800"/>
      <point x="144" y="749"/>
      <point x="144" y="632" type="curve" smooth="yes"/>
      <point x="144" y="435" type="line" smooth="yes"/>
      <point x="144" y="375"/>
      <point x="112" y="356"/>
      <point x="24" y="352" type="curve"/>
      <point x="24" y="204" type="line"/>
      <point x="112" y="200"/>
      <point x="144" y="181"/>
      <point x="144" y="121" type="curve" smooth="yes"/>
      <point x="144" y="-76" type="line" smooth="yes"/>
      <point x="144" y="-193"/>
      <point x="190" y="-244"/>
    </contour>
  </outline>
</glyph>
<glyph name="uni00B2" format="2">
  <advance width="367"/>
  <unicode hex="00B2"/>
  <outline>
    <contour>
      <point x="22" y="369" type="line"/>
      <point x="351" y="369" type="line"/>
      <point x="351" y="479" type="line"/>
      <point x="182" y="479" type="line"/>
      <point x="214" y="506" type="line" smooth="yes"/>
      <point x="284" y="565"/>
      <point x="341" y="614"/>
      <point x="341" y="692" type="curve" smooth="yes"/>
      <point x="341" y="761"/>
      <point x="292" y="808"/>
      <point x="194" y="808" type="curve" smooth="yes"/>
      <point x="117" y="808"/>
      <point x="64" y="782"/>
      <point x="15" y="742" type="curve"/>
      <point x="84" y="661" type="line"/>
      <point x="121" y="696"/>
      <point x="146" y="704"/>
      <point x="168" y="704" type="curve" smooth="yes"/>
      <point x="188" y="704"/>
      <point x="200" y="694"/>
      <point x="200" y="676" type="curve" smooth="yes"/>
      <point x="200" y="655"/>
      <point x="183" y="630"/>
      <point x="127" y="574" type="curve"/>
      <point x="22" y="470" type="line"/>
    </contour>
  </outline>
</glyph>
<glyph name="uni00B3" format="2">
  <advance width="362"/>
  <unicode hex="00B3"/>
  <outline>
    <contour>
      <point x="169" y="361" type="curve" smooth="yes"/>
      <point x="283" y="361"/>
      <point x="352" y="405"/>
      <point x="352" y="485" type="curve" smooth="yes"/>
      <point x="352" y="541"/>
      <point x="322" y="574"/>
      <point x="259" y="590" type="curve"/>
      <point x="259" y="594" type="line"/>
      <point x="316" y="615"/>
      <point x="338" y="651"/>
      <point x="338" y="701" type="curve" smooth="yes"/>
      <point x="338" y="764"/>
      <point x="281" y="806"/>
      <point x="182" y="806" type="curve" smooth="yes"/>
      <point x="111" y="806"/>
      <point x="55" y="781"/>
      <point x="15" y="750" type="curve"/>
      <point x="72" y="667" type="line"/>
      <point x="106" y="693"/>
      <point x="133" y="703"/>
      <point x="165" y="703" type="curve" smooth="yes"/>
      <point x="198" y="703"/>
      <point x="210" y="686"/>
      <point x="210" y="670" type="curve" smooth="yes"/>
      <point x="210" y="649"/>
      <point x="197" y="632"/>
      <point x="142" y="632" type="curve" smooth="yes"/>
      <point x="103" y="632" type="line"/>
      <point x="103" y="537" type="line"/>
      <point x="154" y="537" type="line" smooth="yes"/>
      <point x="213" y="537"/>
      <point x="220" y="520"/>
      <point x="220" y="502" type="curve" smooth="yes"/>
      <point x="220" y="478"/>
      <point x="197" y="469"/>
      <point x="163" y="469" type="curve" smooth="yes"/>
      <point x="111" y="469"/>
      <point x="60" y="480"/>
      <point x="18" y="509" type="curve"/>
      <point x="18" y="395" type="line"/>
      <point x="58" y="372"/>
      <point x="111" y="361"/>
    </contour>
  </outline>
</glyph>
<glyph name="multiply.tamil" format="2">
  <advance width="572"/>
  <unicode hex="00D7"/>
  <outline>
    <contour>
      <point x="428" y="585" type="line"/>
      <point x="285" y="442" type="line"/>
      <point x="143" y="585" type="line"/>
      <point x="52" y="494" type="line"/>
      <point x="195" y="352" type="line"/>
      <point x="52" y="210" type="line"/>
      <point x="143" y="119" type="line"/>
      <point x="285" y="262" type="line"/>
      <point x="428" y="119" type="line"/>
      <point x="519" y="210" type="line"/>
      <point x="375" y="352" type="line"/>
      <point x="519" y="494" type="line"/>
    </contour>
  </outline>
</glyph>
<glyph name="uni0951" format="2">
  <unicode hex="0951"/>
  <outline>
    <contour>
      <point x="-337" y="870" type="line"/>
      <point x="-337" y="654" type="line"/>
      <point x="-219" y="654" type="line"/>
      <point x="-219" y="870" type="line"/>
    </contour>
  </outline>
</glyph>
<glyph name="uni0952" format="2">
  <unicode hex="0952"/>
  <outline>
    <contour>
      <point x="-26" y="-184" type="line"/>
      <point x="-26" y="-79" type="line"/>
      <point x="-532" y="-79" type="line"/>
      <point x="-532" y="-184" type="line"/>
    </contour>
  </outline>
</glyph>
<glyph name="dbldanda.tamil" format="2">
  <advance width="706"/>
  <unicode hex="0965"/>
  <outline>
    <contour>
      <point x="448" y="-49" type="line"/>
      <point x="638" y="-49" type="line"/>
      <point x="638" y="610" type="line"/>
      <point x="448" y="610" type="line"/>
    </contour>
    <contour>
      <point x="136" y="-49" type="line"/>
      <point x="326" y="-49" type="line"/>
      <point x="326" y="610" type="line"/>
      <point x="136" y="610" type="line"/>
    </contour>
  </outline>
</glyph>
<glyph name="anusvaratamil" format="2">
  <advance width="399"/>
  <unicode hex="0B82"/>
  <outline>
    <contour>
      <point x="41" y="719" type="curve" smooth="yes"/>
      <point x="41" y="639"/>
      <point x="95" y="584"/>
      <point x="201" y="584" type="curve" smooth="yes"/>
      <point x="302" y="584"/>
      <point x="358" y="639"/>
      <point x="358" y="719" type="curve"/>
      <point x="358" y="792"/>
      <point x="306" y="851"/>
      <point x="201" y="851" type="curve" smooth="yes"/>
      <point x="95" y="851"/>
      <point x="41" y="792"/>
    </contour>
    <contour>
      <point x="154" y="719" type="curve" smooth="yes"/>
      <point x="154" y="745"/>
      <point x="170" y="763"/>
      <point x="201" y="763" type="curve" smooth="yes"/>
      <point x="229" y="763"/>
      <point x="245" y="745"/>
      <point x="245" y="719" type="curve"/>
      <point x="245" y="691"/>
      <point x="229" y="672"/>
      <point x="201" y="672" type="curve" smooth="yes"/>
      <point x="170" y="672"/>
      <point x="154" y="691"/>
    </contour>
  </outline>
</glyph>
<glyph name="visargatamil" format="2">
  <advance width="1034"/>
  <unicode hex="0B83"/>
  <outline>
    <contour>
      <point x="263" y="-12" type="curve" smooth="yes"/>
      <point x="404" y="-12"/>
      <point x="493" y="61"/>
      <point x="493" y="186" type="curve" smooth="yes"/>
      <point x="493" y="311"/>
      <point x="404" y="384"/>
      <point x="263" y="384" type="curve" smooth="yes"/>
      <point x="122" y="384"/>
      <point x="33" y="311"/>
      <point x="33" y="186" type="curve" smooth="yes"/>
      <point x="33" y="61"/>
      <point x="122" y="-12"/>
    </contour>
    <contour>
      <point x="263" y="113" type="curve" smooth="yes"/>
      <point x="227" y="113"/>
      <point x="202" y="137"/>
      <point x="202" y="186" type="curve" smooth="yes"/>
      <point x="202" y="235"/>
      <point x="226" y="259"/>
      <point x="263" y="259" type="curve" smooth="yes"/>
      <point x="299" y="259"/>
      <point x="324" y="235"/>
      <point x="324" y="186" type="curve" smooth="yes"/>
      <point x="324" y="137"/>
      <point x="299" y="113"/>
    </contour>
    <contour>
      <point x="771" y="-12" type="curve" smooth="yes"/>
      <point x="912" y="-12"/>
      <point x="1001" y="61"/>
      <point x="1001" y="186" type="curve" smooth="yes"/>
      <point x="1001" y="311"/>
      <point x="912" y="384"/>
      <point x="771" y="384" type="curve" smooth="yes"/>
      <point x="630" y="384"/>
      <point x="541" y="311"/>
      <point x="541" y="186" type="curve" smooth="yes"/>
      <point x="541" y="61"/>
      <point x="630" y="-12"/>
    </contour>
    <contour>
      <point x="771" y="113" type="curve" smooth="yes"/>
      <point x="735" y="113"/>
      <point x="710" y="137"/>
      <point x="710" y="186" type="curve" smooth="yes"/>
      <point x="710" y="235"/>
      <point x="734" y="259"/>
      <point x="771" y="259" type="curve" smooth="yes"/>
      <point x="807" y="259"/>
      <point x="832" y="235"/>
      <point x="832" y="186" type="curve" smooth="yes"/>
      <point x="832" y="137"/>
      <point x="807" y="113"/>
    </contour>
    <contour>
      <point x="517" y="455" type="curve" smooth="yes"/>
      <point x="658" y="455"/>
      <point x="747" y="528"/>
      <point x="747" y="653" type="curve" smooth="yes"/>
      <point x="747" y="778"/>
      <point x="658" y="851"/>
      <point x="517" y="851" type="curve" smooth="yes"/>
      <point x="376" y="851"/>
      <point x="287" y="778"/>
      <point x="287" y="653" type="curve" smooth="yes"/>
      <point x="287" y="528"/>
      <point x="376" y="455"/>
    </contour>
    <contour>
      <point x="517" y="580" type="curve" smooth="yes"/>
      <point x="481" y="580"/>
      <point x="456" y="604"/>
      <point x="456" y="653" type="curve" smooth="yes"/>
      <point x="456" y="702"/>
      <point x="480" y="726"/>
      <point x="517" y="726" type="curve" smooth="yes"/>
      <point x="553" y="726"/>
      <point x="578" y="702"/>
      <point x="578" y="653" type="curve" smooth="yes"/>
      <point x="578" y="604"/>
      <point x="553" y="580"/>
    </contour>
  </outline>
</glyph>
<glyph name="atamil" format="2">
  <advance width="1277"/>
  <unicode hex="0B85"/>
  <outline>
    <contour>
      <point x="377" y="-152" type="curve" smooth="yes"/>
      <point x="397" y="-152" type="line" smooth="yes"/>
      <point x="674" y="-152"/>
      <point x="853" y="-56"/>
      <point x="927" y="125" type="curve"/>
      <point x="927" y="168" type="line"/>
      <point x="930" y="190"/>
      <point x="933" y="214"/>
      <point x="933" y="239" type="curve" smooth="yes"/>
      <point x="933" y="421"/>
      <point x="812" y="581"/>
      <point x="550" y="581" type="curve" smooth="yes"/>
      <point x="399" y="581"/>
      <point x="287" y="522"/>
      <point x="287" y="395" type="curve" smooth="yes"/>
      <point x="287" y="275"/>
      <point x="386" y="222"/>
      <point x="494" y="222" type="curve" smooth="yes"/>
      <point x="667" y="222"/>
      <point x="697" y="311"/>
      <point x="697" y="382" type="curve" smooth="yes"/>
      <point x="697" y="465"/>
      <point x="659" y="524"/>
      <point x="613" y="568" type="curve"/>
      <point x="498" y="529" type="line"/>
      <point x="535" y="491"/>
      <point x="564" y="454"/>
      <point x="564" y="407" type="curve" smooth="yes"/>
      <point x="564" y="360"/>
      <point x="539" y="346"/>
      <point x="509" y="346" type="curve" smooth="yes"/>
      <point x="475" y="346"/>
      <point x="456" y="366"/>
      <point x="456" y="399" type="curve" smooth="yes"/>
      <point x="456" y="448"/>
      <point x="501" y="461"/>
      <point x="556" y="461" type="curve" smooth="yes"/>
      <point x="574" y="461"/>
      <point x="592" y="460"/>
      <point x="606" y="458" type="curve"/>
      <point x="715" y="440"/>
      <point x="753" y="344"/>
      <point x="753" y="234" type="curve" smooth="yes"/>
      <point x="753" y="219"/>
      <point x="751" y="197"/>
      <point x="748" y="177" type="curve"/>
      <point x="749" y="143" type="line"/>
      <point x="711" y="48"/>
      <point x="611" y="-22"/>
      <point x="397" y="-22" type="curve" smooth="yes"/>
      <point x="389" y="-22" type="line" smooth="yes"/>
      <point x="261" y="-22"/>
      <point x="206" y="4"/>
      <point x="206" y="44" type="curve" smooth="yes"/>
      <point x="206" y="54"/>
      <point x="209" y="62"/>
      <point x="218" y="67" type="curve" smooth="yes"/>
      <point x="227" y="72"/>
      <point x="234" y="72"/>
      <point x="252" y="72" type="curve" smooth="yes"/>
      <point x="1037" y="72" type="line"/>
      <point x="1041" y="200" type="line"/>
      <point x="249" y="200" type="line" smooth="yes"/>
      <point x="168" y="200"/>
      <point x="119" y="197"/>
      <point x="76" y="171" type="curve" smooth="yes"/>
      <point x="44" y="151"/>
      <point x="22" y="119"/>
      <point x="22" y="65" type="curve" smooth="yes"/>
      <point x="22" y="-63"/>
      <point x="146" y="-152"/>
    </contour>
    <contour>
      <point x="1019" y="-154" type="line"/>
      <point x="1209" y="-154" type="line"/>
      <point x="1209" y="569" type="line"/>
      <point x="1019" y="569" type="line"/>
    </contour>
  </outline>
</glyph>
<glyph name="aatamil" format="2">
  <advance width="1532"/>
  <unicode hex="0B86"/>
  <outline>
    <contour>
      <point x="377" y="-152" type="curve" smooth="yes"/>
      <point x="397" y="-152" type="line" smooth="yes"/>
      <point x="674" y="-152"/>
      <point x="851" y="-46"/>
      <point x="927" y="129" type="curve"/>
      <point x="927" y="168" type="line"/>
      <point x="930" y="190"/>
      <point x="933" y="214"/>
      <point x="933" y="239" type="curve" smooth="yes"/>
      <point x="933" y="421"/>
      <point x="812" y="581"/>
      <point x="550" y="581" type="curve" smooth="yes"/>
      <point x="399" y="581"/>
      <point x="287" y="522"/>
      <point x="287" y="395" type="curve" smooth="yes"/>
      <point x="287" y="275"/>
      <point x="386" y="222"/>
      <point x="494" y="222" type="curve" smooth="yes"/>
      <point x="667" y="222"/>
      <point x="697" y="311"/>
      <point x="697" y="382" type="curve" smooth="yes"/>
      <point x="697" y="465"/>
      <point x="659" y="524"/>
      <point x="613" y="568" type="curve"/>
      <point x="498" y="529" type="line"/>
      <point x="535" y="491"/>
      <point x="564" y="454"/>
      <point x="564" y="407" type="curve" smooth="yes"/>
      <point x="564" y="360"/>
      <point x="539" y="346"/>
      <point x="509" y="346" type="curve" smooth="yes"/>
      <point x="475" y="346"/>
      <point x="456" y="366"/>
      <point x="456" y="399" type="curve" smooth="yes"/>
      <point x="456" y="448"/>
      <point x="501" y="461"/>
      <point x="556" y="461" type="curve" smooth="yes"/>
      <point x="574" y="461"/>
      <point x="592" y="460"/>
      <point x="606" y="458" type="curve" smooth="yes"/>
      <point x="715" y="440"/>
      <point x="753" y="344"/>
      <point x="753" y="234" type="curve" smooth="yes"/>
      <point x="753" y="219"/>
      <point x="751" y="197"/>
      <point x="748" y="177" type="curve"/>
      <point x="749" y="143" type="line"/>
      <point x="711" y="48"/>
      <point x="611" y="-22"/>
      <point x="397" y="-22" type="curve" smooth="yes"/>
      <point x="389" y="-22" type="line" smooth="yes"/>
      <point x="261" y="-22"/>
      <point x="206" y="4"/>
      <point x="206" y="44" type="curve" smooth="yes"/>
      <point x="206" y="54"/>
      <point x="209" y="62"/>
      <point x="218" y="67" type="curve" smooth="yes"/>
      <point x="227" y="72"/>
      <point x="234" y="72"/>
      <point x="252" y="72" type="curve" smooth="yes"/>
      <point x="1037" y="72" type="line"/>
      <point x="1041" y="200" type="line"/>
      <point x="249" y="200" type="line" smooth="yes"/>
      <point x="168" y="200"/>
      <point x="119" y="197"/>
      <point x="76" y="171" type="curve" smooth="yes"/>
      <point x="44" y="151"/>
      <point x="22" y="119"/>
      <point x="22" y="65" type="curve" smooth="yes"/>
      <point x="22" y="-63"/>
      <point x="146" y="-152"/>
    </contour>
    <contour>
      <point x="1045" y="-321" type="curve" smooth="yes"/>
      <point x="1086" y="-321" type="line" smooth="yes"/>
      <point x="1377" y="-321"/>
      <point x="1531" y="-206"/>
      <point x="1531" y="-48" type="curve" smooth="yes"/>
      <point x="1531" y="72"/>
      <point x="1437" y="130"/>
      <point x="1319" y="130" type="curve" smooth="yes"/>
      <point x="1248" y="130"/>
      <point x="1203" y="109"/>
      <point x="1166" y="88" type="curve"/>
      <point x="1175" y="-35" type="line"/>
      <point x="1206" y="-12"/>
      <point x="1236" y="4"/>
      <point x="1279" y="4" type="curve" smooth="yes"/>
      <point x="1325" y="4"/>
      <point x="1350" y="-18"/>
      <point x="1350" y="-58" type="curve" smooth="yes"/>
      <point x="1350" y="-147"/>
      <point x="1234" y="-194"/>
      <point x="1085" y="-194" type="curve" smooth="yes"/>
      <point x="1080" y="-194" type="line" smooth="yes"/>
      <point x="936" y="-194"/>
      <point x="901" y="-177"/>
      <point x="901" y="-155" type="curve" smooth="yes"/>
      <point x="901" y="-144"/>
      <point x="913" y="-137"/>
      <point x="930" y="-137" type="curve" smooth="yes"/>
      <point x="952" y="-137"/>
      <point x="972" y="-142"/>
      <point x="987" y="-146" type="curve"/>
      <point x="1007" y="-33" type="line"/>
      <point x="978" y="-24"/>
      <point x="947" y="-19"/>
      <point x="902" y="-19" type="curve" smooth="yes"/>
      <point x="802" y="-19"/>
      <point x="741" y="-76"/>
      <point x="741" y="-149" type="curve" smooth="yes"/>
      <point x="741" y="-256"/>
      <point x="831" y="-321"/>
    </contour>
    <contour>
      <point x="1019" y="-124" type="line"/>
      <point x="1209" y="-124" type="line"/>
      <point x="1209" y="569" type="line"/>
      <point x="1019" y="569" type="line"/>
    </contour>
  </outline>
</glyph>
<glyph name="itamil" format="2">
  <advance width="1262"/>
  <unicode hex="0B87"/>
  <outline>
    <contour>
      <point x="297" y="-321" type="curve" smooth="yes"/>
      <point x="417" y="-321"/>
      <point x="519" y="-290"/>
      <point x="613" y="-240" type="curve"/>
      <point x="726" y="-185"/>
      <point x="820" y="-92"/>
      <point x="869" y="26" type="curve" smooth="yes"/>
      <point x="897" y="93"/>
      <point x="914" y="167"/>
      <point x="914" y="249" type="curve" smooth="yes"/>
      <point x="914" y="439"/>
      <point x="800" y="581"/>
      <point x="563" y="581" type="curve" smooth="yes"/>
      <point x="418" y="581"/>
      <point x="306" y="519"/>
      <point x="306" y="395" type="curve" smooth="yes"/>
      <point x="306" y="275"/>
      <point x="405" y="222"/>
      <point x="513" y="222" type="curve" smooth="yes"/>
      <point x="652" y="222"/>
      <point x="710" y="288"/>
      <point x="710" y="396" type="curve" smooth="yes"/>
      <point x="710" y="442"/>
      <point x="679" y="519"/>
      <point x="643" y="548" type="curve"/>
      <point x="512" y="529" type="line"/>
      <point x="549" y="491"/>
      <point x="578" y="454"/>
      <point x="578" y="407" type="curve" smooth="yes"/>
      <point x="578" y="360"/>
      <point x="558" y="346"/>
      <point x="528" y="346" type="curve" smooth="yes"/>
      <point x="494" y="346"/>
      <point x="475" y="366"/>
      <point x="475" y="399" type="curve" smooth="yes"/>
      <point x="475" y="448"/>
      <point x="520" y="461"/>
      <point x="557" y="461" type="curve" smooth="yes"/>
      <point x="570" y="461"/>
      <point x="587" y="461"/>
      <point x="606" y="456" type="curve"/>
      <point x="614" y="462" type="line"/>
      <point x="729" y="432"/>
      <point x="739" y="339"/>
      <point x="739" y="254" type="curve" smooth="yes"/>
      <point x="739" y="192"/>
      <point x="727" y="137"/>
      <point x="709" y="86" type="curve" smooth="yes"/>
      <point x="666" y="-36"/>
      <point x="574" y="-118"/>
      <point x="462" y="-161" type="curve" smooth="yes"/>
      <point x="414" y="-179"/>
      <point x="361" y="-192"/>
      <point x="306" y="-192" type="curve" smooth="yes"/>
      <point x="217" y="-192"/>
      <point x="189" y="-158"/>
      <point x="189" y="-109" type="curve" smooth="yes"/>
      <point x="189" y="-61"/>
      <point x="216" y="-24"/>
      <point x="269" y="-1" type="curve"/>
      <point x="334" y="35"/>
      <point x="429" y="49"/>
      <point x="524" y="49" type="curve" smooth="yes"/>
      <point x="606" y="49"/>
      <point x="694" y="39"/>
      <point x="760" y="10" type="curve"/>
      <point x="827" y="-13"/>
      <point x="866" y="-54"/>
      <point x="866" y="-109" type="curve" smooth="yes"/>
      <point x="866" y="-157"/>
      <point x="837" y="-192"/>
      <point x="749" y="-192" type="curve" smooth="yes"/>
      <point x="692" y="-192"/>
      <point x="638" y="-175"/>
      <point x="588" y="-155" type="curve" smooth="yes"/>
      <point x="470" y="-107"/>
      <point x="373" y="-16"/>
      <point x="313" y="100" type="curve"/>
      <point x="268" y="182"/>
      <point x="243" y="261"/>
      <point x="243" y="361" type="curve" smooth="yes"/>
      <point x="243" y="600"/>
      <point x="403" y="718"/>
      <point x="633" y="718" type="curve" smooth="yes"/>
      <point x="759" y="718"/>
      <point x="846" y="685"/>
      <point x="904" y="626" type="curve" smooth="yes"/>
      <point x="981" y="547"/>
      <point x="1008" y="429"/>
      <point x="1008" y="241" type="curve" smooth="yes"/>
      <point x="1008" y="0" type="line"/>
      <point x="1198" y="0" type="line"/>
      <point x="1198" y="292" type="line" smooth="yes"/>
      <point x="1198" y="532"/>
      <point x="1144" y="651"/>
      <point x="1024" y="743" type="curve" smooth="yes"/>
      <point x="931" y="815"/>
      <point x="796" y="851"/>
      <point x="639" y="851" type="curve" smooth="yes"/>
      <point x="233" y="851"/>
      <point x="61" y="625"/>
      <point x="61" y="384" type="curve" smooth="yes"/>
      <point x="61" y="244"/>
      <point x="97" y="134"/>
      <point x="165" y="30" type="curve"/>
      <point x="233" y="-84"/>
      <point x="328" y="-176"/>
      <point x="454" y="-238" type="curve"/>
      <point x="549" y="-289"/>
      <point x="649" y="-321"/>
      <point x="763" y="-321" type="curve" smooth="yes"/>
      <point x="960" y="-321"/>
      <point x="1036" y="-245"/>
      <point x="1036" y="-113" type="curve" smooth="yes"/>
      <point x="1036" y="18"/>
      <point x="937" y="97"/>
      <point x="812" y="136" type="curve"/>
      <point x="718" y="168"/>
      <point x="612" y="178"/>
      <point x="531" y="178" type="curve" smooth="yes"/>
      <point x="422" y="178"/>
      <point x="297" y="162"/>
      <point x="198" y="118" type="curve"/>
      <point x="91" y="74"/>
      <point x="19" y="-3"/>
      <point x="19" y="-114" type="curve" smooth="yes"/>
      <point x="19" y="-245"/>
      <point x="100" y="-321"/>
    </contour>
  </outline>
</glyph>
<glyph name="iitamil" format="2">
  <advance width="899"/>
  <unicode hex="0B88"/>
  <outline>
    <contour>
      <point x="68" y="0" type="line"/>
      <point x="258" y="0" type="line"/>
      <point x="258" y="439" type="line"/>
      <point x="472" y="439" type="line"/>
      <point x="472" y="0" type="line"/>
      <point x="662" y="0" type="line"/>
      <point x="662" y="439" type="line"/>
      <point x="882" y="439" type="line"/>
      <point x="882" y="569" type="line"/>
      <point x="68" y="569" type="line"/>
    </contour>
    <contour>
      <point x="365" y="187" type="curve" smooth="yes"/>
      <point x="413" y="187"/>
      <point x="450" y="221"/>
      <point x="450" y="271" type="curve" smooth="yes"/>
      <point x="450" y="319"/>
      <point x="415" y="356"/>
      <point x="365" y="356" type="curve" smooth="yes"/>
      <point x="317" y="356"/>
      <point x="281" y="319"/>
      <point x="281" y="271" type="curve" smooth="yes"/>
      <point x="281" y="221"/>
      <point x="316" y="187"/>
    </contour>
    <contour>
      <point x="768" y="187" type="curve" smooth="yes"/>
      <point x="816" y="187"/>
      <point x="853" y="221"/>
      <point x="853" y="271" type="curve" smooth="yes"/>
      <point x="853" y="319"/>
      <point x="818" y="356"/>
      <point x="768" y="356" type="curve" smooth="yes"/>
      <point x="720" y="356"/>
      <point x="684" y="319"/>
      <point x="684" y="271" type="curve" smooth="yes"/>
      <point x="684" y="221"/>
      <point x="719" y="187"/>
    </contour>
  </outline>
</glyph>
<glyph name="utamil" format="2">
  <advance width="1099"/>
  <unicode hex="0B89"/>
  <outline>
    <contour>
      <point x="321" y="581" type="curve" smooth="yes"/>
      <point x="134" y="581"/>
      <point x="35" y="522"/>
      <point x="35" y="411" type="curve" smooth="yes"/>
      <point x="35" y="298"/>
      <point x="141" y="267"/>
      <point x="241" y="267" type="curve" smooth="yes"/>
      <point x="381" y="267"/>
      <point x="451" y="313"/>
      <point x="451" y="412" type="curve" smooth="yes"/>
      <point x="451" y="474"/>
      <point x="429" y="513"/>
      <point x="394" y="544" type="curve"/>
      <point x="254" y="523" type="line"/>
      <point x="293" y="490"/>
      <point x="311" y="457"/>
      <point x="311" y="424" type="curve" smooth="yes"/>
      <point x="311" y="389"/>
      <point x="287" y="375"/>
      <point x="254" y="375" type="curve" smooth="yes"/>
      <point x="226" y="375"/>
      <point x="203" y="383"/>
      <point x="203" y="413" type="curve" smooth="yes"/>
      <point x="203" y="444"/>
      <point x="226" y="457"/>
      <point x="265" y="457" type="curve" smooth="yes"/>
      <point x="280" y="457"/>
      <point x="304" y="456"/>
      <point x="324" y="454" type="curve"/>
      <point x="358" y="456" type="line"/>
      <point x="436" y="456"/>
      <point x="521" y="435"/>
      <point x="521" y="368" type="curve" smooth="yes"/>
      <point x="521" y="309"/>
      <point x="464" y="281"/>
      <point x="295" y="267" type="curve" smooth="yes"/>
      <point x="200" y="259" type="line" smooth="yes"/>
      <point x="68" y="248"/>
      <point x="37" y="179"/>
      <point x="37" y="130" type="curve" smooth="yes"/>
      <point x="37" y="64"/>
      <point x="72" y="0"/>
      <point x="237" y="0" type="curve" smooth="yes"/>
      <point x="1082" y="0" type="line"/>
      <point x="1082" y="130" type="line"/>
      <point x="230" y="130" type="line" smooth="yes"/>
      <point x="217" y="130"/>
      <point x="211" y="134"/>
      <point x="211" y="140" type="curve" smooth="yes"/>
      <point x="211" y="147"/>
      <point x="219" y="150"/>
      <point x="237" y="151" type="curve" smooth="yes"/>
      <point x="359" y="161" type="line"/>
      <point x="529" y="175"/>
      <point x="706" y="218"/>
      <point x="706" y="374" type="curve" smooth="yes"/>
      <point x="706" y="496"/>
      <point x="582" y="581"/>
    </contour>
  </outline>
</glyph>
<glyph name="uutamil" format="2">
  <advance width="1738"/>
  <unicode hex="0B8A"/>
  <outline>
    <contour>
      <point x="321" y="581" type="curve" smooth="yes"/>
      <point x="134" y="581"/>
      <point x="35" y="522"/>
      <point x="35" y="411" type="curve" smooth="yes"/>
      <point x="35" y="298"/>
      <point x="141" y="267"/>
      <point x="241" y="267" type="curve" smooth="yes"/>
      <point x="381" y="267"/>
      <point x="451" y="313"/>
      <point x="451" y="412" type="curve" smooth="yes"/>
      <point x="451" y="474"/>
      <point x="429" y="513"/>
      <point x="394" y="544" type="curve"/>
      <point x="254" y="523" type="line"/>
      <point x="293" y="490"/>
      <point x="311" y="457"/>
      <point x="311" y="424" type="curve" smooth="yes"/>
      <point x="311" y="389"/>
      <point x="287" y="375"/>
      <point x="254" y="375" type="curve" smooth="yes"/>
      <point x="226" y="375"/>
      <point x="203" y="383"/>
      <point x="203" y="413" type="curve" smooth="yes"/>
      <point x="203" y="444"/>
      <point x="226" y="457"/>
      <point x="265" y="457" type="curve" smooth="yes"/>
      <point x="280" y="457"/>
      <point x="304" y="456"/>
      <point x="324" y="454" type="curve"/>
      <point x="358" y="456" type="line"/>
      <point x="436" y="456"/>
      <point x="521" y="435"/>
      <point x="521" y="368" type="curve" smooth="yes"/>
      <point x="521" y="309"/>
      <point x="464" y="281"/>
      <point x="295" y="267" type="curve" smooth="yes"/>
      <point x="200" y="259" type="line" smooth="yes"/>
      <point x="68" y="248"/>
      <point x="37" y="179"/>
      <point x="37" y="130" type="curve" smooth="yes"/>
      <point x="37" y="64"/>
      <point x="72" y="0"/>
      <point x="237" y="0" type="curve" smooth="yes"/>
      <point x="1700" y="0" type="line"/>
      <point x="1700" y="130" type="line"/>
      <point x="230" y="130" type="line" smooth="yes"/>
      <point x="217" y="130"/>
      <point x="211" y="134"/>
      <point x="211" y="140" type="curve" smooth="yes"/>
      <point x="211" y="147"/>
      <point x="219" y="150"/>
      <point x="237" y="151" type="curve" smooth="yes"/>
      <point x="359" y="161" type="line" smooth="yes"/>
      <point x="529" y="175"/>
      <point x="706" y="218"/>
      <point x="706" y="374" type="curve" smooth="yes"/>
      <point x="706" y="496"/>
      <point x="582" y="581"/>
    </contour>
    <contour>
      <point x="962" y="155" type="curve" smooth="yes"/>
      <point x="1089" y="155"/>
      <point x="1149" y="207"/>
      <point x="1149" y="295" type="curve" smooth="yes"/>
      <point x="1149" y="382"/>
      <point x="1085" y="424"/>
      <point x="995" y="424" type="curve" smooth="yes"/>
      <point x="922" y="424"/>
      <point x="875" y="395"/>
      <point x="829" y="355" type="curve"/>
      <point x="852" y="275" type="line"/>
      <point x="877" y="301"/>
      <point x="915" y="325"/>
      <point x="953" y="325" type="curve" smooth="yes"/>
      <point x="985" y="325"/>
      <point x="1001" y="314"/>
      <point x="1001" y="291" type="curve" smooth="yes"/>
      <point x="1001" y="270"/>
      <point x="988" y="256"/>
      <point x="958" y="256" type="curve" smooth="yes"/>
      <point x="913" y="256"/>
      <point x="895" y="286"/>
      <point x="895" y="330" type="curve"/>
      <point x="898" y="372" type="line"/>
      <point x="915" y="439"/>
      <point x="986" y="464"/>
      <point x="1049" y="464" type="curve" smooth="yes"/>
      <point x="1124" y="464"/>
      <point x="1175" y="427"/>
      <point x="1217" y="392" type="curve"/>
      <point x="1256" y="515" type="line"/>
      <point x="1191" y="556"/>
      <point x="1137" y="581"/>
      <point x="1046" y="581" type="curve" smooth="yes"/>
      <point x="868" y="581"/>
      <point x="761" y="480"/>
      <point x="761" y="344" type="curve" smooth="yes"/>
      <point x="761" y="213"/>
      <point x="842" y="155"/>
    </contour>
    <contour>
      <point x="1196" y="162" type="line"/>
      <point x="1354" y="162" type="line"/>
      <point x="1354" y="452" type="line"/>
      <point x="1436" y="452" type="line"/>
      <point x="1436" y="162" type="line"/>
      <point x="1594" y="162" type="line"/>
      <point x="1594" y="452" type="line"/>
      <point x="1690" y="452" type="line"/>
      <point x="1690" y="569" type="line"/>
      <point x="1216" y="569" type="line"/>
      <point x="1216" y="510" type="line"/>
      <point x="1196" y="494" type="line"/>
    </contour>
  </outline>
</glyph>
<glyph name="eetamil" format="2">
  <advance width="930"/>
  <unicode hex="0B8F"/>
  <outline>
    <contour>
      <point x="557" y="-214" type="line"/>
      <point x="781" y="0" type="line"/>
      <point x="781" y="439" type="line"/>
      <point x="913" y="439" type="line"/>
      <point x="913" y="569" type="line"/>
      <point x="551" y="569" type="line"/>
      <point x="535" y="439" type="line"/>
      <point x="591" y="439" type="line"/>
      <point x="591" y="39" type="line"/>
      <point x="438" y="-104" type="line"/>
    </contour>
    <contour>
      <point x="285" y="-12" type="curve" smooth="yes"/>
      <point x="449" y="-12"/>
      <point x="521" y="61"/>
      <point x="521" y="177" type="curve" smooth="yes"/>
      <point x="521" y="294"/>
      <point x="447" y="355"/>
      <point x="335" y="355" type="curve" smooth="yes"/>
      <point x="248" y="355"/>
      <point x="184" y="311"/>
      <point x="124" y="261" type="curve"/>
      <point x="156" y="162" type="line"/>
      <point x="193" y="204"/>
      <point x="230" y="234"/>
      <point x="278" y="234" type="curve" smooth="yes"/>
      <point x="315" y="234"/>
      <point x="340" y="217"/>
      <point x="340" y="174" type="curve" smooth="yes"/>
      <point x="340" y="135"/>
      <point x="321" y="114"/>
      <point x="283" y="114" type="curve" smooth="yes"/>
      <point x="231" y="114"/>
      <point x="209" y="158"/>
      <point x="209" y="226" type="curve" smooth="yes"/>
      <point x="209" y="314"/>
      <point x="240" y="366"/>
      <point x="287" y="398" type="curve" smooth="yes"/>
      <point x="329" y="427"/>
      <point x="394" y="439"/>
      <point x="485" y="439" type="curve" smooth="yes"/>
      <point x="574" y="439" type="line"/>
      <point x="579" y="569" type="line"/>
      <point x="530" y="569" type="line" smooth="yes"/>
      <point x="340" y="569"/>
      <point x="234" y="550"/>
      <point x="146" y="482" type="curve" smooth="yes"/>
      <point x="80" y="431"/>
      <point x="37" y="355"/>
      <point x="37" y="239" type="curve" smooth="yes"/>
      <point x="37" y="79"/>
      <point x="127" y="-12"/>
    </contour>
  </outline>
</glyph>
<glyph name="aitamil" format="2">
  <advance width="1153"/>
  <unicode hex="0B90"/>
  <outline>
    <contour>
      <point x="352" y="-321" type="curve" smooth="yes"/>
      <point x="511" y="-321"/>
      <point x="596" y="-262"/>
      <point x="651" y="-200" type="curve"/>
      <point x="582" y="-180" type="line"/>
      <point x="635" y="-276"/>
      <point x="715" y="-321"/>
      <point x="847" y="-321" type="curve" smooth="yes"/>
      <point x="1047" y="-321"/>
      <point x="1112" y="-221"/>
      <point x="1112" y="-89" type="curve" smooth="yes"/>
      <point x="1112" y="-38"/>
      <point x="1098" y="18"/>
      <point x="1081" y="59" type="curve"/>
      <point x="901" y="8" type="line"/>
      <point x="914" y="-24"/>
      <point x="922" y="-57"/>
      <point x="922" y="-88" type="curve" smooth="yes"/>
      <point x="922" y="-138"/>
      <point x="903" y="-190"/>
      <point x="826" y="-190" type="curve" smooth="yes"/>
      <point x="783" y="-190"/>
      <point x="754" y="-176"/>
      <point x="738" y="-153" type="curve" smooth="yes"/>
      <point x="721" y="-129"/>
      <point x="715" y="-99"/>
      <point x="715" y="-30" type="curve" smooth="yes"/>
      <point x="715" y="-12" type="line"/>
      <point x="527" y="-12" type="line"/>
      <point x="527" y="-32" type="line" smooth="yes"/>
      <point x="527" y="-88"/>
      <point x="519" y="-116"/>
      <point x="502" y="-140" type="curve" smooth="yes"/>
      <point x="479" y="-173"/>
      <point x="440" y="-190"/>
      <point x="369" y="-190" type="curve" smooth="yes"/>
      <point x="275" y="-190"/>
      <point x="225" y="-151"/>
      <point x="225" y="-82" type="curve" smooth="yes"/>
      <point x="225" y="-42"/>
      <point x="244" y="-11"/>
      <point x="273" y="7" type="curve" smooth="yes"/>
      <point x="310" y="30"/>
      <point x="351" y="35"/>
      <point x="423" y="35" type="curve" smooth="yes"/>
      <point x="666" y="35" type="line" smooth="yes"/>
      <point x="814" y="35"/>
      <point x="923" y="48"/>
      <point x="1008" y="106" type="curve" smooth="yes"/>
      <point x="1073" y="150"/>
      <point x="1112" y="220"/>
      <point x="1112" y="329" type="curve" smooth="yes"/>
      <point x="1112" y="458"/>
      <point x="1024" y="581"/>
      <point x="829" y="581" type="curve" smooth="yes"/>
      <point x="708" y="581"/>
      <point x="633" y="529"/>
      <point x="585" y="439" type="curve"/>
      <point x="645" y="453" type="line"/>
      <point x="583" y="527"/>
      <point x="519" y="581"/>
      <point x="343" y="581" type="curve" smooth="yes"/>
      <point x="174" y="581"/>
      <point x="35" y="496"/>
      <point x="35" y="350" type="curve" smooth="yes"/>
      <point x="35" y="261"/>
      <point x="88" y="164"/>
      <point x="250" y="164" type="curve" smooth="yes"/>
      <point x="395" y="164"/>
      <point x="462" y="228"/>
      <point x="462" y="330" type="curve" smooth="yes"/>
      <point x="462" y="412"/>
      <point x="407" y="468"/>
      <point x="340" y="482" type="curve"/>
      <point x="180" y="430" type="line"/>
      <point x="288" y="428"/>
      <point x="310" y="384"/>
      <point x="310" y="343" type="curve" smooth="yes"/>
      <point x="310" y="308"/>
      <point x="288" y="284"/>
      <point x="249" y="284" type="curve" smooth="yes"/>
      <point x="206" y="284"/>
      <point x="191" y="313"/>
      <point x="191" y="343" type="curve" smooth="yes"/>
      <point x="191" y="388"/>
      <point x="221" y="424"/>
      <point x="272" y="442" type="curve"/>
      <point x="294" y="450" type="line"/>
      <point x="315" y="456"/>
      <point x="337" y="459"/>
      <point x="355" y="459" type="curve" smooth="yes"/>
      <point x="483" y="459"/>
      <point x="527" y="397"/>
      <point x="527" y="292" type="curve" smooth="yes"/>
      <point x="527" y="204" type="line"/>
      <point x="715" y="204" type="line"/>
      <point x="715" y="299" type="line" smooth="yes"/>
      <point x="715" y="370"/>
      <point x="725" y="400"/>
      <point x="746" y="423" type="curve" smooth="yes"/>
      <point x="760" y="438"/>
      <point x="781" y="449"/>
      <point x="814" y="449" type="curve" smooth="yes"/>
      <point x="874" y="449"/>
      <point x="922" y="408"/>
      <point x="922" y="322" type="curve" smooth="yes"/>
      <point x="922" y="270"/>
      <point x="907" y="233"/>
      <point x="876" y="208" type="curve" smooth="yes"/>
      <point x="836" y="176"/>
      <point x="781" y="163"/>
      <point x="664" y="163" type="curve" smooth="yes"/>
      <point x="444" y="163" type="line" smooth="yes"/>
      <point x="290" y="163"/>
      <point x="205" y="149"/>
      <point x="134" y="104" type="curve" smooth="yes"/>
      <point x="74" y="66"/>
      <point x="35" y="7"/>
      <point x="35" y="-84" type="curve" smooth="yes"/>
      <point x="35" y="-241"/>
      <point x="144" y="-321"/>
    </contour>
  </outline>
</glyph>
<glyph name="otamil" format="2">
  <advance width="1182"/>
  <unicode hex="0B92"/>
  <outline>
    <contour>
      <point x="906" y="37" type="curve" smooth="yes"/>
      <point x="1090" y="37"/>
      <point x="1149" y="144"/>
      <point x="1149" y="251" type="curve" smooth="yes"/>
      <point x="1149" y="349"/>
      <point x="1104" y="420"/>
      <point x="1035" y="470" type="curve" smooth="yes"/>
      <point x="925" y="549"/>
      <point x="774" y="581"/>
      <point x="573" y="581" type="curve" smooth="yes"/>
      <point x="392" y="581"/>
      <point x="254" y="556"/>
      <point x="148" y="484" type="curve" smooth="yes"/>
      <point x="77" y="436"/>
      <point x="33" y="367"/>
      <point x="33" y="271" type="curve" smooth="yes"/>
      <point x="33" y="137"/>
      <point x="120" y="48"/>
      <point x="264" y="48" type="curve" smooth="yes"/>
      <point x="383" y="48"/>
      <point x="482" y="97"/>
      <point x="482" y="231" type="curve" smooth="yes"/>
      <point x="482" y="341"/>
      <point x="401" y="398"/>
      <point x="306" y="398" type="curve" smooth="yes"/>
      <point x="249" y="398"/>
      <point x="206" y="379"/>
      <point x="156" y="344" type="curve"/>
      <point x="162" y="234" type="line"/>
      <point x="195" y="269"/>
      <point x="226" y="289"/>
      <point x="264" y="289" type="curve" smooth="yes"/>
      <point x="299" y="289"/>
      <point x="324" y="273"/>
      <point x="324" y="234" type="curve" smooth="yes"/>
      <point x="324" y="193"/>
      <point x="301" y="172"/>
      <point x="264" y="172" type="curve" smooth="yes"/>
      <point x="204" y="172"/>
      <point x="192" y="227"/>
      <point x="192" y="261" type="curve" smooth="yes"/>
      <point x="192" y="283"/>
      <point x="194" y="297"/>
      <point x="197" y="309" type="curve" smooth="yes"/>
      <point x="205" y="346" type="line"/>
      <point x="299" y="430"/>
      <point x="422" y="446"/>
      <point x="583" y="446" type="curve" smooth="yes"/>
      <point x="830" y="446"/>
      <point x="961" y="368"/>
      <point x="961" y="238" type="curve" smooth="yes"/>
      <point x="961" y="195"/>
      <point x="942" y="161"/>
      <point x="905" y="161" type="curve" smooth="yes"/>
      <point x="858" y="161"/>
      <point x="843" y="193"/>
      <point x="843" y="241" type="curve" smooth="yes"/>
      <point x="843" y="267"/>
      <point x="848" y="300"/>
      <point x="860" y="326" type="curve"/>
      <point x="710" y="394" type="line"/>
      <point x="579" y="344"/>
      <point x="502" y="254"/>
      <point x="502" y="125" type="curve" smooth="yes"/>
      <point x="502" y="34"/>
      <point x="557" y="-76"/>
      <point x="719" y="-118" type="curve"/>
      <point x="763" y="-130"/>
      <point x="807" y="-138"/>
      <point x="888" y="-138" type="curve" smooth="yes"/>
      <point x="1049" y="-138" type="line"/>
      <point x="1049" y="-9" type="line"/>
      <point x="930" y="-9" type="line" smooth="yes"/>
      <point x="793" y="-9"/>
      <point x="746" y="5"/>
      <point x="707" y="35" type="curve" smooth="yes"/>
      <point x="673" y="61"/>
      <point x="656" y="98"/>
      <point x="656" y="144" type="curve" smooth="yes"/>
      <point x="656" y="174"/>
      <point x="665" y="223"/>
      <point x="724" y="264" type="curve"/>
      <point x="710" y="266" type="line"/>
      <point x="701" y="245"/>
      <point x="698" y="211"/>
      <point x="698" y="200" type="curve" smooth="yes"/>
      <point x="698" y="107"/>
      <point x="760" y="37"/>
    </contour>
    <contour>
      <point x="491" y="-321" type="curve" smooth="yes"/>
      <point x="646" y="-321"/>
      <point x="734" y="-266"/>
      <point x="814" y="-154" type="curve" smooth="yes"/>
      <point x="831" y="-130"/>
      <point x="845" y="-109"/>
      <point x="865" y="-87" type="curve"/>
      <point x="692" y="-58" type="line"/>
      <point x="668" y="-73"/>
      <point x="654" y="-92"/>
      <point x="644" y="-106" type="curve" smooth="yes"/>
      <point x="593" y="-173"/>
      <point x="556" y="-191"/>
      <point x="495" y="-191" type="curve" smooth="yes"/>
      <point x="433" y="-191"/>
      <point x="408" y="-159"/>
      <point x="408" y="-118" type="curve" smooth="yes"/>
      <point x="408" y="-93"/>
      <point x="417" y="-69"/>
      <point x="436" y="-41" type="curve"/>
      <point x="276" y="29" type="line"/>
      <point x="242" y="-24"/>
      <point x="225" y="-69"/>
      <point x="225" y="-125" type="curve" smooth="yes"/>
      <point x="225" y="-259"/>
      <point x="336" y="-321"/>
    </contour>
  </outline>
</glyph>
<glyph name="ootamil" format="2">
  <advance width="1182"/>
  <unicode hex="0B93"/>
  <outline>
    <contour>
      <point x="906" y="37" type="curve" smooth="yes"/>
      <point x="1090" y="37"/>
      <point x="1149" y="144"/>
      <point x="1149" y="251" type="curve" smooth="yes"/>
      <point x="1149" y="349"/>
      <point x="1104" y="420"/>
      <point x="1035" y="470" type="curve" smooth="yes"/>
      <point x="925" y="549"/>
      <point x="774" y="581"/>
      <point x="573" y="581" type="curve" smooth="yes"/>
      <point x="392" y="581"/>
      <point x="254" y="556"/>
      <point x="148" y="484" type="curve" smooth="yes"/>
      <point x="77" y="436"/>
      <point x="33" y="367"/>
      <point x="33" y="271" type="curve" smooth="yes"/>
      <point x="33" y="137"/>
      <point x="120" y="48"/>
      <point x="264" y="48" type="curve" smooth="yes"/>
      <point x="383" y="48"/>
      <point x="482" y="97"/>
      <point x="482" y="231" type="curve" smooth="yes"/>
      <point x="482" y="341"/>
      <point x="401" y="398"/>
      <point x="306" y="398" type="curve" smooth="yes"/>
      <point x="249" y="398"/>
      <point x="206" y="379"/>
      <point x="156" y="344" type="curve"/>
      <point x="162" y="234" type="line"/>
      <point x="195" y="269"/>
      <point x="226" y="289"/>
      <point x="264" y="289" type="curve" smooth="yes"/>
      <point x="299" y="289"/>
      <point x="324" y="273"/>
      <point x="324" y="234" type="curve" smooth="yes"/>
      <point x="324" y="193"/>
      <point x="301" y="172"/>
      <point x="264" y="172" type="curve" smooth="yes"/>
      <point x="204" y="172"/>
      <point x="192" y="227"/>
      <point x="192" y="261" type="curve" smooth="yes"/>
      <point x="192" y="283"/>
      <point x="194" y="297"/>
      <point x="197" y="309" type="curve" smooth="yes"/>
      <point x="205" y="346" type="line"/>
      <point x="299" y="430"/>
      <point x="422" y="446"/>
      <point x="583" y="446" type="curve" smooth="yes"/>
      <point x="830" y="446"/>
      <point x="961" y="368"/>
      <point x="961" y="238" type="curve" smooth="yes"/>
      <point x="961" y="195"/>
      <point x="942" y="161"/>
      <point x="905" y="161" type="curve" smooth="yes"/>
      <point x="858" y="161"/>
      <point x="843" y="193"/>
      <point x="843" y="241" type="curve" smooth="yes"/>
      <point x="843" y="267"/>
      <point x="848" y="300"/>
      <point x="860" y="326" type="curve"/>
      <point x="710" y="394" type="line"/>
      <point x="579" y="344"/>
      <point x="502" y="254"/>
      <point x="502" y="125" type="curve" smooth="yes"/>
      <point x="502" y="34"/>
      <point x="557" y="-76"/>
      <point x="719" y="-118" type="curve" smooth="yes"/>
      <point x="763" y="-130"/>
      <point x="807" y="-138"/>
      <point x="888" y="-138" type="curve" smooth="yes"/>
      <point x="1049" y="-138" type="line"/>
      <point x="1049" y="-9" type="line"/>
      <point x="930" y="-9" type="line" smooth="yes"/>
      <point x="793" y="-9"/>
      <point x="746" y="5"/>
      <point x="707" y="35" type="curve" smooth="yes"/>
      <point x="673" y="61"/>
      <point x="656" y="98"/>
      <point x="656" y="144" type="curve" smooth="yes"/>
      <point x="656" y="174"/>
      <point x="665" y="223"/>
      <point x="724" y="264" type="curve"/>
      <point x="710" y="266" type="line"/>
      <point x="701" y="245"/>
      <point x="698" y="211"/>
      <point x="698" y="200" type="curve" smooth="yes"/>
      <point x="698" y="107"/>
      <point x="760" y="37"/>
    </contour>
    <contour>
      <point x="352" y="33" type="curve" smooth="yes"/>
      <point x="206" y="33"/>
      <point x="139" y="-41"/>
      <point x="139" y="-131" type="curve" smooth="yes"/>
      <point x="139" y="-200"/>
      <point x="174" y="-252"/>
      <point x="237" y="-285" type="curve" smooth="yes"/>
      <point x="283" y="-308"/>
      <point x="339" y="-321"/>
      <point x="456" y="-321" type="curve" smooth="yes"/>
      <point x="476" y="-321" type="line" smooth="yes"/>
      <point x="658" y="-321"/>
      <point x="739" y="-259"/>
      <point x="814" y="-154" type="curve" smooth="yes"/>
      <point x="831" y="-130"/>
      <point x="845" y="-109"/>
      <point x="865" y="-87" type="curve"/>
      <point x="692" y="-58" type="line"/>
      <point x="668" y="-73"/>
      <point x="654" y="-92"/>
      <point x="644" y="-106" type="curve" smooth="yes"/>
      <point x="593" y="-173"/>
      <point x="563" y="-201"/>
      <point x="490" y="-201" type="curve" smooth="yes"/>
      <point x="406" y="-201" type="line" smooth="yes"/>
      <point x="338" y="-201"/>
      <point x="298" y="-190"/>
      <point x="298" y="-140" type="curve" smooth="yes"/>
      <point x="298" y="-114"/>
      <point x="316" y="-91"/>
      <point x="349" y="-91" type="curve" smooth="yes"/>
      <point x="375" y="-91"/>
      <point x="402" y="-104"/>
      <point x="402" y="-143" type="curve" smooth="yes"/>
      <point x="402" y="-165"/>
      <point x="394" y="-190"/>
      <point x="379" y="-209" type="curve"/>
      <point x="511" y="-243" type="line"/>
      <point x="531" y="-222"/>
      <point x="552" y="-179"/>
      <point x="552" y="-121" type="curve" smooth="yes"/>
      <point x="552" y="-41"/>
      <point x="497" y="33"/>
    </contour>
  </outline>
</glyph>
<glyph name="katamil" format="2">
  <advance width="967"/>
  <unicode hex="0B95"/>
  <outline>
    <contour>
      <point x="313" y="-12" type="curve" smooth="yes"/>
      <point x="424" y="-12"/>
      <point x="498" y="8"/>
      <point x="549" y="55" type="curve" smooth="yes"/>
      <point x="595" y="98"/>
      <point x="619" y="162"/>
      <point x="619" y="252" type="curve" smooth="yes"/>
      <point x="619" y="439" type="line"/>
      <point x="808" y="439" type="line"/>
      <point x="808" y="569" type="line"/>
      <point x="129" y="569" type="line"/>
      <point x="129" y="286" type="line"/>
      <point x="300" y="302" type="line"/>
      <point x="300" y="439" type="line"/>
      <point x="434" y="439" type="line"/>
      <point x="434" y="240" type="line" smooth="yes"/>
      <point x="434" y="144"/>
      <point x="389" y="118"/>
      <point x="315" y="118" type="curve" smooth="yes"/>
      <point x="253" y="118"/>
      <point x="217" y="133"/>
      <point x="217" y="176" type="curve" smooth="yes"/>
      <point x="217" y="196"/>
      <point x="227" y="211"/>
      <point x="247" y="221" type="curve" smooth="yes"/>
      <point x="269" y="231"/>
      <point x="296" y="234"/>
      <point x="353" y="234" type="curve" smooth="yes"/>
      <point x="622" y="234" type="line" smooth="yes"/>
      <point x="688" y="234"/>
      <point x="755" y="227"/>
      <point x="755" y="174" type="curve" smooth="yes"/>
      <point x="755" y="136"/>
      <point x="727" y="120"/>
      <point x="684" y="120" type="curve" smooth="yes"/>
      <point x="659" y="120"/>
      <point x="642" y="123"/>
      <point x="624" y="127" type="curve"/>
      <point x="596" y="1" type="line"/>
      <point x="632" y="-8"/>
      <point x="683" y="-12"/>
      <point x="720" y="-12" type="curve" smooth="yes"/>
      <point x="858" y="-12"/>
      <point x="934" y="54"/>
      <point x="934" y="167" type="curve" smooth="yes"/>
      <point x="934" y="238"/>
      <point x="902" y="284"/>
      <point x="850" y="313" type="curve" smooth="yes"/>
      <point x="792" y="344"/>
      <point x="725" y="355"/>
      <point x="621" y="355" type="curve" smooth="yes"/>
      <point x="379" y="355" type="line" smooth="yes"/>
      <point x="126" y="355"/>
      <point x="33" y="280"/>
      <point x="33" y="168" type="curve" smooth="yes"/>
      <point x="33" y="50"/>
      <point x="132" y="-12"/>
    </contour>
  </outline>
</glyph>
<glyph name="catamil" format="2">
  <advance width="864"/>
  <unicode hex="0B9A"/>
  <outline>
    <contour>
      <point x="313" y="-12" type="curve" smooth="yes"/>
      <point x="424" y="-12"/>
      <point x="498" y="8"/>
      <point x="549" y="55" type="curve" smooth="yes"/>
      <point x="595" y="98"/>
      <point x="619" y="162"/>
      <point x="619" y="252" type="curve" smooth="yes"/>
      <point x="619" y="439" type="line"/>
      <point x="810" y="439" type="line"/>
      <point x="810" y="569" type="line"/>
      <point x="129" y="569" type="line"/>
      <point x="129" y="286" type="line"/>
      <point x="300" y="302" type="line"/>
      <point x="300" y="439" type="line"/>
      <point x="434" y="439" type="line"/>
      <point x="434" y="240" type="line" smooth="yes"/>
      <point x="434" y="144"/>
      <point x="389" y="118"/>
      <point x="315" y="118" type="curve" smooth="yes"/>
      <point x="253" y="118"/>
      <point x="217" y="133"/>
      <point x="217" y="176" type="curve" smooth="yes"/>
      <point x="217" y="196"/>
      <point x="227" y="211"/>
      <point x="247" y="221" type="curve" smooth="yes"/>
      <point x="269" y="231"/>
      <point x="296" y="234"/>
      <point x="353" y="234" type="curve" smooth="yes"/>
      <point x="810" y="234" type="line"/>
      <point x="810" y="355" type="line"/>
      <point x="379" y="355" type="line" smooth="yes"/>
      <point x="126" y="355"/>
      <point x="33" y="280"/>
      <point x="33" y="168" type="curve" smooth="yes"/>
      <point x="33" y="50"/>
      <point x="131" y="-12"/>
    </contour>
  </outline>
</glyph>
<glyph name="jatamil" format="2">
  <advance width="1153"/>
  <unicode hex="0B9C"/>
  <outline>
    <contour>
      <point x="343" y="581" type="curve" smooth="yes"/>
      <point x="174" y="581"/>
      <point x="35" y="496"/>
      <point x="35" y="350" type="curve" smooth="yes"/>
      <point x="35" y="261"/>
      <point x="88" y="164"/>
      <point x="250" y="164" type="curve" smooth="yes"/>
      <point x="395" y="164"/>
      <point x="462" y="228"/>
      <point x="462" y="330" type="curve" smooth="yes"/>
      <point x="462" y="412"/>
      <point x="407" y="468"/>
      <point x="340" y="482" type="curve"/>
      <point x="180" y="430" type="line"/>
      <point x="288" y="428"/>
      <point x="310" y="384"/>
      <point x="310" y="343" type="curve" smooth="yes"/>
      <point x="310" y="308"/>
      <point x="288" y="284"/>
      <point x="249" y="284" type="curve" smooth="yes"/>
      <point x="206" y="284"/>
      <point x="191" y="313"/>
      <point x="191" y="343" type="curve" smooth="yes"/>
      <point x="191" y="388"/>
      <point x="221" y="424"/>
      <point x="272" y="442" type="curve"/>
      <point x="294" y="450" type="line"/>
      <point x="315" y="456"/>
      <point x="337" y="459"/>
      <point x="355" y="459" type="curve" smooth="yes"/>
      <point x="483" y="459"/>
      <point x="527" y="397"/>
      <point x="527" y="292" type="curve" smooth="yes"/>
      <point x="527" y="204" type="line"/>
      <point x="715" y="204" type="line"/>
      <point x="715" y="299" type="line" smooth="yes"/>
      <point x="715" y="370"/>
      <point x="725" y="400"/>
      <point x="746" y="423" type="curve" smooth="yes"/>
      <point x="760" y="438"/>
      <point x="781" y="449"/>
      <point x="814" y="449" type="curve" smooth="yes"/>
      <point x="874" y="449"/>
      <point x="922" y="408"/>
      <point x="922" y="322" type="curve" smooth="yes"/>
      <point x="922" y="270"/>
      <point x="907" y="233"/>
      <point x="876" y="208" type="curve" smooth="yes"/>
      <point x="836" y="176"/>
      <point x="781" y="163"/>
      <point x="664" y="163" type="curve" smooth="yes"/>
      <point x="444" y="163" type="line" smooth="yes"/>
      <point x="290" y="163"/>
      <point x="205" y="149"/>
      <point x="134" y="104" type="curve" smooth="yes"/>
      <point x="74" y="66"/>
      <point x="35" y="7"/>
      <point x="35" y="-85" type="curve" smooth="yes"/>
      <point x="35" y="-216"/>
      <point x="118" y="-321"/>
      <point x="328" y="-321" type="curve" smooth="yes"/>
      <point x="485" y="-321"/>
      <point x="567" y="-275"/>
      <point x="676" y="-166" type="curve" smooth="yes"/>
      <point x="723" y="-119"/>
      <point x="746" y="-103"/>
      <point x="775" y="-90" type="curve" smooth="yes"/>
      <point x="795" y="-81"/>
      <point x="818" y="-77"/>
      <point x="843" y="-77" type="curve" smooth="yes"/>
      <point x="918" y="-77"/>
      <point x="936" y="-113"/>
      <point x="936" y="-141" type="curve" smooth="yes"/>
      <point x="936" y="-171"/>
      <point x="919" y="-197"/>
      <point x="879" y="-197" type="curve" smooth="yes"/>
      <point x="837" y="-197"/>
      <point x="818" y="-176"/>
      <point x="818" y="-140" type="curve" smooth="yes"/>
      <point x="818" y="-104"/>
      <point x="841" y="-70"/>
      <point x="891" y="-36" type="curve"/>
      <point x="745" y="-20" type="line"/>
      <point x="705" y="-57"/>
      <point x="673" y="-106"/>
      <point x="673" y="-165" type="curve" smooth="yes"/>
      <point x="673" y="-229"/>
      <point x="717" y="-321"/>
      <point x="882" y="-321" type="curve" smooth="yes"/>
      <point x="1037" y="-321"/>
      <point x="1099" y="-245"/>
      <point x="1099" y="-149" type="curve" smooth="yes"/>
      <point x="1099" y="-47"/>
      <point x="1024" y="45"/>
      <point x="857" y="45" type="curve" smooth="yes"/>
      <point x="740" y="45"/>
      <point x="668" y="25"/>
      <point x="542" y="-88" type="curve" smooth="yes"/>
      <point x="449" y="-171"/>
      <point x="404" y="-191"/>
      <point x="339" y="-191" type="curve" smooth="yes"/>
      <point x="258" y="-191"/>
      <point x="225" y="-142"/>
      <point x="225" y="-82" type="curve" smooth="yes"/>
      <point x="225" y="-42"/>
      <point x="244" y="-11"/>
      <point x="273" y="7" type="curve" smooth="yes"/>
      <point x="310" y="30"/>
      <point x="351" y="35"/>
      <point x="423" y="35" type="curve" smooth="yes"/>
      <point x="666" y="35" type="line" smooth="yes"/>
      <point x="814" y="35"/>
      <point x="923" y="48"/>
      <point x="1008" y="106" type="curve" smooth="yes"/>
      <point x="1073" y="150"/>
      <point x="1112" y="220"/>
      <point x="1112" y="329" type="curve" smooth="yes"/>
      <point x="1112" y="458"/>
      <point x="1024" y="581"/>
      <point x="829" y="581" type="curve" smooth="yes"/>
      <point x="708" y="581"/>
      <point x="633" y="529"/>
      <point x="585" y="439" type="curve"/>
      <point x="645" y="453" type="line"/>
      <point x="583" y="527"/>
      <point x="519" y="581"/>
    </contour>
  </outline>
</glyph>
<glyph name="nyatamil" format="2">
  <advance width="1424"/>
  <unicode hex="0B9E"/>
  <outline>
    <contour>
      <point x="1162" y="346" type="curve" smooth="yes"/>
      <point x="1120" y="346"/>
      <point x="1070" y="336"/>
      <point x="1033" y="315" type="curve"/>
      <point x="1044" y="190" type="line"/>
      <point x="1065" y="207"/>
      <point x="1088" y="216"/>
      <point x="1113" y="216" type="curve" smooth="yes"/>
      <point x="1171" y="216"/>
      <point x="1201" y="170"/>
      <point x="1201" y="102" type="curve" smooth="yes"/>
      <point x="1201" y="-104"/>
      <point x="1018" y="-186"/>
      <point x="747" y="-186" type="curve" smooth="yes"/>
      <point x="705" y="-186" type="line" smooth="yes"/>
      <point x="345" y="-186"/>
      <point x="225" y="-51"/>
      <point x="225" y="167" type="curve" smooth="yes"/>
      <point x="225" y="183" type="line" smooth="yes"/>
      <point x="225" y="277"/>
      <point x="258" y="388"/>
      <point x="332" y="498" type="curve"/>
      <point x="184" y="582" type="line"/>
      <point x="109" y="470"/>
      <point x="47" y="328"/>
      <point x="47" y="163" type="curve" smooth="yes"/>
      <point x="47" y="152" type="line" smooth="yes"/>
      <point x="47" y="-111"/>
      <point x="207" y="-321"/>
      <point x="699" y="-321" type="curve" smooth="yes"/>
      <point x="768" y="-321" type="line" smooth="yes"/>
      <point x="1075" y="-321"/>
      <point x="1391" y="-219"/>
      <point x="1391" y="99" type="curve" smooth="yes"/>
      <point x="1391" y="252"/>
      <point x="1309" y="346"/>
    </contour>
    <contour>
      <point x="572" y="-12" type="curve" smooth="yes"/>
      <point x="736" y="-12"/>
      <point x="808" y="61"/>
      <point x="808" y="177" type="curve" smooth="yes"/>
      <point x="808" y="294"/>
      <point x="734" y="355"/>
      <point x="622" y="355" type="curve" smooth="yes"/>
      <point x="535" y="355"/>
      <point x="471" y="311"/>
      <point x="411" y="261" type="curve"/>
      <point x="443" y="162" type="line"/>
      <point x="480" y="204"/>
      <point x="517" y="234"/>
      <point x="565" y="234" type="curve" smooth="yes"/>
      <point x="602" y="234"/>
      <point x="627" y="217"/>
      <point x="627" y="174" type="curve" smooth="yes"/>
      <point x="627" y="135"/>
      <point x="608" y="114"/>
      <point x="570" y="114" type="curve" smooth="yes"/>
      <point x="518" y="114"/>
      <point x="496" y="158"/>
      <point x="496" y="226" type="curve" smooth="yes"/>
      <point x="496" y="314"/>
      <point x="527" y="366"/>
      <point x="574" y="398" type="curve" smooth="yes"/>
      <point x="616" y="427"/>
      <point x="681" y="439"/>
      <point x="772" y="439" type="curve" smooth="yes"/>
      <point x="861" y="439" type="line"/>
      <point x="861" y="569" type="line"/>
      <point x="817" y="569" type="line" smooth="yes"/>
      <point x="627" y="569"/>
      <point x="521" y="550"/>
      <point x="433" y="482" type="curve" smooth="yes"/>
      <point x="367" y="431"/>
      <point x="324" y="355"/>
      <point x="324" y="239" type="curve" smooth="yes"/>
      <point x="324" y="79"/>
      <point x="414" y="-12"/>
    </contour>
    <contour>
      <point x="878" y="0" type="line"/>
      <point x="1068" y="0" type="line"/>
      <point x="1068" y="439" type="line"/>
      <point x="1200" y="439" type="line"/>
      <point x="1200" y="569" type="line"/>
      <point x="838" y="569" type="line"/>
      <point x="822" y="439" type="line"/>
      <point x="878" y="439" type="line"/>
    </contour>
  </outline>
</glyph>
<glyph name="ttatamil" format="2">
  <advance width="760"/>
  <unicode hex="0B9F"/>
  <outline>
    <contour>
      <point x="68" y="0" type="line"/>
      <point x="743" y="0" type="line"/>
      <point x="743" y="130" type="line"/>
      <point x="258" y="130" type="line"/>
      <point x="258" y="569" type="line"/>
      <point x="68" y="569" type="line"/>
    </contour>
  </outline>
</glyph>
<glyph name="nnatamil" format="2">
  <advance width="1911"/>
  <unicode hex="0BA3"/>
  <outline>
    <contour>
      <point x="285" y="-12" type="curve" smooth="yes"/>
      <point x="449" y="-12"/>
      <point x="521" y="61"/>
      <point x="521" y="177" type="curve" smooth="yes"/>
      <point x="521" y="294"/>
      <point x="447" y="355"/>
      <point x="335" y="355" type="curve" smooth="yes"/>
      <point x="248" y="355"/>
      <point x="184" y="311"/>
      <point x="124" y="261" type="curve"/>
      <point x="156" y="162" type="line"/>
      <point x="193" y="204"/>
      <point x="230" y="234"/>
      <point x="278" y="234" type="curve" smooth="yes"/>
      <point x="315" y="234"/>
      <point x="340" y="217"/>
      <point x="340" y="174" type="curve" smooth="yes"/>
      <point x="340" y="133"/>
      <point x="320" y="113"/>
      <point x="287" y="113" type="curve" smooth="yes"/>
      <point x="218" y="113"/>
      <point x="209" y="187"/>
      <point x="209" y="230" type="curve" smooth="yes"/>
      <point x="209" y="240"/>
      <point x="209" y="261"/>
      <point x="212" y="271" type="curve"/>
      <point x="231" y="371"/>
      <point x="328" y="451"/>
      <point x="489" y="451" type="curve" smooth="yes"/>
      <point x="586" y="451"/>
      <point x="650" y="433"/>
      <point x="706" y="392" type="curve"/>
      <point x="790" y="342"/>
      <point x="832" y="272"/>
      <point x="832" y="196" type="curve" smooth="yes"/>
      <point x="832" y="148"/>
      <point x="820" y="114"/>
      <point x="781" y="114" type="curve" smooth="yes"/>
      <point x="750" y="114"/>
      <point x="730" y="138"/>
      <point x="730" y="200" type="curve" smooth="yes"/>
      <point x="730" y="277"/>
      <point x="768" y="343"/>
      <point x="828" y="388" type="curve"/>
      <point x="881" y="428"/>
      <point x="938" y="451"/>
      <point x="1024" y="451" type="curve" smooth="yes"/>
      <point x="1105" y="451"/>
      <point x="1161" y="429"/>
      <point x="1213" y="392" type="curve"/>
      <point x="1278" y="346"/>
      <point x="1321" y="276"/>
      <point x="1321" y="196" type="curve" smooth="yes"/>
      <point x="1321" y="148"/>
      <point x="1309" y="114"/>
      <point x="1270" y="114" type="curve" smooth="yes"/>
      <point x="1239" y="114"/>
      <point x="1219" y="138"/>
      <point x="1219" y="197" type="curve" smooth="yes"/>
      <point x="1219" y="271"/>
      <point x="1250" y="336"/>
      <point x="1319" y="382" type="curve"/>
      <point x="1365" y="414"/>
      <point x="1417" y="439"/>
      <point x="1543" y="439" type="curve" smooth="yes"/>
      <point x="1572" y="439" type="line"/>
      <point x="1572" y="0" type="line"/>
      <point x="1762" y="0" type="line"/>
      <point x="1762" y="439" type="line"/>
      <point x="1894" y="439" type="line"/>
      <point x="1894" y="569" type="line"/>
      <point x="1572" y="569" type="line" smooth="yes"/>
      <point x="1395" y="569"/>
      <point x="1313" y="544"/>
      <point x="1232" y="491" type="curve"/>
      <point x="1207" y="468" type="line"/>
      <point x="1120" y="413"/>
      <point x="1048" y="311"/>
      <point x="1048" y="202" type="curve" smooth="yes"/>
      <point x="1048" y="66"/>
      <point x="1126" y="-12"/>
      <point x="1275" y="-12" type="curve" smooth="yes"/>
      <point x="1415" y="-12"/>
      <point x="1492" y="52"/>
      <point x="1492" y="196" type="curve" smooth="yes"/>
      <point x="1492" y="300"/>
      <point x="1441" y="392"/>
      <point x="1353" y="460" type="curve"/>
      <point x="1326" y="489" type="line"/>
      <point x="1229" y="555"/>
      <point x="1153" y="581"/>
      <point x="1024" y="581" type="curve" smooth="yes"/>
      <point x="904" y="581"/>
      <point x="801" y="553"/>
      <point x="713" y="486" type="curve"/>
      <point x="685" y="458" type="line"/>
      <point x="611" y="395"/>
      <point x="559" y="311"/>
      <point x="559" y="202" type="curve" smooth="yes"/>
      <point x="559" y="66"/>
      <point x="637" y="-12"/>
      <point x="786" y="-12" type="curve" smooth="yes"/>
      <point x="926" y="-12"/>
      <point x="1003" y="52"/>
      <point x="1003" y="196" type="curve" smooth="yes"/>
      <point x="1003" y="317"/>
      <point x="934" y="402"/>
      <point x="829" y="478" type="curve"/>
      <point x="805" y="496" type="line"/>
      <point x="711" y="556"/>
      <point x="616" y="581"/>
      <point x="484" y="581" type="curve" smooth="yes"/>
      <point x="212" y="581"/>
      <point x="37" y="451"/>
      <point x="37" y="244" type="curve" smooth="yes"/>
      <point x="37" y="79"/>
      <point x="127" y="-12"/>
    </contour>
  </outline>
</glyph>
<glyph name="tatamil" format="2">
  <advance width="971"/>
  <unicode hex="0BA4"/>
  <outline>
    <contour>
      <point x="313" y="-12" type="curve" smooth="yes"/>
      <point x="424" y="-12"/>
      <point x="498" y="8"/>
      <point x="549" y="55" type="curve" smooth="yes"/>
      <point x="595" y="98"/>
      <point x="619" y="162"/>
      <point x="619" y="252" type="curve" smooth="yes"/>
      <point x="619" y="439" type="line"/>
      <point x="808" y="439" type="line"/>
      <point x="808" y="569" type="line"/>
      <point x="129" y="569" type="line"/>
      <point x="129" y="286" type="line"/>
      <point x="300" y="302" type="line"/>
      <point x="300" y="439" type="line"/>
      <point x="434" y="439" type="line"/>
      <point x="434" y="239" type="line" smooth="yes"/>
      <point x="434" y="143"/>
      <point x="389" y="118"/>
      <point x="315" y="118" type="curve" smooth="yes"/>
      <point x="253" y="118"/>
      <point x="217" y="133"/>
      <point x="217" y="176" type="curve" smooth="yes"/>
      <point x="217" y="196"/>
      <point x="227" y="211"/>
      <point x="247" y="221" type="curve" smooth="yes"/>
      <point x="269" y="231"/>
      <point x="296" y="234"/>
      <point x="353" y="234" type="curve" smooth="yes"/>
      <point x="576" y="234" type="line" smooth="yes"/>
      <point x="679" y="234"/>
      <point x="753" y="204"/>
      <point x="753" y="108" type="curve" smooth="yes"/>
      <point x="753" y="60"/>
      <point x="737" y="26"/>
      <point x="710" y="2" type="curve" smooth="yes"/>
      <point x="657" y="-44"/>
      <point x="561" y="-50"/>
      <point x="441" y="-50" type="curve" smooth="yes"/>
      <point x="303" y="-50" type="line" smooth="yes"/>
      <point x="195" y="-50"/>
      <point x="149" y="-62"/>
      <point x="105" y="-91" type="curve" smooth="yes"/>
      <point x="61" y="-120"/>
      <point x="33" y="-169"/>
      <point x="33" y="-230" type="curve" smooth="yes"/>
      <point x="33" y="-262"/>
      <point x="35" y="-291"/>
      <point x="39" y="-322" type="curve"/>
      <point x="226" y="-312" type="line"/>
      <point x="224" y="-299"/>
      <point x="223" y="-286"/>
      <point x="223" y="-269" type="curve" smooth="yes"/>
      <point x="223" y="-235"/>
      <point x="234" y="-214"/>
      <point x="253" y="-200" type="curve" smooth="yes"/>
      <point x="276" y="-184"/>
      <point x="303" y="-180"/>
      <point x="364" y="-180" type="curve" smooth="yes"/>
      <point x="479" y="-180" type="line" smooth="yes"/>
      <point x="629" y="-180"/>
      <point x="740" y="-164"/>
      <point x="821" y="-117" type="curve" smooth="yes"/>
      <point x="892" y="-75"/>
      <point x="938" y="-10"/>
      <point x="938" y="96" type="curve" smooth="yes"/>
      <point x="938" y="290"/>
      <point x="797" y="355"/>
      <point x="573" y="355" type="curve" smooth="yes"/>
      <point x="379" y="355" type="line" smooth="yes"/>
      <point x="126" y="355"/>
      <point x="33" y="280"/>
      <point x="33" y="168" type="curve" smooth="yes"/>
      <point x="33" y="50"/>
      <point x="132" y="-12"/>
    </contour>
  </outline>
</glyph>
<glyph name="natamil" format="2">
  <advance width="937"/>
  <unicode hex="0BA8"/>
  <outline>
    <contour>
      <point x="684" y="370" type="curve" smooth="yes"/>
      <point x="620" y="370"/>
      <point x="576" y="356"/>
      <point x="533" y="333" type="curve"/>
      <point x="548" y="210" type="line"/>
      <point x="568" y="226"/>
      <point x="600" y="240"/>
      <point x="630" y="240" type="curve" smooth="yes"/>
      <point x="686" y="240"/>
      <point x="716" y="200"/>
      <point x="716" y="123" type="curve" smooth="yes"/>
      <point x="716" y="64"/>
      <point x="703" y="27"/>
      <point x="677" y="1" type="curve" smooth="yes"/>
      <point x="639" y="-37"/>
      <point x="585" y="-50"/>
      <point x="463" y="-50" type="curve" smooth="yes"/>
      <point x="300" y="-50" type="line" smooth="yes"/>
      <point x="192" y="-50"/>
      <point x="146" y="-62"/>
      <point x="102" y="-91" type="curve" smooth="yes"/>
      <point x="58" y="-120"/>
      <point x="30" y="-169"/>
      <point x="30" y="-231" type="curve" smooth="yes"/>
      <point x="30" y="-262"/>
      <point x="32" y="-291"/>
      <point x="36" y="-322" type="curve"/>
      <point x="223" y="-312" type="line"/>
      <point x="221" y="-299"/>
      <point x="220" y="-286"/>
      <point x="220" y="-269" type="curve" smooth="yes"/>
      <point x="220" y="-235"/>
      <point x="231" y="-214"/>
      <point x="250" y="-200" type="curve" smooth="yes"/>
      <point x="273" y="-184"/>
      <point x="300" y="-180"/>
      <point x="361" y="-180" type="curve" smooth="yes"/>
      <point x="494" y="-180" type="line" smooth="yes"/>
      <point x="625" y="-180"/>
      <point x="714" y="-164"/>
      <point x="787" y="-115" type="curve" smooth="yes"/>
      <point x="857" y="-68"/>
      <point x="902" y="8"/>
      <point x="902" y="130" type="curve" smooth="yes"/>
      <point x="902" y="269"/>
      <point x="832" y="370"/>
    </contour>
    <contour>
      <point x="68" y="0" type="line"/>
      <point x="258" y="0" type="line"/>
      <point x="258" y="439" type="line"/>
      <point x="382" y="439" type="line"/>
      <point x="382" y="0" type="line"/>
      <point x="572" y="0" type="line"/>
      <point x="572" y="439" type="line"/>
      <point x="704" y="439" type="line"/>
      <point x="704" y="569" type="line"/>
      <point x="68" y="569" type="line"/>
    </contour>
  </outline>
</glyph>
<glyph name="nnnatamil" format="2">
  <advance width="1422"/>
  <unicode hex="0BA9"/>
  <outline>
    <contour>
      <point x="285" y="-12" type="curve" smooth="yes"/>
      <point x="449" y="-12"/>
      <point x="521" y="61"/>
      <point x="521" y="177" type="curve" smooth="yes"/>
      <point x="521" y="294"/>
      <point x="447" y="355"/>
      <point x="335" y="355" type="curve" smooth="yes"/>
      <point x="248" y="355"/>
      <point x="184" y="311"/>
      <point x="124" y="261" type="curve"/>
      <point x="156" y="162" type="line"/>
      <point x="193" y="204"/>
      <point x="230" y="234"/>
      <point x="278" y="234" type="curve" smooth="yes"/>
      <point x="315" y="234"/>
      <point x="340" y="217"/>
      <point x="340" y="174" type="curve" smooth="yes"/>
      <point x="340" y="135"/>
      <point x="321" y="114"/>
      <point x="283" y="114" type="curve" smooth="yes"/>
      <point x="231" y="114"/>
      <point x="209" y="158"/>
      <point x="209" y="230" type="curve" smooth="yes"/>
      <point x="209" y="244"/>
      <point x="210" y="259"/>
      <point x="212" y="271" type="curve"/>
      <point x="231" y="371"/>
      <point x="328" y="451"/>
      <point x="489" y="451" type="curve" smooth="yes"/>
      <point x="586" y="451"/>
      <point x="650" y="433"/>
      <point x="706" y="392" type="curve"/>
      <point x="790" y="342"/>
      <point x="832" y="272"/>
      <point x="832" y="196" type="curve" smooth="yes"/>
      <point x="832" y="148"/>
      <point x="820" y="114"/>
      <point x="781" y="114" type="curve" smooth="yes"/>
      <point x="750" y="114"/>
      <point x="730" y="138"/>
      <point x="730" y="197" type="curve" smooth="yes"/>
      <point x="730" y="271"/>
      <point x="761" y="336"/>
      <point x="830" y="382" type="curve"/>
      <point x="876" y="414"/>
      <point x="928" y="439"/>
      <point x="1054" y="439" type="curve" smooth="yes"/>
      <point x="1083" y="439" type="line"/>
      <point x="1083" y="0" type="line"/>
      <point x="1273" y="0" type="line"/>
      <point x="1273" y="439" type="line"/>
      <point x="1405" y="439" type="line"/>
      <point x="1405" y="569" type="line"/>
      <point x="1083" y="569" type="line" smooth="yes"/>
      <point x="906" y="569"/>
      <point x="824" y="544"/>
      <point x="743" y="491" type="curve"/>
      <point x="718" y="468" type="line"/>
      <point x="631" y="413"/>
      <point x="559" y="311"/>
      <point x="559" y="202" type="curve" smooth="yes"/>
      <point x="559" y="66"/>
      <point x="637" y="-12"/>
      <point x="786" y="-12" type="curve" smooth="yes"/>
      <point x="926" y="-12"/>
      <point x="1003" y="52"/>
      <point x="1003" y="196" type="curve" smooth="yes"/>
      <point x="1003" y="317"/>
      <point x="934" y="402"/>
      <point x="829" y="478" type="curve"/>
      <point x="805" y="496" type="line"/>
      <point x="711" y="556"/>
      <point x="616" y="581"/>
      <point x="484" y="581" type="curve" smooth="yes"/>
      <point x="212" y="581"/>
      <point x="37" y="451"/>
      <point x="37" y="244" type="curve" smooth="yes"/>
      <point x="37" y="79"/>
      <point x="127" y="-12"/>
    </contour>
  </outline>
</glyph>
<glyph name="patamil" format="2">
  <advance width="855"/>
  <unicode hex="0BAA"/>
  <outline>
    <contour>
      <point x="68" y="0" type="line"/>
      <point x="787" y="0" type="line"/>
      <point x="787" y="569" type="line"/>
      <point x="597" y="569" type="line"/>
      <point x="597" y="130" type="line"/>
      <point x="258" y="130" type="line"/>
      <point x="258" y="569" type="line"/>
      <point x="68" y="569" type="line"/>
    </contour>
  </outline>
</glyph>
<glyph name="matamil" format="2">
  <advance width="968"/>
  <unicode hex="0BAE"/>
  <outline>
    <contour>
      <point x="641" y="581" type="curve" smooth="yes"/>
      <point x="576" y="581"/>
      <point x="515" y="563"/>
      <point x="475" y="528" type="curve" smooth="yes"/>
      <point x="433" y="492"/>
      <point x="410" y="442"/>
      <point x="410" y="351" type="curve" smooth="yes"/>
      <point x="410" y="130" type="line"/>
      <point x="258" y="130" type="line"/>
      <point x="258" y="569" type="line"/>
      <point x="68" y="569" type="line"/>
      <point x="68" y="0" type="line"/>
      <point x="589" y="0" type="line" smooth="yes"/>
      <point x="717" y="0"/>
      <point x="787" y="15"/>
      <point x="842" y="57" type="curve" smooth="yes"/>
      <point x="897" y="98"/>
      <point x="930" y="166"/>
      <point x="930" y="275" type="curve" smooth="yes"/>
      <point x="930" y="445"/>
      <point x="845" y="581"/>
    </contour>
    <contour>
      <point x="657" y="451" type="curve" smooth="yes"/>
      <point x="717" y="451"/>
      <point x="742" y="385"/>
      <point x="742" y="276" type="curve" smooth="yes"/>
      <point x="742" y="166"/>
      <point x="703" y="130"/>
      <point x="616" y="130" type="curve" smooth="yes"/>
      <point x="600" y="130" type="line"/>
      <point x="600" y="356" type="line" smooth="yes"/>
      <point x="600" y="402"/>
      <point x="603" y="418"/>
      <point x="617" y="434" type="curve" smooth="yes"/>
      <point x="626" y="445"/>
      <point x="641" y="451"/>
    </contour>
  </outline>
</glyph>
<glyph name="yatamil" format="2">
  <advance width="1071"/>
  <unicode hex="0BAF"/>
  <outline>
    <contour>
      <point x="377" y="0" type="line"/>
      <point x="1003" y="0" type="line"/>
      <point x="1003" y="569" type="line"/>
      <point x="813" y="569" type="line"/>
      <point x="813" y="130" type="line"/>
      <point x="567" y="130" type="line"/>
      <point x="567" y="569" type="line"/>
      <point x="377" y="569" type="line"/>
    </contour>
    <contour>
      <point x="257" y="-12" type="curve" smooth="yes"/>
      <point x="332" y="-12"/>
      <point x="370" y="12"/>
      <point x="406" y="49" type="curve"/>
      <point x="402" y="176" type="line"/>
      <point x="383" y="143"/>
      <point x="361" y="117"/>
      <point x="319" y="117" type="curve" smooth="yes"/>
      <point x="299" y="117"/>
      <point x="285" y="122"/>
      <point x="275" y="132" type="curve" smooth="yes"/>
      <point x="258" y="149"/>
      <point x="255" y="179"/>
      <point x="255" y="229" type="curve" smooth="yes"/>
      <point x="255" y="569" type="line"/>
      <point x="65" y="569" type="line"/>
      <point x="65" y="225" type="line" smooth="yes"/>
      <point x="65" y="129"/>
      <point x="85" y="73"/>
      <point x="123" y="36" type="curve" smooth="yes"/>
      <point x="157" y="4"/>
      <point x="202" y="-12"/>
    </contour>
  </outline>
</glyph>
<glyph name="ratamil" format="2">
  <advance width="729"/>
  <unicode hex="0BB0"/>
  <outline>
    <contour>
      <point x="356" y="-214" type="line"/>
      <point x="580" y="0" type="line"/>
      <point x="580" y="439" type="line"/>
      <point x="712" y="439" type="line"/>
      <point x="712" y="569" type="line"/>
      <point x="68" y="569" type="line"/>
      <point x="68" y="0" type="line"/>
      <point x="258" y="0" type="line"/>
      <point x="258" y="439" type="line"/>
      <point x="390" y="439" type="line"/>
      <point x="390" y="39" type="line"/>
      <point x="237" y="-104" type="line"/>
    </contour>
  </outline>
</glyph>
<glyph name="rratamil" format="2">
  <advance width="1030"/>
  <unicode hex="0BB1"/>
  <outline>
    <contour>
      <point x="692" y="581" type="curve" smooth="yes"/>
      <point x="576" y="581"/>
      <point x="508" y="530"/>
      <point x="451" y="442" type="curve"/>
      <point x="514" y="440" type="line"/>
      <point x="466" y="527"/>
      <point x="415" y="581"/>
      <point x="304" y="581" type="curve" smooth="yes"/>
      <point x="240" y="581"/>
      <point x="190" y="565"/>
      <point x="152" y="536" type="curve" smooth="yes"/>
      <point x="97" y="494"/>
      <point x="65" y="429"/>
      <point x="65" y="310" type="curve" smooth="yes"/>
      <point x="65" y="0" type="line"/>
      <point x="255" y="0" type="line"/>
      <point x="255" y="304" type="line" smooth="yes"/>
      <point x="255" y="366"/>
      <point x="257" y="407"/>
      <point x="278" y="432" type="curve" smooth="yes"/>
      <point x="288" y="444"/>
      <point x="303" y="451"/>
      <point x="323" y="451" type="curve" smooth="yes"/>
      <point x="343" y="451"/>
      <point x="356" y="443"/>
      <point x="366" y="431" type="curve" smooth="yes"/>
      <point x="384" y="408"/>
      <point x="386" y="372"/>
      <point x="386" y="297" type="curve" smooth="yes"/>
      <point x="386" y="0" type="line"/>
      <point x="576" y="0" type="line"/>
      <point x="576" y="298" type="line" smooth="yes"/>
      <point x="576" y="364"/>
      <point x="584" y="403"/>
      <point x="612" y="429" type="curve" smooth="yes"/>
      <point x="627" y="443"/>
      <point x="647" y="451"/>
      <point x="676" y="451" type="curve" smooth="yes"/>
      <point x="752" y="451"/>
      <point x="798" y="379"/>
      <point x="798" y="236" type="curve" smooth="yes"/>
      <point x="798" y="0"/>
      <point x="703" y="-50"/>
      <point x="479" y="-50" type="curve" smooth="yes"/>
      <point x="297" y="-50" type="line" smooth="yes"/>
      <point x="189" y="-50"/>
      <point x="143" y="-62"/>
      <point x="99" y="-91" type="curve" smooth="yes"/>
      <point x="55" y="-120"/>
      <point x="27" y="-169"/>
      <point x="27" y="-231" type="curve" smooth="yes"/>
      <point x="27" y="-262"/>
      <point x="29" y="-291"/>
      <point x="33" y="-322" type="curve"/>
      <point x="220" y="-312" type="line"/>
      <point x="218" y="-299"/>
      <point x="217" y="-286"/>
      <point x="217" y="-269" type="curve" smooth="yes"/>
      <point x="217" y="-235"/>
      <point x="228" y="-214"/>
      <point x="247" y="-200" type="curve" smooth="yes"/>
      <point x="270" y="-184"/>
      <point x="297" y="-180"/>
      <point x="358" y="-180" type="curve" smooth="yes"/>
      <point x="492" y="-180" type="line" smooth="yes"/>
      <point x="672" y="-180"/>
      <point x="777" y="-158"/>
      <point x="862" y="-89" type="curve" smooth="yes"/>
      <point x="938" y="-28"/>
      <point x="988" y="73"/>
      <point x="988" y="239" type="curve" smooth="yes"/>
      <point x="988" y="456"/>
      <point x="882" y="581"/>
    </contour>
  </outline>
</glyph>
<glyph name="latamil" format="2">
  <advance width="1180"/>
  <unicode hex="0BB2"/>
  <outline>
    <contour>
      <point x="284" y="-12" type="curve" smooth="yes"/>
      <point x="449" y="-12"/>
      <point x="521" y="61"/>
      <point x="521" y="177" type="curve" smooth="yes"/>
      <point x="521" y="295"/>
      <point x="447" y="355"/>
      <point x="335" y="355" type="curve" smooth="yes"/>
      <point x="248" y="355"/>
      <point x="184" y="311"/>
      <point x="124" y="261" type="curve"/>
      <point x="156" y="162" type="line"/>
      <point x="193" y="204"/>
      <point x="230" y="234"/>
      <point x="277" y="234" type="curve" smooth="yes"/>
      <point x="315" y="234"/>
      <point x="340" y="217"/>
      <point x="340" y="174" type="curve" smooth="yes"/>
      <point x="340" y="135"/>
      <point x="321" y="114"/>
      <point x="282" y="114" type="curve" smooth="yes"/>
      <point x="230" y="114"/>
      <point x="208" y="157"/>
      <point x="208" y="235" type="curve" smooth="yes"/>
      <point x="208" y="370"/>
      <point x="299" y="451"/>
      <point x="419" y="451" type="curve" smooth="yes"/>
      <point x="481" y="451"/>
      <point x="517" y="433"/>
      <point x="541" y="402" type="curve" smooth="yes"/>
      <point x="574" y="359"/>
      <point x="580" y="295"/>
      <point x="586" y="229" type="curve" smooth="yes"/>
      <point x="595" y="133"/>
      <point x="626" y="68"/>
      <point x="683" y="30" type="curve" smooth="yes"/>
      <point x="726" y="2"/>
      <point x="779" y="-12"/>
      <point x="861" y="-12" type="curve" smooth="yes"/>
      <point x="1054" y="-12"/>
      <point x="1139" y="112"/>
      <point x="1139" y="266" type="curve" smooth="yes"/>
      <point x="1139" y="388"/>
      <point x="1101" y="501"/>
      <point x="1004" y="615" type="curve"/>
      <point x="847" y="526" type="line"/>
      <point x="917" y="440"/>
      <point x="949" y="345"/>
      <point x="949" y="253" type="curve" smooth="yes"/>
      <point x="949" y="150"/>
      <point x="920" y="118"/>
      <point x="865" y="118" type="curve" smooth="yes"/>
      <point x="839" y="118"/>
      <point x="818" y="126"/>
      <point x="804" y="141" type="curve" smooth="yes"/>
      <point x="786" y="160"/>
      <point x="778" y="184"/>
      <point x="776" y="233" type="curve" smooth="yes"/>
      <point x="770" y="377"/>
      <point x="738" y="462"/>
      <point x="667" y="518" type="curve" smooth="yes"/>
      <point x="612" y="561"/>
      <point x="542" y="581"/>
      <point x="433" y="581" type="curve" smooth="yes"/>
      <point x="214" y="581"/>
      <point x="37" y="469"/>
      <point x="37" y="247" type="curve" smooth="yes"/>
      <point x="37" y="79"/>
      <point x="127" y="-12"/>
    </contour>
  </outline>
</glyph>
<glyph name="llatamil" format="2">
  <advance width="1244"/>
  <unicode hex="0BB3"/>
  <outline>
    <contour>
      <point x="285" y="-12" type="curve" smooth="yes"/>
      <point x="449" y="-12"/>
      <point x="521" y="61"/>
      <point x="521" y="177" type="curve" smooth="yes"/>
      <point x="521" y="296"/>
      <point x="447" y="355"/>
      <point x="335" y="355" type="curve" smooth="yes"/>
      <point x="248" y="355"/>
      <point x="184" y="311"/>
      <point x="124" y="261" type="curve"/>
      <point x="156" y="162" type="line"/>
      <point x="193" y="204"/>
      <point x="230" y="234"/>
      <point x="278" y="234" type="curve" smooth="yes"/>
      <point x="315" y="234"/>
      <point x="340" y="217"/>
      <point x="340" y="174" type="curve" smooth="yes"/>
      <point x="340" y="135"/>
      <point x="321" y="114"/>
      <point x="283" y="114" type="curve" smooth="yes"/>
      <point x="231" y="114"/>
      <point x="209" y="157"/>
      <point x="209" y="235" type="curve" smooth="yes"/>
      <point x="209" y="372"/>
      <point x="288" y="451"/>
      <point x="405" y="451" type="curve" smooth="yes"/>
      <point x="503" y="451"/>
      <point x="563" y="403"/>
      <point x="614" y="340" type="curve"/>
      <point x="696" y="466" type="line"/>
      <point x="599" y="545"/>
      <point x="520" y="581"/>
      <point x="400" y="581" type="curve" smooth="yes"/>
      <point x="212" y="581"/>
      <point x="37" y="469"/>
      <point x="37" y="248" type="curve" smooth="yes"/>
      <point x="37" y="79"/>
      <point x="127" y="-12"/>
    </contour>
    <contour>
      <point x="591" y="0" type="line"/>
      <point x="781" y="0" type="line"/>
      <point x="781" y="439" type="line"/>
      <point x="905" y="439" type="line"/>
      <point x="905" y="0" type="line"/>
      <point x="1095" y="0" type="line"/>
      <point x="1095" y="439" type="line"/>
      <point x="1227" y="439" type="line"/>
      <point x="1227" y="569" type="line"/>
      <point x="613" y="569" type="line"/>
      <point x="612" y="469" type="line"/>
      <point x="591" y="478" type="line"/>
    </contour>
  </outline>
</glyph>
<glyph name="lllatamil" format="2">
  <advance width="968"/>
  <unicode hex="0BB4"/>
  <outline>
    <contour>
      <point x="641" y="581" type="curve" smooth="yes"/>
      <point x="576" y="581"/>
      <point x="515" y="563"/>
      <point x="475" y="528" type="curve" smooth="yes"/>
      <point x="433" y="492"/>
      <point x="410" y="442"/>
      <point x="410" y="351" type="curve" smooth="yes"/>
      <point x="410" y="130" type="line"/>
      <point x="258" y="130" type="line"/>
      <point x="258" y="569" type="line"/>
      <point x="68" y="569" type="line"/>
      <point x="68" y="0" type="line"/>
      <point x="589" y="0" type="line" smooth="yes"/>
      <point x="717" y="0"/>
      <point x="787" y="15"/>
      <point x="842" y="57" type="curve" smooth="yes"/>
      <point x="897" y="98"/>
      <point x="930" y="166"/>
      <point x="930" y="275" type="curve" smooth="yes"/>
      <point x="930" y="445"/>
      <point x="845" y="581"/>
    </contour>
    <contour>
      <point x="657" y="451" type="curve" smooth="yes"/>
      <point x="717" y="451"/>
      <point x="742" y="385"/>
      <point x="742" y="276" type="curve" smooth="yes"/>
      <point x="742" y="166"/>
      <point x="703" y="130"/>
      <point x="616" y="130" type="curve" smooth="yes"/>
      <point x="600" y="130" type="line"/>
      <point x="600" y="356" type="line" smooth="yes"/>
      <point x="600" y="402"/>
      <point x="603" y="418"/>
      <point x="617" y="434" type="curve" smooth="yes"/>
      <point x="626" y="445"/>
      <point x="641" y="451"/>
    </contour>
    <contour>
      <point x="232" y="-27" type="curve" smooth="yes"/>
      <point x="100" y="-27"/>
      <point x="37" y="-86"/>
      <point x="37" y="-165" type="curve" smooth="yes"/>
      <point x="37" y="-216"/>
      <point x="57" y="-251"/>
      <point x="90" y="-275" type="curve" smooth="yes"/>
      <point x="138" y="-310"/>
      <point x="203" y="-321"/>
      <point x="296" y="-321" type="curve" smooth="yes"/>
      <point x="311" y="-321" type="line" smooth="yes"/>
      <point x="470" y="-321"/>
      <point x="572" y="-280"/>
      <point x="631" y="-161" type="curve" smooth="yes"/>
      <point x="642" y="-139"/>
      <point x="668" y="-125"/>
      <point x="725" y="-113" type="curve"/>
      <point x="631" y="-88" type="line"/>
      <point x="521" y="-88"/>
      <point x="473" y="-101"/>
      <point x="459" y="-119" type="curve"/>
      <point x="433" y="-167"/>
      <point x="387" y="-194"/>
      <point x="298" y="-194" type="curve" smooth="yes"/>
      <point x="283" y="-194" type="line" smooth="yes"/>
      <point x="230" y="-194"/>
      <point x="217" y="-185"/>
      <point x="217" y="-168" type="curve" smooth="yes"/>
      <point x="217" y="-155"/>
      <point x="227" y="-146"/>
      <point x="264" y="-146" type="curve" smooth="yes"/>
      <point x="280" y="-146"/>
      <point x="303" y="-147"/>
      <point x="315" y="-149" type="curve"/>
      <point x="326" y="-36" type="line"/>
      <point x="300" y="-30"/>
      <point x="262" y="-27"/>
    </contour>
    <contour>
      <point x="581" y="-195" type="line"/>
      <point x="804" y="-195" type="line"/>
      <point x="804" y="-67" type="line"/>
      <point x="695" y="-67" type="line" smooth="yes"/>
      <point x="654" y="-67"/>
      <point x="632" y="-63"/>
      <point x="614" y="-46" type="curve" smooth="yes"/>
      <point x="603" y="-35"/>
      <point x="595" y="-20"/>
      <point x="595" y="3" type="curve"/>
      <point x="411" y="2" type="line"/>
      <point x="415" y="-114"/>
      <point x="484" y="-164"/>
      <point x="568" y="-182" type="curve"/>
    </contour>
  </outline>
</glyph>
<glyph name="vatamil" format="2">
  <advance width="1194"/>
  <unicode hex="0BB5"/>
  <outline>
    <contour>
      <point x="285" y="-12" type="curve" smooth="yes"/>
      <point x="449" y="-12"/>
      <point x="521" y="61"/>
      <point x="521" y="177" type="curve" smooth="yes"/>
      <point x="521" y="293"/>
      <point x="450" y="355"/>
      <point x="335" y="355" type="curve" smooth="yes"/>
      <point x="248" y="355"/>
      <point x="184" y="311"/>
      <point x="124" y="261" type="curve"/>
      <point x="156" y="162" type="line"/>
      <point x="193" y="204"/>
      <point x="230" y="234"/>
      <point x="278" y="234" type="curve" smooth="yes"/>
      <point x="315" y="234"/>
      <point x="340" y="217"/>
      <point x="340" y="174" type="curve" smooth="yes"/>
      <point x="340" y="135"/>
      <point x="321" y="114"/>
      <point x="283" y="114" type="curve" smooth="yes"/>
      <point x="231" y="114"/>
      <point x="209" y="157"/>
      <point x="209" y="235" type="curve" smooth="yes"/>
      <point x="209" y="369"/>
      <point x="285" y="451"/>
      <point x="415" y="451" type="curve" smooth="yes"/>
      <point x="528" y="451"/>
      <point x="601" y="381"/>
      <point x="601" y="259" type="curve" smooth="yes"/>
      <point x="601" y="198"/>
      <point x="589" y="142"/>
      <point x="564" y="99" type="curve"/>
      <point x="570" y="0" type="line"/>
      <point x="1126" y="0" type="line"/>
      <point x="1126" y="569" type="line"/>
      <point x="936" y="569" type="line"/>
      <point x="936" y="130" type="line"/>
      <point x="762" y="130" type="line"/>
      <point x="783" y="175"/>
      <point x="791" y="236"/>
      <point x="791" y="283" type="curve" smooth="yes"/>
      <point x="791" y="446"/>
      <point x="686" y="581"/>
      <point x="429" y="581" type="curve" smooth="yes"/>
      <point x="204" y="581"/>
      <point x="37" y="469"/>
      <point x="37" y="245" type="curve" smooth="yes"/>
      <point x="37" y="79"/>
      <point x="127" y="-12"/>
    </contour>
  </outline>
</glyph>
<glyph name="shatamil" format="2">
  <advance width="1334"/>
  <unicode hex="0BB6"/>
  <outline>
    <contour>
      <point x="344" y="-12" type="curve" smooth="yes"/>
      <point x="438" y="-12"/>
      <point x="514" y="8"/>
      <point x="562" y="59" type="curve" smooth="yes"/>
      <point x="599" y="99"/>
      <point x="619" y="156"/>
      <point x="619" y="257" type="curve" smooth="yes"/>
      <point x="619" y="439" type="line"/>
      <point x="711" y="439" type="line"/>
      <point x="711" y="270" type="line" smooth="yes"/>
      <point x="711" y="166"/>
      <point x="730" y="109"/>
      <point x="766" y="67" type="curve" smooth="yes"/>
      <point x="815" y="10"/>
      <point x="893" y="-12"/>
      <point x="992" y="-12" type="curve" smooth="yes"/>
      <point x="1090" y="-12"/>
      <point x="1163" y="9"/>
      <point x="1210" y="59" type="curve" smooth="yes"/>
      <point x="1249" y="101"/>
      <point x="1269" y="159"/>
      <point x="1269" y="258" type="curve" smooth="yes"/>
      <point x="1269" y="569" type="line"/>
      <point x="429" y="569" type="line"/>
      <point x="429" y="260" type="line" smooth="yes"/>
      <point x="429" y="196"/>
      <point x="423" y="164"/>
      <point x="406" y="144" type="curve" smooth="yes"/>
      <point x="392" y="128"/>
      <point x="372" y="120"/>
      <point x="342" y="120" type="curve" smooth="yes"/>
      <point x="314" y="120"/>
      <point x="294" y="128"/>
      <point x="281" y="142" type="curve" smooth="yes"/>
      <point x="260" y="163"/>
      <point x="255" y="199"/>
      <point x="255" y="260" type="curve" smooth="yes"/>
      <point x="255" y="569" type="line"/>
      <point x="65" y="569" type="line"/>
      <point x="65" y="270" type="line" smooth="yes"/>
      <point x="65" y="170"/>
      <point x="84" y="114"/>
      <point x="118" y="70" type="curve" smooth="yes"/>
      <point x="166" y="9"/>
      <point x="244" y="-12"/>
    </contour>
    <contour>
      <point x="990" y="120" type="curve" smooth="yes"/>
      <point x="961" y="120"/>
      <point x="943" y="127"/>
      <point x="929" y="141" type="curve" smooth="yes"/>
      <point x="910" y="161"/>
      <point x="901" y="192"/>
      <point x="901" y="259" type="curve" smooth="yes"/>
      <point x="901" y="439" type="line"/>
      <point x="1079" y="439" type="line"/>
      <point x="1079" y="256" type="line" smooth="yes"/>
      <point x="1079" y="194"/>
      <point x="1072" y="164"/>
      <point x="1055" y="144" type="curve" smooth="yes"/>
      <point x="1041" y="128"/>
      <point x="1021" y="120"/>
    </contour>
  </outline>
</glyph>
<glyph name="ssatamil" format="2">
  <advance width="1595"/>
  <unicode hex="0BB7"/>
  <outline>
    <contour>
      <point x="1069" y="581" type="curve" smooth="yes"/>
      <point x="900" y="581"/>
      <point x="841" y="484"/>
      <point x="841" y="390" type="curve" smooth="yes"/>
      <point x="841" y="287"/>
      <point x="901" y="185"/>
      <point x="1135" y="185" type="curve" smooth="yes"/>
      <point x="1203" y="185" type="line" smooth="yes"/>
      <point x="1292" y="185"/>
      <point x="1352" y="215"/>
      <point x="1380" y="232" type="curve"/>
      <point x="1379" y="216"/>
      <point x="1378" y="198"/>
      <point x="1378" y="184" type="curve" smooth="yes"/>
      <point x="1378" y="130" type="line"/>
      <point x="867" y="130" type="line"/>
      <point x="870" y="0" type="line"/>
      <point x="1538" y="0" type="line"/>
      <point x="1538" y="368" type="line"/>
      <point x="1378" y="368" type="line"/>
      <point x="1334" y="334"/>
      <point x="1276" y="308"/>
      <point x="1202" y="308" type="curve" smooth="yes"/>
      <point x="1125" y="308" type="line" smooth="yes"/>
      <point x="1040" y="308"/>
      <point x="1007" y="336"/>
      <point x="1007" y="390" type="curve" smooth="yes"/>
      <point x="1007" y="423"/>
      <point x="1026" y="453"/>
      <point x="1059" y="453" type="curve" smooth="yes"/>
      <point x="1091" y="453"/>
      <point x="1101" y="426"/>
      <point x="1101" y="394" type="curve" smooth="yes"/>
      <point x="1101" y="362"/>
      <point x="1094" y="337"/>
      <point x="1086" y="303" type="curve"/>
      <point x="1031" y="103" type="line"/>
      <point x="1026" y="65" type="line"/>
      <point x="940" y="-236" type="line"/>
      <point x="1117" y="-284" type="line"/>
      <point x="1256" y="215" type="line"/>
      <point x="1262" y="250" type="line"/>
      <point x="1275" y="297"/>
      <point x="1286" y="337"/>
      <point x="1286" y="393" type="curve" smooth="yes"/>
      <point x="1286" y="493"/>
      <point x="1228" y="581"/>
    </contour>
    <contour>
      <point x="285" y="-12" type="curve" smooth="yes"/>
      <point x="449" y="-12"/>
      <point x="521" y="61"/>
      <point x="521" y="177" type="curve" smooth="yes"/>
      <point x="521" y="293"/>
      <point x="450" y="355"/>
      <point x="335" y="355" type="curve" smooth="yes"/>
      <point x="248" y="355"/>
      <point x="184" y="311"/>
      <point x="124" y="261" type="curve"/>
      <point x="156" y="162" type="line"/>
      <point x="193" y="204"/>
      <point x="230" y="234"/>
      <point x="278" y="234" type="curve" smooth="yes"/>
      <point x="315" y="234"/>
      <point x="340" y="217"/>
      <point x="340" y="174" type="curve" smooth="yes"/>
      <point x="340" y="135"/>
      <point x="321" y="114"/>
      <point x="283" y="114" type="curve" smooth="yes"/>
      <point x="231" y="114"/>
      <point x="209" y="157"/>
      <point x="209" y="235" type="curve" smooth="yes"/>
      <point x="209" y="369"/>
      <point x="285" y="451"/>
      <point x="415" y="451" type="curve" smooth="yes"/>
      <point x="528" y="451"/>
      <point x="601" y="381"/>
      <point x="601" y="259" type="curve" smooth="yes"/>
      <point x="601" y="198"/>
      <point x="589" y="142"/>
      <point x="564" y="99" type="curve"/>
      <point x="570" y="0" type="line"/>
      <point x="937" y="0" type="line"/>
      <point x="933" y="130" type="line"/>
      <point x="762" y="130" type="line"/>
      <point x="783" y="175"/>
      <point x="791" y="236"/>
      <point x="791" y="283" type="curve" smooth="yes"/>
      <point x="791" y="446"/>
      <point x="686" y="581"/>
      <point x="428" y="581" type="curve" smooth="yes"/>
      <point x="204" y="581"/>
      <point x="37" y="469"/>
      <point x="37" y="245" type="curve" smooth="yes"/>
      <point x="37" y="79"/>
      <point x="127" y="-12"/>
    </contour>
  </outline>
</glyph>
<glyph name="satamil" format="2">
  <advance width="1499"/>
  <unicode hex="0BB8"/>
  <outline>
    <contour>
      <point x="284" y="-12" type="curve" smooth="yes"/>
      <point x="449" y="-12"/>
      <point x="521" y="61"/>
      <point x="521" y="177" type="curve" smooth="yes"/>
      <point x="521" y="295"/>
      <point x="447" y="355"/>
      <point x="335" y="355" type="curve" smooth="yes"/>
      <point x="248" y="355"/>
      <point x="184" y="311"/>
      <point x="124" y="261" type="curve"/>
      <point x="156" y="162" type="line"/>
      <point x="193" y="204"/>
      <point x="230" y="234"/>
      <point x="277" y="234" type="curve" smooth="yes"/>
      <point x="315" y="234"/>
      <point x="340" y="217"/>
      <point x="340" y="174" type="curve" smooth="yes"/>
      <point x="340" y="135"/>
      <point x="321" y="114"/>
      <point x="282" y="114" type="curve" smooth="yes"/>
      <point x="230" y="114"/>
      <point x="209" y="157"/>
      <point x="209" y="235" type="curve" smooth="yes"/>
      <point x="209" y="370"/>
      <point x="288" y="451"/>
      <point x="415" y="451" type="curve" smooth="yes"/>
      <point x="474" y="451"/>
      <point x="511" y="436"/>
      <point x="536" y="413" type="curve" smooth="yes"/>
      <point x="580" y="373"/>
      <point x="589" y="307"/>
      <point x="589" y="242" type="curve" smooth="yes"/>
      <point x="589" y="0" type="line"/>
      <point x="779" y="0" type="line"/>
      <point x="779" y="326" type="line" smooth="yes"/>
      <point x="779" y="381"/>
      <point x="786" y="412"/>
      <point x="803" y="432" type="curve" smooth="yes"/>
      <point x="814" y="445"/>
      <point x="830" y="451"/>
      <point x="850" y="451" type="curve" smooth="yes"/>
      <point x="871" y="451"/>
      <point x="884" y="444"/>
      <point x="893" y="431" type="curve" smooth="yes"/>
      <point x="909" y="410"/>
      <point x="911" y="374"/>
      <point x="911" y="332" type="curve" smooth="yes"/>
      <point x="911" y="254" type="line" smooth="yes"/>
      <point x="911" y="127"/>
      <point x="949" y="65"/>
      <point x="1002" y="30" type="curve" smooth="yes"/>
      <point x="1045" y="2"/>
      <point x="1098" y="-12"/>
      <point x="1180" y="-12" type="curve" smooth="yes"/>
      <point x="1373" y="-12"/>
      <point x="1458" y="112"/>
      <point x="1458" y="266" type="curve" smooth="yes"/>
      <point x="1458" y="388"/>
      <point x="1420" y="501"/>
      <point x="1323" y="615" type="curve"/>
      <point x="1166" y="526" type="line"/>
      <point x="1236" y="439"/>
      <point x="1268" y="345"/>
      <point x="1268" y="253" type="curve" smooth="yes"/>
      <point x="1268" y="150"/>
      <point x="1239" y="118"/>
      <point x="1184" y="118" type="curve" smooth="yes"/>
      <point x="1158" y="118"/>
      <point x="1137" y="126"/>
      <point x="1123" y="141" type="curve" smooth="yes"/>
      <point x="1106" y="160"/>
      <point x="1098" y="184"/>
      <point x="1098" y="253" type="curve" smooth="yes"/>
      <point x="1098" y="316" type="line" smooth="yes"/>
      <point x="1098" y="413"/>
      <point x="1076" y="485"/>
      <point x="1023" y="532" type="curve" smooth="yes"/>
      <point x="988" y="563"/>
      <point x="940" y="581"/>
      <point x="876" y="581" type="curve" smooth="yes"/>
      <point x="758" y="581"/>
      <point x="690" y="526"/>
      <point x="630" y="426" type="curve"/>
      <point x="710" y="433" type="line"/>
      <point x="643" y="517"/>
      <point x="566" y="581"/>
      <point x="419" y="581" type="curve" smooth="yes"/>
      <point x="213" y="581"/>
      <point x="37" y="469"/>
      <point x="37" y="245" type="curve" smooth="yes"/>
      <point x="37" y="79"/>
      <point x="127" y="-12"/>
    </contour>
  </outline>
</glyph>
<glyph name="hatamil" format="2">
  <advance width="1885"/>
  <unicode hex="0BB9"/>
  <outline>
    <contour>
      <point x="1544" y="581" type="curve" smooth="yes"/>
      <point x="1428" y="581"/>
      <point x="1360" y="530"/>
      <point x="1303" y="442" type="curve"/>
      <point x="1366" y="440" type="line"/>
      <point x="1318" y="527"/>
      <point x="1267" y="581"/>
      <point x="1156" y="581" type="curve" smooth="yes"/>
      <point x="1092" y="581"/>
      <point x="1042" y="565"/>
      <point x="1004" y="536" type="curve" smooth="yes"/>
      <point x="949" y="494"/>
      <point x="917" y="429"/>
      <point x="917" y="310" type="curve" smooth="yes"/>
      <point x="917" y="0" type="line"/>
      <point x="1107" y="0" type="line"/>
      <point x="1107" y="304" type="line" smooth="yes"/>
      <point x="1107" y="366"/>
      <point x="1109" y="407"/>
      <point x="1130" y="432" type="curve" smooth="yes"/>
      <point x="1140" y="444"/>
      <point x="1155" y="451"/>
      <point x="1175" y="451" type="curve" smooth="yes"/>
      <point x="1195" y="451"/>
      <point x="1208" y="443"/>
      <point x="1218" y="431" type="curve" smooth="yes"/>
      <point x="1236" y="408"/>
      <point x="1238" y="372"/>
      <point x="1238" y="297" type="curve" smooth="yes"/>
      <point x="1238" y="0" type="line"/>
      <point x="1428" y="0" type="line"/>
      <point x="1428" y="298" type="line" smooth="yes"/>
      <point x="1428" y="364"/>
      <point x="1436" y="403"/>
      <point x="1464" y="429" type="curve" smooth="yes"/>
      <point x="1479" y="443"/>
      <point x="1499" y="451"/>
      <point x="1528" y="451" type="curve" smooth="yes"/>
      <point x="1604" y="451"/>
      <point x="1650" y="379"/>
      <point x="1650" y="236" type="curve" smooth="yes"/>
      <point x="1650" y="0"/>
      <point x="1555" y="-50"/>
      <point x="1331" y="-50" type="curve" smooth="yes"/>
      <point x="300" y="-50" type="line" smooth="yes"/>
      <point x="192" y="-50"/>
      <point x="146" y="-62"/>
      <point x="102" y="-91" type="curve" smooth="yes"/>
      <point x="58" y="-120"/>
      <point x="30" y="-169"/>
      <point x="30" y="-231" type="curve" smooth="yes"/>
      <point x="30" y="-262"/>
      <point x="32" y="-291"/>
      <point x="36" y="-322" type="curve"/>
      <point x="223" y="-312" type="line"/>
      <point x="221" y="-299"/>
      <point x="220" y="-286"/>
      <point x="220" y="-269" type="curve" smooth="yes"/>
      <point x="220" y="-235"/>
      <point x="231" y="-214"/>
      <point x="250" y="-200" type="curve" smooth="yes"/>
      <point x="273" y="-184"/>
      <point x="300" y="-180"/>
      <point x="361" y="-180" type="curve" smooth="yes"/>
      <point x="1344" y="-180" type="line" smooth="yes"/>
      <point x="1524" y="-180"/>
      <point x="1629" y="-157"/>
      <point x="1714" y="-88" type="curve" smooth="yes"/>
      <point x="1790" y="-27"/>
      <point x="1840" y="73"/>
      <point x="1840" y="239" type="curve" smooth="yes"/>
      <point x="1840" y="456"/>
      <point x="1734" y="581"/>
    </contour>
    <contour>
      <point x="285" y="-12" type="curve" smooth="yes"/>
      <point x="449" y="-12"/>
      <point x="521" y="61"/>
      <point x="521" y="177" type="curve" smooth="yes"/>
      <point x="521" y="293"/>
      <point x="450" y="355"/>
      <point x="335" y="355" type="curve" smooth="yes"/>
      <point x="248" y="355"/>
      <point x="184" y="311"/>
      <point x="124" y="261" type="curve"/>
      <point x="156" y="162" type="line"/>
      <point x="193" y="204"/>
      <point x="230" y="234"/>
      <point x="278" y="234" type="curve" smooth="yes"/>
      <point x="315" y="234"/>
      <point x="340" y="217"/>
      <point x="340" y="174" type="curve" smooth="yes"/>
      <point x="340" y="135"/>
      <point x="321" y="114"/>
      <point x="283" y="114" type="curve" smooth="yes"/>
      <point x="231" y="114"/>
      <point x="209" y="157"/>
      <point x="209" y="235" type="curve" smooth="yes"/>
      <point x="209" y="369"/>
      <point x="284" y="451"/>
      <point x="415" y="451" type="curve" smooth="yes"/>
      <point x="528" y="451"/>
      <point x="601" y="381"/>
      <point x="601" y="259" type="curve" smooth="yes"/>
      <point x="601" y="198"/>
      <point x="589" y="142"/>
      <point x="564" y="99" type="curve"/>
      <point x="570" y="0" type="line"/>
      <point x="1008" y="0" type="line"/>
      <point x="950" y="130" type="line"/>
      <point x="762" y="130" type="line"/>
      <point x="783" y="175"/>
      <point x="791" y="236"/>
      <point x="791" y="283" type="curve" smooth="yes"/>
      <point x="791" y="446"/>
      <point x="686" y="581"/>
      <point x="428" y="581" type="curve" smooth="yes"/>
      <point x="204" y="581"/>
      <point x="37" y="469"/>
      <point x="37" y="245" type="curve" smooth="yes"/>
      <point x="37" y="79"/>
      <point x="127" y="-12"/>
    </contour>
  </outline>
</glyph>
<glyph name="aavowelsigntamil" format="2">
  <advance width="729"/>
  <unicode hex="0BBE"/>
  <outline>
    <contour>
      <point x="68" y="0" type="line"/>
      <point x="258" y="0" type="line"/>
      <point x="258" y="439" type="line"/>
      <point x="390" y="439" type="line"/>
      <point x="390" y="0" type="line"/>
      <point x="580" y="0" type="line"/>
      <point x="580" y="439" type="line"/>
      <point x="712" y="439" type="line"/>
      <point x="712" y="569" type="line"/>
      <point x="68" y="569" type="line"/>
    </contour>
  </outline>
</glyph>
<glyph name="ivowelsigntamil" format="2">
  <advance width="326"/>
  <unicode hex="0BBF"/>
  <outline>
    <contour>
      <point x="-81" y="851" type="curve" smooth="yes"/>
      <point x="-218" y="851"/>
      <point x="-366" y="792"/>
      <point x="-366" y="629" type="curve" smooth="yes"/>
      <point x="-366" y="594"/>
      <point x="-357" y="546"/>
      <point x="-341" y="515" type="curve"/>
      <point x="-154" y="515" type="line"/>
      <point x="-175" y="556"/>
      <point x="-184" y="592"/>
      <point x="-184" y="627" type="curve" smooth="yes"/>
      <point x="-184" y="678"/>
      <point x="-159" y="723"/>
      <point x="-78" y="723" type="curve" smooth="yes"/>
      <point x="-38" y="723"/>
      <point x="-9" y="712"/>
      <point x="12" y="693" type="curve" smooth="yes"/>
      <point x="67" y="644"/>
      <point x="68" y="545"/>
      <point x="68" y="435" type="curve" smooth="yes"/>
      <point x="68" y="0" type="line"/>
      <point x="258" y="0" type="line"/>
      <point x="258" y="467" type="line" smooth="yes"/>
      <point x="258" y="631"/>
      <point x="229" y="704"/>
      <point x="170" y="763" type="curve" smooth="yes"/>
      <point x="114" y="819"/>
      <point x="30" y="851"/>
    </contour>
  </outline>
</glyph>
<glyph name="iivowelsigntamil" format="2">
  <unicode hex="0BC0"/>
  <outline>
    <contour>
      <point x="-213" y="851" type="curve" smooth="yes"/>
      <point x="-441" y="851"/>
      <point x="-521" y="729"/>
      <point x="-521" y="632" type="curve" smooth="yes"/>
      <point x="-521" y="583"/>
      <point x="-513" y="547"/>
      <point x="-495" y="510" type="curve"/>
      <point x="-351" y="536" type="line"/>
      <point x="-363" y="562"/>
      <point x="-370" y="586"/>
      <point x="-370" y="616" type="curve" smooth="yes"/>
      <point x="-370" y="668"/>
      <point x="-343" y="696"/>
      <point x="-307" y="720" type="curve"/>
      <point x="-277" y="734"/>
      <point x="-230" y="744"/>
      <point x="-194" y="744" type="curve" smooth="yes"/>
      <point x="-159" y="744"/>
      <point x="-134" y="733"/>
      <point x="-134" y="706" type="curve" smooth="yes"/>
      <point x="-134" y="684"/>
      <point x="-147" y="669"/>
      <point x="-175" y="669" type="curve" smooth="yes"/>
      <point x="-207" y="669"/>
      <point x="-222" y="684"/>
      <point x="-222" y="715" type="curve" smooth="yes"/>
      <point x="-222" y="751"/>
      <point x="-202" y="774"/>
      <point x="-164" y="814" type="curve"/>
      <point x="-261" y="845" type="line"/>
      <point x="-304" y="811"/>
      <point x="-337" y="756"/>
      <point x="-337" y="706" type="curve" smooth="yes"/>
      <point x="-337" y="628"/>
      <point x="-292" y="576"/>
      <point x="-171" y="576" type="curve" smooth="yes"/>
      <point x="-53" y="576"/>
      <point x="8" y="626"/>
      <point x="8" y="707" type="curve" smooth="yes"/>
      <point x="8" y="792"/>
      <point x="-62" y="851"/>
    </contour>
  </outline>
</glyph>
<glyph name="uvowelsigntamil" format="2">
  <advance width="570"/>
  <unicode hex="0BC1"/>
  <outline>
    <contour>
      <point x="313" y="196" type="curve" smooth="yes"/>
      <point x="494" y="196"/>
      <point x="540" y="293"/>
      <point x="540" y="385" type="curve" smooth="yes"/>
      <point x="540" y="454"/>
      <point x="506" y="509"/>
      <point x="445" y="539" type="curve" smooth="yes"/>
      <point x="407" y="558"/>
      <point x="358" y="569"/>
      <point x="268" y="569" type="curve" smooth="yes"/>
      <point x="-244" y="569" type="line"/>
      <point x="-244" y="439" type="line"/>
      <point x="249" y="439" type="line" smooth="yes"/>
      <point x="300" y="439"/>
      <point x="329" y="434"/>
      <point x="348" y="419" type="curve" smooth="yes"/>
      <point x="360" y="410"/>
      <point x="367" y="396"/>
      <point x="367" y="376" type="curve" smooth="yes"/>
      <point x="367" y="343"/>
      <point x="347" y="322"/>
      <point x="310" y="322" type="curve" smooth="yes"/>
      <point x="272" y="322"/>
      <point x="239" y="341"/>
      <point x="239" y="401" type="curve" smooth="yes"/>
      <point x="239" y="442"/>
      <point x="257" y="480"/>
      <point x="275" y="506" type="curve"/>
      <point x="86" y="525" type="line"/>
      <point x="74" y="498"/>
      <point x="66" y="463"/>
      <point x="66" y="417" type="curve" smooth="yes"/>
      <point x="66" y="302"/>
      <point x="128" y="196"/>
    </contour>
  </outline>
</glyph>
<glyph name="uuvowelsigntamil" format="2">
  <advance width="935"/>
  <unicode hex="0BC2"/>
  <outline>
    <contour>
      <point x="439" y="-12" type="curve" smooth="yes"/>
      <point x="714" y="-12"/>
      <point x="891" y="110"/>
      <point x="891" y="409" type="curve" smooth="yes"/>
      <point x="891" y="605"/>
      <point x="782" y="792"/>
      <point x="494" y="792" type="curve" smooth="yes"/>
      <point x="265" y="792"/>
      <point x="124" y="670"/>
      <point x="92" y="527" type="curve"/>
      <point x="94" y="491" type="line"/>
      <point x="93" y="477"/>
      <point x="92" y="469"/>
      <point x="92" y="439" type="curve" smooth="yes"/>
      <point x="92" y="309"/>
      <point x="162" y="199"/>
      <point x="339" y="199" type="curve" smooth="yes"/>
      <point x="521" y="199"/>
      <point x="566" y="293"/>
      <point x="566" y="385" type="curve" smooth="yes"/>
      <point x="566" y="454"/>
      <point x="532" y="509"/>
      <point x="471" y="539" type="curve" smooth="yes"/>
      <point x="433" y="558"/>
      <point x="384" y="569"/>
      <point x="294" y="569" type="curve" smooth="yes"/>
      <point x="-244" y="569" type="line"/>
      <point x="-244" y="439" type="line"/>
      <point x="275" y="439" type="line" smooth="yes"/>
      <point x="326" y="439"/>
      <point x="355" y="434"/>
      <point x="374" y="419" type="curve" smooth="yes"/>
      <point x="386" y="409"/>
      <point x="393" y="396"/>
      <point x="393" y="376" type="curve" smooth="yes"/>
      <point x="393" y="343"/>
      <point x="373" y="322"/>
      <point x="336" y="322" type="curve" smooth="yes"/>
      <point x="289" y="322"/>
      <point x="265" y="353"/>
      <point x="265" y="415" type="curve" smooth="yes"/>
      <point x="265" y="438"/>
      <point x="265" y="454"/>
      <point x="267" y="470" type="curve"/>
      <point x="265" y="516" type="line"/>
      <point x="290" y="599"/>
      <point x="365" y="662"/>
      <point x="484" y="662" type="curve" smooth="yes"/>
      <point x="619" y="662"/>
      <point x="701" y="571"/>
      <point x="701" y="404" type="curve" smooth="yes"/>
      <point x="701" y="224"/>
      <point x="610" y="121"/>
      <point x="429" y="121" type="curve" smooth="yes"/>
      <point x="314" y="121"/>
      <point x="236" y="148"/>
      <point x="137" y="211" type="curve"/>
      <point x="66" y="84" type="line"/>
      <point x="175" y="20"/>
      <point x="302" y="-12"/>
    </contour>
  </outline>
</glyph>
<glyph name="evowelsigntamil" format="2">
  <advance width="1030"/>
  <unicode hex="0BC6"/>
  <outline>
    <contour>
      <point x="425" y="-12" type="curve" smooth="yes"/>
      <point x="596" y="-12"/>
      <point x="698" y="62"/>
      <point x="698" y="192" type="curve" smooth="yes"/>
      <point x="698" y="292"/>
      <point x="632" y="388"/>
      <point x="472" y="388" type="curve" smooth="yes"/>
      <point x="330" y="388"/>
      <point x="265" y="312"/>
      <point x="265" y="207" type="curve" smooth="yes"/>
      <point x="265" y="161"/>
      <point x="275" y="117"/>
      <point x="290" y="93" type="curve"/>
      <point x="441" y="81" type="line"/>
      <point x="422" y="98"/>
      <point x="399" y="138"/>
      <point x="399" y="189" type="curve" smooth="yes"/>
      <point x="399" y="237"/>
      <point x="422" y="264"/>
      <point x="462" y="264" type="curve" smooth="yes"/>
      <point x="507" y="264"/>
      <point x="519" y="227"/>
      <point x="519" y="192" type="curve" smooth="yes"/>
      <point x="519" y="147"/>
      <point x="498" y="112"/>
      <point x="442" y="112" type="curve" smooth="yes"/>
      <point x="419" y="112"/>
      <point x="394" y="114"/>
      <point x="375" y="117" type="curve"/>
      <point x="330" y="111" type="line"/>
      <point x="274" y="134"/>
      <point x="226" y="205"/>
      <point x="226" y="375" type="curve" smooth="yes"/>
      <point x="226" y="612"/>
      <point x="375" y="718"/>
      <point x="544" y="718" type="curve" smooth="yes"/>
      <point x="617" y="718"/>
      <point x="669" y="700"/>
      <point x="704" y="664" type="curve" smooth="yes"/>
      <point x="759" y="607"/>
      <point x="772" y="509"/>
      <point x="772" y="355" type="curve" smooth="yes"/>
      <point x="772" y="0" type="line"/>
      <point x="962" y="0" type="line"/>
      <point x="962" y="426" type="line" smooth="yes"/>
      <point x="962" y="603"/>
      <point x="920" y="707"/>
      <point x="831" y="773" type="curve" smooth="yes"/>
      <point x="760" y="826"/>
      <point x="657" y="851"/>
      <point x="552" y="851" type="curve" smooth="yes"/>
      <point x="255" y="851"/>
      <point x="44" y="668"/>
      <point x="44" y="380" type="curve" smooth="yes"/>
      <point x="44" y="142"/>
      <point x="172" y="-12"/>
    </contour>
  </outline>
</glyph>
<glyph name="eevowelsigntamil" format="2">
  <advance width="825"/>
  <unicode hex="0BC7"/>
  <outline>
    <contour>
      <point x="501" y="-12" type="curve" smooth="yes"/>
      <point x="706" y="-12"/>
      <point x="794" y="78"/>
      <point x="794" y="197" type="curve" smooth="yes"/>
      <point x="794" y="295"/>
      <point x="728" y="388"/>
      <point x="561" y="388" type="curve" smooth="yes"/>
      <point x="406" y="388"/>
      <point x="340" y="306"/>
      <point x="340" y="212" type="curve" smooth="yes"/>
      <point x="340" y="154"/>
      <point x="356" y="124"/>
      <point x="374" y="88" type="curve"/>
      <point x="541" y="80" type="line"/>
      <point x="520" y="97"/>
      <point x="495" y="142"/>
      <point x="495" y="193" type="curve" smooth="yes"/>
      <point x="495" y="237"/>
      <point x="518" y="264"/>
      <point x="556" y="264" type="curve" smooth="yes"/>
      <point x="598" y="264"/>
      <point x="615" y="230"/>
      <point x="615" y="194" type="curve" smooth="yes"/>
      <point x="615" y="162"/>
      <point x="599" y="112"/>
      <point x="516" y="112" type="curve" smooth="yes"/>
      <point x="511" y="112"/>
      <point x="492" y="113"/>
      <point x="469" y="115" type="curve"/>
      <point x="352" y="115"/>
      <point x="224" y="210"/>
      <point x="224" y="416" type="curve" smooth="yes"/>
      <point x="224" y="607"/>
      <point x="346" y="716"/>
      <point x="455" y="720" type="curve"/>
      <point x="489" y="727"/>
      <point x="525" y="727"/>
      <point x="531" y="727" type="curve" smooth="yes"/>
      <point x="608" y="727"/>
      <point x="627" y="680"/>
      <point x="627" y="648" type="curve" smooth="yes"/>
      <point x="627" y="609"/>
      <point x="612" y="580"/>
      <point x="570" y="580" type="curve" smooth="yes"/>
      <point x="540" y="580"/>
      <point x="508" y="596"/>
      <point x="508" y="650" type="curve" smooth="yes"/>
      <point x="508" y="697"/>
      <point x="535" y="744"/>
      <point x="557" y="758" type="curve"/>
      <point x="390" y="758" type="line"/>
      <point x="370" y="726"/>
      <point x="353" y="683"/>
      <point x="353" y="636" type="curve" smooth="yes"/>
      <point x="353" y="538"/>
      <point x="424" y="456"/>
      <point x="577" y="456" type="curve" smooth="yes"/>
      <point x="737" y="456"/>
      <point x="806" y="544"/>
      <point x="806" y="642" type="curve" smooth="yes"/>
      <point x="806" y="785"/>
      <point x="689" y="851"/>
      <point x="508" y="851" type="curve" smooth="yes"/>
      <point x="233" y="851"/>
      <point x="42" y="687"/>
      <point x="42" y="416" type="curve" smooth="yes"/>
      <point x="42" y="140"/>
      <point x="227" y="-12"/>
    </contour>
  </outline>
</glyph>
<glyph name="aivowelsigntamil" format="2">
  <advance width="1349"/>
  <unicode hex="0BC8"/>
  <outline>
    <contour>
      <point x="285" y="-12" type="curve" smooth="yes"/>
      <point x="449" y="-12"/>
      <point x="521" y="61"/>
      <point x="521" y="177" type="curve" smooth="yes"/>
      <point x="521" y="294"/>
      <point x="447" y="355"/>
      <point x="335" y="355" type="curve" smooth="yes"/>
      <point x="248" y="355"/>
      <point x="184" y="311"/>
      <point x="124" y="261" type="curve"/>
      <point x="156" y="162" type="line"/>
      <point x="193" y="204"/>
      <point x="230" y="234"/>
      <point x="278" y="234" type="curve" smooth="yes"/>
      <point x="315" y="234"/>
      <point x="340" y="217"/>
      <point x="340" y="174" type="curve" smooth="yes"/>
      <point x="340" y="135"/>
      <point x="321" y="114"/>
      <point x="283" y="114" type="curve" smooth="yes"/>
      <point x="231" y="114"/>
      <point x="209" y="158"/>
      <point x="209" y="230" type="curve" smooth="yes"/>
      <point x="209" y="261"/>
      <point x="209" y="261"/>
      <point x="212" y="271" type="curve"/>
      <point x="231" y="371"/>
      <point x="328" y="451"/>
      <point x="489" y="451" type="curve" smooth="yes"/>
      <point x="586" y="451"/>
      <point x="652" y="433"/>
      <point x="708" y="392" type="curve"/>
      <point x="792" y="342"/>
      <point x="832" y="272"/>
      <point x="832" y="196" type="curve" smooth="yes"/>
      <point x="832" y="148"/>
      <point x="820" y="114"/>
      <point x="781" y="114" type="curve" smooth="yes"/>
      <point x="750" y="114"/>
      <point x="730" y="138"/>
      <point x="730" y="197" type="curve" smooth="yes"/>
      <point x="730" y="279"/>
      <point x="770" y="349"/>
      <point x="819" y="392" type="curve"/>
      <point x="860" y="429"/>
      <point x="891" y="451"/>
      <point x="959" y="451" type="curve" smooth="yes"/>
      <point x="1051" y="451"/>
      <point x="1119" y="381"/>
      <point x="1119" y="266" type="curve" smooth="yes"/>
      <point x="1119" y="171"/>
      <point x="1094" y="120"/>
      <point x="1065" y="70" type="curve"/>
      <point x="1224" y="-12" type="line"/>
      <point x="1265" y="54"/>
      <point x="1310" y="161"/>
      <point x="1310" y="283" type="curve" smooth="yes"/>
      <point x="1310" y="446"/>
      <point x="1210" y="581"/>
      <point x="974" y="581" type="curve" smooth="yes"/>
      <point x="863" y="581"/>
      <point x="773" y="554"/>
      <point x="696" y="489" type="curve"/>
      <point x="667" y="454" type="line"/>
      <point x="599" y="389"/>
      <point x="559" y="299"/>
      <point x="559" y="209" type="curve" smooth="yes"/>
      <point x="559" y="66"/>
      <point x="642" y="-12"/>
      <point x="788" y="-12" type="curve" smooth="yes"/>
      <point x="926" y="-12"/>
      <point x="1003" y="54"/>
      <point x="1003" y="194" type="curve" smooth="yes"/>
      <point x="1003" y="317"/>
      <point x="944" y="404"/>
      <point x="831" y="479" type="curve"/>
      <point x="807" y="497" type="line"/>
      <point x="713" y="557"/>
      <point x="616" y="581"/>
      <point x="484" y="581" type="curve" smooth="yes"/>
      <point x="212" y="581"/>
      <point x="37" y="451"/>
      <point x="37" y="244" type="curve" smooth="yes"/>
      <point x="37" y="79"/>
      <point x="127" y="-12"/>
    </contour>
  </outline>
</glyph>
<glyph name="viramatamil" format="2">
  <unicode hex="0BCD"/>
  <outline>
    <contour>
      <point x="-278" y="656" type="curve" smooth="yes"/>
      <point x="-220" y="656"/>
      <point x="-179" y="693"/>
      <point x="-179" y="751" type="curve" smooth="yes"/>
      <point x="-179" y="809"/>
      <point x="-220" y="846"/>
      <point x="-278" y="846" type="curve" smooth="yes"/>
      <point x="-336" y="846"/>
      <point x="-377" y="809"/>
      <point x="-377" y="751" type="curve" smooth="yes"/>
      <point x="-377" y="693"/>
      <point x="-336" y="656"/>
    </contour>
  </outline>
</glyph>
<glyph name="ohmsigntamil" format="2">
  <advance width="1333"/>
  <unicode hex="0BD0"/>
  <outline>
    <contour>
      <point x="638" y="622" type="curve" smooth="yes"/>
      <point x="443" y="622"/>
      <point x="253" y="594"/>
      <point x="137" y="506" type="curve" smooth="yes"/>
      <point x="77" y="461"/>
      <point x="33" y="399"/>
      <point x="33" y="307" type="curve" smooth="yes"/>
      <point x="33" y="174"/>
      <point x="120" y="85"/>
      <point x="264" y="85" type="curve" smooth="yes"/>
      <point x="383" y="85"/>
      <point x="482" y="134"/>
      <point x="482" y="268" type="curve" smooth="yes"/>
      <point x="482" y="378"/>
      <point x="401" y="433"/>
      <point x="306" y="433" type="curve" smooth="yes"/>
      <point x="250" y="433"/>
      <point x="207" y="417"/>
      <point x="157" y="382" type="curve"/>
      <point x="162" y="271" type="line"/>
      <point x="195" y="306"/>
      <point x="223" y="326"/>
      <point x="264" y="326" type="curve" smooth="yes"/>
      <point x="299" y="326"/>
      <point x="324" y="309"/>
      <point x="324" y="271" type="curve" smooth="yes"/>
      <point x="324" y="230"/>
      <point x="301" y="209"/>
      <point x="264" y="209" type="curve" smooth="yes"/>
      <point x="205" y="209"/>
      <point x="192" y="264"/>
      <point x="192" y="298" type="curve" smooth="yes"/>
      <point x="192" y="331"/>
      <point x="195" y="357"/>
      <point x="200" y="374" type="curve"/>
      <point x="290" y="463"/>
      <point x="451" y="486"/>
      <point x="648" y="486" type="curve" smooth="yes"/>
      <point x="987" y="486"/>
      <point x="1112" y="407"/>
      <point x="1112" y="279" type="curve" smooth="yes"/>
      <point x="1112" y="234"/>
      <point x="1093" y="202"/>
      <point x="1056" y="202" type="curve" smooth="yes"/>
      <point x="1009" y="202"/>
      <point x="994" y="234"/>
      <point x="994" y="282" type="curve" smooth="yes"/>
      <point x="994" y="308"/>
      <point x="999" y="341"/>
      <point x="1011" y="367" type="curve"/>
      <point x="861" y="435" type="line"/>
      <point x="730" y="385"/>
      <point x="653" y="295"/>
      <point x="653" y="166" type="curve" smooth="yes"/>
      <point x="653" y="75"/>
      <point x="708" y="-35"/>
      <point x="870" y="-77" type="curve"/>
      <point x="914" y="-89"/>
      <point x="958" y="-97"/>
      <point x="1039" y="-97" type="curve" smooth="yes"/>
      <point x="1200" y="-97" type="line"/>
      <point x="1200" y="32" type="line"/>
      <point x="1081" y="32" type="line" smooth="yes"/>
      <point x="944" y="32"/>
      <point x="897" y="46"/>
      <point x="858" y="76" type="curve" smooth="yes"/>
      <point x="824" y="102"/>
      <point x="807" y="139"/>
      <point x="807" y="185" type="curve" smooth="yes"/>
      <point x="807" y="215"/>
      <point x="816" y="264"/>
      <point x="875" y="305" type="curve"/>
      <point x="861" y="307" type="line"/>
      <point x="852" y="286"/>
      <point x="849" y="252"/>
      <point x="849" y="241" type="curve" smooth="yes"/>
      <point x="849" y="148"/>
      <point x="911" y="78"/>
      <point x="1057" y="78" type="curve" smooth="yes"/>
      <point x="1240" y="78"/>
      <point x="1300" y="185"/>
      <point x="1300" y="288" type="curve" smooth="yes"/>
      <point x="1300" y="382"/>
      <point x="1257" y="446"/>
      <point x="1194" y="494" type="curve" smooth="yes"/>
      <point x="1066" y="592"/>
      <point x="879" y="622"/>
    </contour>
    <contour>
      <point x="78" y="-111" type="curve" smooth="yes"/>
      <point x="78" y="-247"/>
      <point x="201" y="-321"/>
      <point x="437" y="-321" type="curve" smooth="yes"/>
      <point x="459" y="-321" type="line" smooth="yes"/>
      <point x="675" y="-321"/>
      <point x="861" y="-292"/>
      <point x="971" y="-72" type="curve" smooth="yes"/>
      <point x="981" y="-53" type="line"/>
      <point x="792" y="-12" type="line"/>
      <point x="703" y="-165"/>
      <point x="638" y="-192"/>
      <point x="449" y="-192" type="curve" smooth="yes"/>
      <point x="326" y="-192"/>
      <point x="241" y="-168"/>
      <point x="241" y="-95" type="curve" smooth="yes"/>
      <point x="241" y="-72"/>
      <point x="246" y="-51"/>
      <point x="261" y="-26" type="curve"/>
      <point x="123" y="40" type="line"/>
      <point x="95" y="-7"/>
      <point x="78" y="-53"/>
    </contour>
    <contour>
      <point x="546" y="99" type="curve" smooth="yes"/>
      <point x="513" y="99"/>
      <point x="494" y="93"/>
      <point x="476" y="81" type="curve" smooth="yes"/>
      <point x="452" y="65"/>
      <point x="440" y="42"/>
      <point x="440" y="-3" type="curve" smooth="yes"/>
      <point x="440" y="-77" type="line"/>
      <point x="393" y="-77" type="line"/>
      <point x="393" y="73" type="line"/>
      <point x="296" y="73" type="line"/>
      <point x="296" y="-143" type="line"/>
      <point x="533" y="-143" type="line" smooth="yes"/>
      <point x="594" y="-143"/>
      <point x="624" y="-136"/>
      <point x="651" y="-113" type="curve" smooth="yes"/>
      <point x="668" y="-98"/>
      <point x="679" y="-74"/>
      <point x="679" y="-37" type="curve" smooth="yes"/>
      <point x="679" y="3"/>
      <point x="666" y="36"/>
      <point x="644" y="59" type="curve" smooth="yes"/>
      <point x="621" y="84"/>
      <point x="591" y="99"/>
    </contour>
    <contour>
      <point x="550" y="33" type="curve" smooth="yes"/>
      <point x="572" y="33"/>
      <point x="587" y="9"/>
      <point x="587" y="-31" type="curve" smooth="yes"/>
      <point x="587" y="-59"/>
      <point x="579" y="-77"/>
      <point x="550" y="-77" type="curve" smooth="yes"/>
      <point x="534" y="-77" type="line"/>
      <point x="534" y="12" type="line" smooth="yes"/>
      <point x="534" y="25"/>
      <point x="540" y="33"/>
    </contour>
    <contour>
      <point x="559" y="121" type="curve" smooth="yes"/>
      <point x="591" y="121"/>
      <point x="618" y="146"/>
      <point x="618" y="179" type="curve" smooth="yes"/>
      <point x="618" y="211"/>
      <point x="592" y="235"/>
      <point x="559" y="235" type="curve" smooth="yes"/>
      <point x="527" y="235"/>
      <point x="502" y="211"/>
      <point x="502" y="179" type="curve" smooth="yes"/>
      <point x="502" y="146"/>
      <point x="525" y="121"/>
    </contour>
  </outline>
</glyph>
<glyph name="zerotamil" format="2">
  <advance width="701"/>
  <unicode hex="0BE6"/>
  <outline>
    <contour>
      <point x="349" y="-12" type="curve" smooth="yes"/>
      <point x="560" y="-12"/>
      <point x="662" y="104"/>
      <point x="662" y="286" type="curve" smooth="yes"/>
      <point x="662" y="467"/>
      <point x="545" y="581"/>
      <point x="350" y="581" type="curve" smooth="yes"/>
      <point x="155" y="581"/>
      <point x="38" y="467"/>
      <point x="38" y="286" type="curve" smooth="yes"/>
      <point x="38" y="104"/>
      <point x="137" y="-12"/>
    </contour>
    <contour>
      <point x="350" y="448" type="curve" smooth="yes"/>
      <point x="430" y="448"/>
      <point x="469" y="386"/>
      <point x="469" y="285" type="curve" smooth="yes"/>
      <point x="469" y="184"/>
      <point x="434" y="120"/>
      <point x="350" y="120" type="curve" smooth="yes"/>
      <point x="266" y="120"/>
      <point x="231" y="184"/>
      <point x="231" y="285" type="curve" smooth="yes"/>
      <point x="231" y="386"/>
      <point x="270" y="448"/>
    </contour>
  </outline>
</glyph>
<glyph name="twotamil" format="2">
  <advance width="1099"/>
  <unicode hex="0BE8"/>
  <outline>
    <contour>
      <point x="365" y="581" type="curve" smooth="yes"/>
      <point x="161" y="581"/>
      <point x="48" y="492"/>
      <point x="48" y="382" type="curve" smooth="yes"/>
      <point x="48" y="295"/>
      <point x="92" y="239"/>
      <point x="162" y="188" type="curve"/>
      <point x="342" y="221" type="line"/>
      <point x="272" y="266"/>
      <point x="228" y="306"/>
      <point x="228" y="365" type="curve" smooth="yes"/>
      <point x="228" y="415"/>
      <point x="271" y="449"/>
      <point x="362" y="449" type="curve" smooth="yes"/>
      <point x="453" y="449"/>
      <point x="516" y="429"/>
      <point x="516" y="368" type="curve" smooth="yes"/>
      <point x="516" y="309"/>
      <point x="464" y="281"/>
      <point x="295" y="267" type="curve" smooth="yes"/>
      <point x="200" y="259" type="line" smooth="yes"/>
      <point x="68" y="248"/>
      <point x="37" y="179"/>
      <point x="37" y="130" type="curve" smooth="yes"/>
      <point x="37" y="64"/>
      <point x="72" y="0"/>
      <point x="237" y="0" type="curve" smooth="yes"/>
      <point x="1082" y="0" type="line"/>
      <point x="1082" y="130" type="line"/>
      <point x="230" y="130" type="line" smooth="yes"/>
      <point x="217" y="130"/>
      <point x="211" y="134"/>
      <point x="211" y="140" type="curve" smooth="yes"/>
      <point x="211" y="147"/>
      <point x="219" y="150"/>
      <point x="237" y="151" type="curve" smooth="yes"/>
      <point x="359" y="161" type="line" smooth="yes"/>
      <point x="530" y="175"/>
      <point x="706" y="218"/>
      <point x="706" y="374" type="curve" smooth="yes"/>
      <point x="706" y="475"/>
      <point x="616" y="581"/>
    </contour>
  </outline>
</glyph>
<glyph name="threetamil" format="2">
  <advance width="1175"/>
  <unicode hex="0BE9"/>
  <outline>
    <contour>
      <point x="68" y="0" type="line"/>
      <point x="258" y="0" type="line"/>
      <point x="258" y="439" type="line"/>
      <point x="378" y="439" type="line"/>
      <point x="378" y="172" type="line"/>
      <point x="568" y="172" type="line"/>
      <point x="568" y="214" type="line"/>
      <point x="595" y="232"/>
      <point x="618" y="240"/>
      <point x="643" y="240" type="curve" smooth="yes"/>
      <point x="676" y="240"/>
      <point x="698" y="221"/>
      <point x="698" y="185" type="curve" smooth="yes"/>
      <point x="698" y="159"/>
      <point x="691" y="144"/>
      <point x="682" y="130" type="curve"/>
      <point x="378" y="130" type="line"/>
      <point x="378" y="0" type="line"/>
      <point x="1158" y="0" type="line"/>
      <point x="1158" y="130" type="line"/>
      <point x="867" y="130" type="line"/>
      <point x="878" y="149"/>
      <point x="887" y="174"/>
      <point x="887" y="217" type="curve" smooth="yes"/>
      <point x="887" y="289"/>
      <point x="832" y="370"/>
      <point x="697" y="370" type="curve" smooth="yes"/>
      <point x="647" y="370"/>
      <point x="608" y="361"/>
      <point x="568" y="338" type="curve"/>
      <point x="568" y="439" type="line"/>
      <point x="771" y="439" type="line"/>
      <point x="771" y="569" type="line"/>
      <point x="68" y="569" type="line"/>
    </contour>
  </outline>
</glyph>
<glyph name="fivetamil" format="2">
  <advance width="1231"/>
  <unicode hex="0BEB"/>
  <outline>
    <contour>
      <point x="643" y="-321" type="curve" smooth="yes"/>
      <point x="664" y="-321" type="line" smooth="yes"/>
      <point x="974" y="-321"/>
      <point x="1198" y="-180"/>
      <point x="1198" y="94" type="curve" smooth="yes"/>
      <point x="1198" y="239"/>
      <point x="1114" y="346"/>
      <point x="976" y="346" type="curve" smooth="yes"/>
      <point x="927" y="346"/>
      <point x="877" y="335"/>
      <point x="840" y="314" type="curve"/>
      <point x="851" y="191" type="line"/>
      <point x="872" y="208"/>
      <point x="895" y="217"/>
      <point x="920" y="217" type="curve" smooth="yes"/>
      <point x="978" y="217"/>
      <point x="1008" y="175"/>
      <point x="1008" y="84" type="curve" smooth="yes"/>
      <point x="1008" y="-86"/>
      <point x="889" y="-188"/>
      <point x="662" y="-188" type="curve" smooth="yes"/>
      <point x="637" y="-188" type="line" smooth="yes"/>
      <point x="381" y="-188"/>
      <point x="233" y="-60"/>
      <point x="233" y="249" type="curve" smooth="yes"/>
      <point x="233" y="274" type="line" smooth="yes"/>
      <point x="233" y="589"/>
      <point x="414" y="718"/>
      <point x="660" y="718" type="curve" smooth="yes"/>
      <point x="835" y="718"/>
      <point x="929" y="675"/>
      <point x="1082" y="593" type="curve"/>
      <point x="1147" y="727" type="line"/>
      <point x="997" y="800"/>
      <point x="870" y="851"/>
      <point x="663" y="851" type="curve" smooth="yes"/>
      <point x="226" y="851"/>
      <point x="51" y="555"/>
      <point x="51" y="266" type="curve" smooth="yes"/>
      <point x="51" y="245" type="line" smooth="yes"/>
      <point x="51" y="-86"/>
      <point x="248" y="-321"/>
    </contour>
    <contour>
      <point x="373" y="0" type="line"/>
      <point x="563" y="0" type="line"/>
      <point x="563" y="439" type="line"/>
      <point x="687" y="439" type="line"/>
      <point x="687" y="0" type="line"/>
      <point x="877" y="0" type="line"/>
      <point x="877" y="439" type="line"/>
      <point x="1009" y="439" type="line"/>
      <point x="1009" y="569" type="line"/>
      <point x="373" y="569" type="line"/>
    </contour>
  </outline>
</glyph>
<glyph name="eighttamil" format="2">
  <advance width="1277"/>
  <unicode hex="0BEE"/>
  <outline>
    <contour>
      <point x="369" y="-152" type="curve" smooth="yes"/>
      <point x="390" y="-152" type="line"/>
      <point x="674" y="-152"/>
      <point x="853" y="-56"/>
      <point x="927" y="125" type="curve"/>
      <point x="927" y="168" type="line"/>
      <point x="930" y="190"/>
      <point x="933" y="214"/>
      <point x="933" y="239" type="curve" smooth="yes"/>
      <point x="933" y="421"/>
      <point x="819" y="581"/>
      <point x="574" y="581" type="curve" smooth="yes"/>
      <point x="391" y="581"/>
      <point x="287" y="499"/>
      <point x="287" y="365" type="curve" smooth="yes"/>
      <point x="287" y="251"/>
      <point x="353" y="184"/>
      <point x="461" y="105" type="curve"/>
      <point x="582" y="182" type="line"/>
      <point x="505" y="233"/>
      <point x="465" y="288"/>
      <point x="465" y="349" type="curve" smooth="yes"/>
      <point x="465" y="418"/>
      <point x="512" y="449"/>
      <point x="572" y="449" type="curve" smooth="yes"/>
      <point x="689" y="449"/>
      <point x="753" y="344"/>
      <point x="753" y="234" type="curve" smooth="yes"/>
      <point x="753" y="216"/>
      <point x="751" y="197"/>
      <point x="748" y="177" type="curve"/>
      <point x="749" y="143" type="line"/>
      <point x="711" y="48"/>
      <point x="611" y="-22"/>
      <point x="397" y="-22" type="curve" smooth="yes"/>
      <point x="389" y="-22" type="line" smooth="yes"/>
      <point x="261" y="-22"/>
      <point x="206" y="4"/>
      <point x="206" y="44" type="curve" smooth="yes"/>
      <point x="206" y="54"/>
      <point x="209" y="62"/>
      <point x="218" y="67" type="curve" smooth="yes"/>
      <point x="227" y="72"/>
      <point x="234" y="72"/>
      <point x="252" y="72" type="curve" smooth="yes"/>
      <point x="1037" y="72" type="line"/>
      <point x="1041" y="200" type="line"/>
      <point x="249" y="200" type="line" smooth="yes"/>
      <point x="168" y="200"/>
      <point x="119" y="197"/>
      <point x="76" y="171" type="curve" smooth="yes"/>
      <point x="44" y="151"/>
      <point x="22" y="119"/>
      <point x="22" y="65" type="curve" smooth="yes"/>
      <point x="22" y="-63"/>
      <point x="147" y="-152"/>
    </contour>
    <contour>
      <point x="1019" y="-154" type="line"/>
      <point x="1209" y="-154" type="line"/>
      <point x="1209" y="569" type="line"/>
      <point x="1019" y="569" type="line"/>
    </contour>
  </outline>
</glyph>
<glyph name="ninetamil" format="2">
  <advance width="1426"/>
  <unicode hex="0BEF"/>
  <outline>
    <contour>
      <point x="313" y="-12" type="curve" smooth="yes"/>
      <point x="424" y="-12"/>
      <point x="498" y="8"/>
      <point x="549" y="55" type="curve" smooth="yes"/>
      <point x="595" y="98"/>
      <point x="619" y="162"/>
      <point x="619" y="252" type="curve" smooth="yes"/>
      <point x="619" y="439" type="line"/>
      <point x="810" y="439" type="line"/>
      <point x="810" y="569" type="line"/>
      <point x="129" y="569" type="line"/>
      <point x="129" y="286" type="line"/>
      <point x="300" y="302" type="line"/>
      <point x="300" y="439" type="line"/>
      <point x="434" y="439" type="line"/>
      <point x="434" y="240" type="line" smooth="yes"/>
      <point x="434" y="144"/>
      <point x="389" y="118"/>
      <point x="315" y="118" type="curve" smooth="yes"/>
      <point x="253" y="118"/>
      <point x="217" y="133"/>
      <point x="217" y="176" type="curve" smooth="yes"/>
      <point x="217" y="196"/>
      <point x="227" y="211"/>
      <point x="247" y="221" type="curve" smooth="yes"/>
      <point x="269" y="231"/>
      <point x="295" y="234"/>
      <point x="352" y="234" type="curve" smooth="yes"/>
      <point x="699" y="234" type="line"/>
      <point x="699" y="355" type="line"/>
      <point x="378" y="355" type="line" smooth="yes"/>
      <point x="125" y="355"/>
      <point x="33" y="280"/>
      <point x="33" y="168" type="curve" smooth="yes"/>
      <point x="33" y="50"/>
      <point x="131" y="-12"/>
    </contour>
    <contour>
      <point x="927" y="-12" type="curve" smooth="yes"/>
      <point x="1058" y="-12"/>
      <point x="1131" y="55"/>
      <point x="1131" y="165" type="curve" smooth="yes"/>
      <point x="1131" y="286"/>
      <point x="1035" y="348"/>
      <point x="868" y="348" type="curve"/>
      <point x="827" y="355" type="line"/>
      <point x="820" y="355"/>
      <point x="808" y="355"/>
      <point x="782" y="355" type="curve" smooth="yes"/>
      <point x="638" y="355" type="line"/>
      <point x="637" y="234" type="line"/>
      <point x="851" y="234" type="line" smooth="yes"/>
      <point x="960" y="234"/>
      <point x="971" y="186"/>
      <point x="971" y="159" type="curve" smooth="yes"/>
      <point x="971" y="125"/>
      <point x="951" y="109"/>
      <point x="926" y="109" type="curve" smooth="yes"/>
      <point x="885" y="109"/>
      <point x="869" y="139"/>
      <point x="869" y="180" type="curve" smooth="yes"/>
      <point x="869" y="224"/>
      <point x="883" y="249"/>
      <point x="898" y="271" type="curve"/>
      <point x="907" y="291" type="line"/>
      <point x="935" y="327"/>
      <point x="986" y="354"/>
      <point x="1050" y="354" type="curve" smooth="yes"/>
      <point x="1167" y="354"/>
      <point x="1212" y="284"/>
      <point x="1212" y="208" type="curve" smooth="yes"/>
      <point x="1212" y="145"/>
      <point x="1191" y="103"/>
      <point x="1161" y="62" type="curve"/>
      <point x="1316" y="-17" type="line"/>
      <point x="1359" y="57"/>
      <point x="1392" y="133"/>
      <point x="1392" y="220" type="curve" smooth="yes"/>
      <point x="1392" y="331"/>
      <point x="1335" y="478"/>
      <point x="1063" y="478" type="curve" smooth="yes"/>
      <point x="903" y="478"/>
      <point x="784" y="407"/>
      <point x="732" y="313" type="curve"/>
      <point x="732" y="285" type="line"/>
      <point x="717" y="250"/>
      <point x="705" y="212"/>
      <point x="705" y="174" type="curve" smooth="yes"/>
      <point x="705" y="51"/>
      <point x="790" y="-12"/>
    </contour>
  </outline>
</glyph>
<glyph name="tentamil" format="2">
  <advance width="1037"/>
  <unicode hex="0BF0"/>
  <outline>
    <contour>
      <point x="305" y="-12" type="curve" smooth="yes"/>
      <point x="416" y="-12"/>
      <point x="467" y="42"/>
      <point x="515" y="129" type="curve"/>
      <point x="452" y="127" type="line"/>
      <point x="509" y="39"/>
      <point x="574" y="-12"/>
      <point x="699" y="-12" type="curve" smooth="yes"/>
      <point x="923" y="-12"/>
      <point x="985" y="165"/>
      <point x="985" y="372" type="curve" smooth="yes"/>
      <point x="985" y="406" type="line" smooth="yes"/>
      <point x="985" y="582"/>
      <point x="938" y="707"/>
      <point x="840" y="782" type="curve" smooth="yes"/>
      <point x="782" y="826"/>
      <point x="706" y="851"/>
      <point x="619" y="851" type="curve" smooth="yes"/>
      <point x="508" y="851"/>
      <point x="438" y="831"/>
      <point x="354" y="797" type="curve"/>
      <point x="403" y="672" type="line"/>
      <point x="475" y="705"/>
      <point x="521" y="721"/>
      <point x="599" y="721" type="curve" smooth="yes"/>
      <point x="727" y="721"/>
      <point x="795" y="617"/>
      <point x="795" y="387" type="curve" smooth="yes"/>
      <point x="795" y="190"/>
      <point x="751" y="118"/>
      <point x="676" y="118" type="curve" smooth="yes"/>
      <point x="647" y="118"/>
      <point x="628" y="126"/>
      <point x="613" y="140" type="curve" smooth="yes"/>
      <point x="585" y="166"/>
      <point x="577" y="205"/>
      <point x="577" y="271" type="curve" smooth="yes"/>
      <point x="577" y="569" type="line"/>
      <point x="387" y="569" type="line"/>
      <point x="387" y="272" type="line" smooth="yes"/>
      <point x="387" y="197"/>
      <point x="385" y="161"/>
      <point x="367" y="138" type="curve" smooth="yes"/>
      <point x="357" y="126"/>
      <point x="344" y="118"/>
      <point x="324" y="118" type="curve" smooth="yes"/>
      <point x="304" y="118"/>
      <point x="289" y="125"/>
      <point x="279" y="137" type="curve" smooth="yes"/>
      <point x="258" y="162"/>
      <point x="256" y="203"/>
      <point x="256" y="265" type="curve" smooth="yes"/>
      <point x="256" y="569" type="line"/>
      <point x="66" y="569" type="line"/>
      <point x="66" y="259" type="line" smooth="yes"/>
      <point x="66" y="140"/>
      <point x="98" y="75"/>
      <point x="153" y="33" type="curve" smooth="yes"/>
      <point x="191" y="4"/>
      <point x="241" y="-12"/>
    </contour>
  </outline>
</glyph>
<glyph name="hundredtamil" format="2">
  <advance width="1030"/>
  <unicode hex="0BF1"/>
  <outline>
    <contour>
      <point x="377" y="0" type="line"/>
      <point x="567" y="0" type="line"/>
      <point x="567" y="439" type="line"/>
      <point x="691" y="439" type="line"/>
      <point x="691" y="0" type="line"/>
      <point x="881" y="0" type="line"/>
      <point x="881" y="439" type="line"/>
      <point x="1013" y="439" type="line"/>
      <point x="1013" y="569" type="line"/>
      <point x="377" y="569" type="line"/>
    </contour>
    <contour>
      <point x="257" y="581" type="curve" smooth="yes"/>
      <point x="202" y="581"/>
      <point x="157" y="565"/>
      <point x="123" y="533" type="curve" smooth="yes"/>
      <point x="85" y="496"/>
      <point x="65" y="440"/>
      <point x="65" y="344" type="curve" smooth="yes"/>
      <point x="65" y="0" type="line"/>
      <point x="255" y="0" type="line"/>
      <point x="255" y="340" type="line" smooth="yes"/>
      <point x="255" y="390"/>
      <point x="258" y="420"/>
      <point x="275" y="437" type="curve" smooth="yes"/>
      <point x="285" y="447"/>
      <point x="299" y="452"/>
      <point x="319" y="452" type="curve" smooth="yes"/>
      <point x="361" y="452"/>
      <point x="383" y="426"/>
      <point x="402" y="393" type="curve"/>
      <point x="406" y="520" type="line"/>
      <point x="370" y="557"/>
      <point x="332" y="581"/>
    </contour>
  </outline>
</glyph>
<glyph name="thousandtamil" format="2">
  <advance width="1189"/>
  <unicode hex="0BF2"/>
  <outline>
    <contour>
      <point x="994" y="205" type="curve" smooth="yes"/>
      <point x="935" y="205"/>
      <point x="883" y="187"/>
      <point x="846" y="167" type="curve"/>
      <point x="857" y="49" type="line"/>
      <point x="890" y="69"/>
      <point x="914" y="79"/>
      <point x="947" y="79" type="curve" smooth="yes"/>
      <point x="978" y="79"/>
      <point x="1003" y="64"/>
      <point x="1003" y="28" type="curve" smooth="yes"/>
      <point x="1003" y="2"/>
      <point x="994" y="-18"/>
      <point x="969" y="-31" type="curve" smooth="yes"/>
      <point x="945" y="-43"/>
      <point x="921" y="-50"/>
      <point x="845" y="-50" type="curve" smooth="yes"/>
      <point x="294" y="-50" type="line" smooth="yes"/>
      <point x="186" y="-50"/>
      <point x="146" y="-62"/>
      <point x="102" y="-91" type="curve" smooth="yes"/>
      <point x="58" y="-120"/>
      <point x="30" y="-169"/>
      <point x="30" y="-231" type="curve" smooth="yes"/>
      <point x="30" y="-262"/>
      <point x="32" y="-291"/>
      <point x="36" y="-322" type="curve"/>
      <point x="223" y="-312" type="line"/>
      <point x="222" y="-299"/>
      <point x="220" y="-286"/>
      <point x="220" y="-269" type="curve" smooth="yes"/>
      <point x="220" y="-235"/>
      <point x="231" y="-214"/>
      <point x="250" y="-200" type="curve" smooth="yes"/>
      <point x="273" y="-184"/>
      <point x="300" y="-180"/>
      <point x="361" y="-180" type="curve" smooth="yes"/>
      <point x="835" y="-180" type="line" smooth="yes"/>
      <point x="952" y="-180"/>
      <point x="1033" y="-167"/>
      <point x="1087" y="-134" type="curve" smooth="yes"/>
      <point x="1143" y="-100"/>
      <point x="1181" y="-50"/>
      <point x="1181" y="39" type="curve" smooth="yes"/>
      <point x="1181" y="136"/>
      <point x="1112" y="205"/>
    </contour>
    <contour>
      <point x="313" y="-12" type="curve" smooth="yes"/>
      <point x="424" y="-12"/>
      <point x="498" y="8"/>
      <point x="549" y="55" type="curve" smooth="yes"/>
      <point x="595" y="98"/>
      <point x="619" y="162"/>
      <point x="619" y="252" type="curve" smooth="yes"/>
      <point x="619" y="439" type="line"/>
      <point x="810" y="439" type="line"/>
      <point x="810" y="569" type="line"/>
      <point x="129" y="569" type="line"/>
      <point x="129" y="286" type="line"/>
      <point x="300" y="302" type="line"/>
      <point x="300" y="439" type="line"/>
      <point x="434" y="439" type="line"/>
      <point x="434" y="240" type="line" smooth="yes"/>
      <point x="434" y="144"/>
      <point x="389" y="118"/>
      <point x="315" y="118" type="curve" smooth="yes"/>
      <point x="253" y="118"/>
      <point x="217" y="133"/>
      <point x="217" y="176" type="curve" smooth="yes"/>
      <point x="217" y="196"/>
      <point x="227" y="211"/>
      <point x="247" y="221" type="curve" smooth="yes"/>
      <point x="269" y="231"/>
      <point x="296" y="234"/>
      <point x="353" y="234" type="curve" smooth="yes"/>
      <point x="989" y="234" type="line"/>
      <point x="989" y="355" type="line"/>
      <point x="379" y="355" type="line" smooth="yes"/>
      <point x="126" y="355"/>
      <point x="33" y="280"/>
      <point x="33" y="168" type="curve" smooth="yes"/>
      <point x="33" y="50"/>
      <point x="131" y="-12"/>
    </contour>
    <contour>
      <point x="705" y="0" type="line"/>
      <point x="882" y="0" type="line"/>
      <point x="882" y="267" type="line"/>
      <point x="705" y="275" type="line"/>
    </contour>
  </outline>
</glyph>
<glyph name="monthsigntamil" format="2">
  <advance width="1444"/>
  <unicode hex="0BF4"/>
  <outline>
    <contour>
      <point x="641" y="581" type="curve" smooth="yes"/>
      <point x="576" y="581"/>
      <point x="515" y="563"/>
      <point x="475" y="528" type="curve" smooth="yes"/>
      <point x="433" y="492"/>
      <point x="410" y="442"/>
      <point x="410" y="351" type="curve" smooth="yes"/>
      <point x="410" y="130" type="line"/>
      <point x="258" y="130" type="line"/>
      <point x="258" y="569" type="line"/>
      <point x="68" y="569" type="line"/>
      <point x="68" y="0" type="line"/>
      <point x="589" y="0" type="line" smooth="yes"/>
      <point x="717" y="0"/>
      <point x="787" y="15"/>
      <point x="842" y="57" type="curve" smooth="yes"/>
      <point x="897" y="98"/>
      <point x="930" y="166"/>
      <point x="930" y="275" type="curve" smooth="yes"/>
      <point x="930" y="445"/>
      <point x="845" y="581"/>
    </contour>
    <contour>
      <point x="657" y="451" type="curve" smooth="yes"/>
      <point x="717" y="451"/>
      <point x="742" y="385"/>
      <point x="742" y="276" type="curve" smooth="yes"/>
      <point x="742" y="166"/>
      <point x="703" y="130"/>
      <point x="616" y="130" type="curve" smooth="yes"/>
      <point x="600" y="130" type="line"/>
      <point x="600" y="356" type="line" smooth="yes"/>
      <point x="600" y="402"/>
      <point x="603" y="418"/>
      <point x="617" y="434" type="curve" smooth="yes"/>
      <point x="626" y="445"/>
      <point x="641" y="451"/>
    </contour>
    <contour>
      <point x="994" y="469" type="curve" smooth="yes"/>
      <point x="1068" y="469"/>
      <point x="1135" y="499"/>
      <point x="1135" y="594" type="curve" smooth="yes"/>
      <point x="1135" y="634"/>
      <point x="1122" y="662"/>
      <point x="1101" y="682" type="curve" smooth="yes"/>
      <point x="1072" y="709"/>
      <point x="1035" y="720"/>
      <point x="972" y="720" type="curve" smooth="yes"/>
      <point x="872" y="720" type="line" smooth="yes"/>
      <point x="726" y="720"/>
      <point x="651" y="663"/>
      <point x="651" y="551" type="curve"/>
      <point x="784" y="516" type="line"/>
      <point x="784" y="540" type="line" smooth="yes"/>
      <point x="784" y="579"/>
      <point x="798" y="621"/>
      <point x="864" y="621" type="curve" smooth="yes"/>
      <point x="970" y="621" type="line" smooth="yes"/>
      <point x="994" y="621"/>
      <point x="1007" y="619"/>
      <point x="1016" y="612" type="curve" smooth="yes"/>
      <point x="1022" y="607"/>
      <point x="1026" y="600"/>
      <point x="1026" y="590" type="curve" smooth="yes"/>
      <point x="1026" y="572"/>
      <point x="1015" y="563"/>
      <point x="994" y="563" type="curve" smooth="yes"/>
      <point x="965" y="563"/>
      <point x="955" y="585"/>
      <point x="955" y="613" type="curve" smooth="yes"/>
      <point x="955" y="624"/>
      <point x="956" y="637"/>
      <point x="959" y="657" type="curve"/>
      <point x="975" y="708"/>
      <point x="1010" y="738"/>
      <point x="1077" y="738" type="curve" smooth="yes"/>
      <point x="1159" y="738"/>
      <point x="1189" y="682"/>
      <point x="1189" y="636" type="curve" smooth="yes"/>
      <point x="1189" y="596"/>
      <point x="1177" y="564"/>
      <point x="1165" y="546" type="curve"/>
      <point x="1165" y="474" type="line"/>
      <point x="1427" y="474" type="line"/>
      <point x="1427" y="584" type="line"/>
      <point x="1279" y="584" type="line"/>
      <point x="1306" y="562" type="line"/>
      <point x="1313" y="575"/>
      <point x="1326" y="618"/>
      <point x="1326" y="659" type="curve" smooth="yes"/>
      <point x="1326" y="772"/>
      <point x="1248" y="850"/>
      <point x="1092" y="850" type="curve" smooth="yes"/>
      <point x="952" y="850"/>
      <point x="867" y="778"/>
      <point x="838" y="679" type="curve"/>
      <point x="834" y="659"/>
      <point x="833" y="638"/>
      <point x="833" y="617" type="curve" smooth="yes"/>
      <point x="833" y="524"/>
      <point x="891" y="469"/>
    </contour>
  </outline>
</glyph>
<glyph name="yearsigntamil" format="2">
  <advance width="2619"/>
  <unicode hex="0BF5"/>
  <outline>
    <contour>
      <point x="1111" y="715" type="curve" smooth="yes"/>
      <point x="1482" y="715"/>
      <point x="1744" y="709"/>
      <point x="1891" y="568" type="curve" smooth="yes"/>
      <point x="1964" y="498"/>
      <point x="2003" y="394"/>
      <point x="2023" y="242" type="curve" smooth="yes"/>
      <point x="2037" y="137"/>
      <point x="2069" y="67"/>
      <point x="2124" y="31" type="curve" smooth="yes"/>
      <point x="2167" y="3"/>
      <point x="2218" y="-12"/>
      <point x="2300" y="-12" type="curve" smooth="yes"/>
      <point x="2493" y="-12"/>
      <point x="2578" y="112"/>
      <point x="2578" y="266" type="curve" smooth="yes"/>
      <point x="2578" y="388"/>
      <point x="2540" y="501"/>
      <point x="2443" y="615" type="curve"/>
      <point x="2286" y="526" type="line"/>
      <point x="2356" y="440"/>
      <point x="2388" y="345"/>
      <point x="2388" y="253" type="curve" smooth="yes"/>
      <point x="2388" y="150"/>
      <point x="2359" y="118"/>
      <point x="2304" y="118" type="curve" smooth="yes"/>
      <point x="2278" y="118"/>
      <point x="2257" y="126"/>
      <point x="2243" y="141" type="curve" smooth="yes"/>
      <point x="2225" y="160"/>
      <point x="2214" y="187"/>
      <point x="2205" y="285" type="curve" smooth="yes"/>
      <point x="2188" y="480"/>
      <point x="2121" y="606"/>
      <point x="1990" y="696" type="curve" smooth="yes"/>
      <point x="1786" y="837"/>
      <point x="1543" y="851"/>
      <point x="1225" y="851" type="curve" smooth="yes"/>
      <point x="1065" y="851" type="line" smooth="yes"/>
      <point x="477" y="851"/>
      <point x="41" y="719"/>
      <point x="41" y="278" type="curve" smooth="yes"/>
      <point x="41" y="265" type="line" smooth="yes"/>
      <point x="41" y="-211"/>
      <point x="472" y="-321"/>
      <point x="1015" y="-321" type="curve" smooth="yes"/>
      <point x="1155" y="-321" type="line" smooth="yes"/>
      <point x="1514" y="-321"/>
      <point x="1981" y="-241"/>
      <point x="1981" y="106" type="curve" smooth="yes"/>
      <point x="1981" y="255"/>
      <point x="1900" y="346"/>
      <point x="1766" y="346" type="curve" smooth="yes"/>
      <point x="1728" y="346"/>
      <point x="1690" y="339"/>
      <point x="1665" y="329" type="curve"/>
      <point x="1665" y="439" type="line"/>
      <point x="1799" y="439" type="line"/>
      <point x="1799" y="569" type="line"/>
      <point x="1176" y="569" type="line"/>
      <point x="1176" y="0" type="line"/>
      <point x="1366" y="0" type="line"/>
      <point x="1366" y="439" type="line"/>
      <point x="1475" y="439" type="line"/>
      <point x="1475" y="0" type="line"/>
      <point x="1665" y="0" type="line"/>
      <point x="1665" y="203" type="line"/>
      <point x="1680" y="211"/>
      <point x="1697" y="217"/>
      <point x="1716" y="217" type="curve" smooth="yes"/>
      <point x="1768" y="217"/>
      <point x="1794" y="174"/>
      <point x="1794" y="110" type="curve" smooth="yes"/>
      <point x="1794" y="-123"/>
      <point x="1477" y="-185"/>
      <point x="1159" y="-185" type="curve" smooth="yes"/>
      <point x="1042" y="-185" type="line" smooth="yes"/>
      <point x="542" y="-185"/>
      <point x="230" y="-98"/>
      <point x="230" y="264" type="curve" smooth="yes"/>
      <point x="230" y="277" type="line" smooth="yes"/>
      <point x="230" y="608"/>
      <point x="514" y="715"/>
    </contour>
    <contour>
      <point x="579" y="-12" type="curve" smooth="yes"/>
      <point x="743" y="-12"/>
      <point x="815" y="61"/>
      <point x="815" y="177" type="curve" smooth="yes"/>
      <point x="815" y="293"/>
      <point x="744" y="355"/>
      <point x="629" y="355" type="curve" smooth="yes"/>
      <point x="542" y="355"/>
      <point x="478" y="311"/>
      <point x="418" y="261" type="curve"/>
      <point x="450" y="162" type="line"/>
      <point x="487" y="204"/>
      <point x="524" y="234"/>
      <point x="572" y="234" type="curve" smooth="yes"/>
      <point x="609" y="234"/>
      <point x="634" y="217"/>
      <point x="634" y="174" type="curve" smooth="yes"/>
      <point x="634" y="135"/>
      <point x="615" y="114"/>
      <point x="577" y="114" type="curve" smooth="yes"/>
      <point x="525" y="114"/>
      <point x="503" y="157"/>
      <point x="503" y="235" type="curve" smooth="yes"/>
      <point x="503" y="369"/>
      <point x="579" y="451"/>
      <point x="709" y="451" type="curve" smooth="yes"/>
      <point x="822" y="451"/>
      <point x="895" y="381"/>
      <point x="895" y="259" type="curve" smooth="yes"/>
      <point x="895" y="198"/>
      <point x="883" y="142"/>
      <point x="858" y="99" type="curve"/>
      <point x="864" y="0" type="line"/>
      <point x="1231" y="0" type="line"/>
      <point x="1227" y="130" type="line"/>
      <point x="1056" y="130" type="line"/>
      <point x="1077" y="175"/>
      <point x="1085" y="236"/>
      <point x="1085" y="283" type="curve" smooth="yes"/>
      <point x="1085" y="446"/>
      <point x="980" y="581"/>
      <point x="722" y="581" type="curve" smooth="yes"/>
      <point x="498" y="581"/>
      <point x="331" y="469"/>
      <point x="331" y="245" type="curve" smooth="yes"/>
      <point x="331" y="79"/>
      <point x="421" y="-12"/>
    </contour>
  </outline>
</glyph>
<glyph name="debitsigntamil" format="2">
  <advance width="1024"/>
  <unicode hex="0BF6"/>
  <outline>
    <contour>
      <point x="283" y="-321" type="curve" smooth="yes"/>
      <point x="462" y="-321"/>
      <point x="574" y="-267"/>
      <point x="626" y="-153" type="curve"/>
      <point x="630" y="-129" type="line"/>
      <point x="645" y="-88"/>
      <point x="653" y="-41"/>
      <point x="653" y="14" type="curve" smooth="yes"/>
      <point x="653" y="90" type="line"/>
      <point x="463" y="89" type="line"/>
      <point x="463" y="-8" type="line" smooth="yes"/>
      <point x="463" y="-37"/>
      <point x="458" y="-67"/>
      <point x="449" y="-95" type="curve"/>
      <point x="447" y="-129" type="line"/>
      <point x="425" y="-173"/>
      <point x="379" y="-205"/>
      <point x="282" y="-205" type="curve" smooth="yes"/>
      <point x="236" y="-205"/>
      <point x="191" y="-194"/>
      <point x="191" y="-173" type="curve" smooth="yes"/>
      <point x="191" y="-164"/>
      <point x="198" y="-161"/>
      <point x="208" y="-161" type="curve" smooth="yes"/>
      <point x="496" y="-161" type="line"/>
      <point x="568" y="-180" type="line"/>
      <point x="957" y="-180" type="line"/>
      <point x="957" y="341" type="line"/>
      <point x="767" y="341" type="line"/>
      <point x="767" y="-50" type="line"/>
      <point x="181" y="-50" type="line" smooth="yes"/>
      <point x="128" y="-50"/>
      <point x="86" y="-59"/>
      <point x="59" y="-79" type="curve" smooth="yes"/>
      <point x="37" y="-96"/>
      <point x="25" y="-120"/>
      <point x="25" y="-153" type="curve" smooth="yes"/>
      <point x="25" y="-274"/>
      <point x="152" y="-321"/>
    </contour>
    <contour>
      <point x="343" y="-12" type="curve" smooth="yes"/>
      <point x="418" y="-12"/>
      <point x="456" y="12"/>
      <point x="492" y="49" type="curve"/>
      <point x="488" y="176" type="line"/>
      <point x="469" y="143"/>
      <point x="447" y="117"/>
      <point x="405" y="117" type="curve" smooth="yes"/>
      <point x="385" y="117"/>
      <point x="371" y="122"/>
      <point x="361" y="132" type="curve" smooth="yes"/>
      <point x="344" y="149"/>
      <point x="341" y="179"/>
      <point x="341" y="229" type="curve" smooth="yes"/>
      <point x="341" y="569" type="line"/>
      <point x="151" y="569" type="line"/>
      <point x="151" y="225" type="line" smooth="yes"/>
      <point x="151" y="129"/>
      <point x="171" y="73"/>
      <point x="209" y="36" type="curve" smooth="yes"/>
      <point x="243" y="4"/>
      <point x="288" y="-12"/>
    </contour>
    <contour>
      <point x="653" y="569" type="line"/>
      <point x="463" y="569" type="line"/>
      <point x="463" y="82" type="line"/>
      <point x="653" y="53" type="line"/>
    </contour>
  </outline>
</glyph>
<glyph name="creditsigntamil" format="2">
  <advance width="1603"/>
  <unicode hex="0BF7"/>
  <outline>
    <contour>
      <point x="285" y="-12" type="curve" smooth="yes"/>
      <point x="449" y="-12"/>
      <point x="521" y="61"/>
      <point x="521" y="177" type="curve" smooth="yes"/>
      <point x="521" y="294"/>
      <point x="447" y="355"/>
      <point x="335" y="355" type="curve" smooth="yes"/>
      <point x="248" y="355"/>
      <point x="184" y="311"/>
      <point x="124" y="261" type="curve"/>
      <point x="156" y="162" type="line"/>
      <point x="193" y="204"/>
      <point x="230" y="234"/>
      <point x="278" y="234" type="curve" smooth="yes"/>
      <point x="315" y="234"/>
      <point x="340" y="217"/>
      <point x="340" y="174" type="curve" smooth="yes"/>
      <point x="340" y="135"/>
      <point x="321" y="114"/>
      <point x="283" y="114" type="curve" smooth="yes"/>
      <point x="231" y="114"/>
      <point x="209" y="158"/>
      <point x="209" y="226" type="curve" smooth="yes"/>
      <point x="209" y="314"/>
      <point x="240" y="366"/>
      <point x="287" y="398" type="curve" smooth="yes"/>
      <point x="329" y="427"/>
      <point x="394" y="439"/>
      <point x="485" y="439" type="curve" smooth="yes"/>
      <point x="574" y="439" type="line"/>
      <point x="574" y="569" type="line"/>
      <point x="530" y="569" type="line" smooth="yes"/>
      <point x="340" y="569"/>
      <point x="234" y="550"/>
      <point x="146" y="482" type="curve" smooth="yes"/>
      <point x="80" y="431"/>
      <point x="37" y="355"/>
      <point x="37" y="239" type="curve" smooth="yes"/>
      <point x="37" y="79"/>
      <point x="127" y="-12"/>
    </contour>
    <contour>
      <point x="591" y="0" type="line"/>
      <point x="781" y="0" type="line"/>
      <point x="781" y="439" type="line"/>
      <point x="913" y="439" type="line"/>
      <point x="913" y="569" type="line"/>
      <point x="551" y="569" type="line"/>
      <point x="535" y="439" type="line"/>
      <point x="591" y="439" type="line"/>
    </contour>
    <contour>
      <point x="994" y="-5" type="curve" smooth="yes"/>
      <point x="1068" y="-5"/>
      <point x="1135" y="25"/>
      <point x="1135" y="120" type="curve" smooth="yes"/>
      <point x="1135" y="160"/>
      <point x="1122" y="188"/>
      <point x="1101" y="208" type="curve" smooth="yes"/>
      <point x="1072" y="235"/>
      <point x="1035" y="246"/>
      <point x="972" y="246" type="curve" smooth="yes"/>
      <point x="754" y="246" type="line"/>
      <point x="775" y="147" type="line"/>
      <point x="970" y="147" type="line" smooth="yes"/>
      <point x="994" y="147"/>
      <point x="1007" y="145"/>
      <point x="1016" y="138" type="curve" smooth="yes"/>
      <point x="1022" y="133"/>
      <point x="1026" y="126"/>
      <point x="1026" y="116" type="curve" smooth="yes"/>
      <point x="1026" y="98"/>
      <point x="1015" y="89"/>
      <point x="994" y="89" type="curve" smooth="yes"/>
      <point x="965" y="89"/>
      <point x="955" y="111"/>
      <point x="955" y="139" type="curve" smooth="yes"/>
      <point x="955" y="150"/>
      <point x="956" y="163"/>
      <point x="959" y="183" type="curve"/>
      <point x="975" y="234"/>
      <point x="1010" y="264"/>
      <point x="1077" y="264" type="curve" smooth="yes"/>
      <point x="1159" y="264"/>
      <point x="1189" y="208"/>
      <point x="1189" y="162" type="curve" smooth="yes"/>
      <point x="1189" y="122"/>
      <point x="1177" y="90"/>
      <point x="1165" y="72" type="curve"/>
      <point x="1165" y="0" type="line"/>
      <point x="1423" y="0" type="line"/>
      <point x="1427" y="110" type="line"/>
      <point x="1279" y="110" type="line"/>
      <point x="1306" y="88" type="line"/>
      <point x="1313" y="101"/>
      <point x="1326" y="144"/>
      <point x="1326" y="185" type="curve" smooth="yes"/>
      <point x="1326" y="298"/>
      <point x="1248" y="376"/>
      <point x="1092" y="376" type="curve" smooth="yes"/>
      <point x="952" y="376"/>
      <point x="867" y="304"/>
      <point x="838" y="205" type="curve"/>
      <point x="834" y="185"/>
      <point x="833" y="164"/>
      <point x="833" y="143" type="curve" smooth="yes"/>
      <point x="833" y="50"/>
      <point x="891" y="-5"/>
    </contour>
    <contour>
      <point x="1410" y="0" type="line"/>
      <point x="1547" y="0" type="line"/>
      <point x="1547" y="370" type="line"/>
      <point x="1410" y="370" type="line"/>
    </contour>
  </outline>
</glyph>
<glyph name="asabovesigntamil" format="2">
  <advance width="2298"/>
  <unicode hex="0BF8"/>
  <outline>
    <contour>
      <point x="425" y="-12" type="curve" smooth="yes"/>
      <point x="596" y="-12"/>
      <point x="698" y="62"/>
      <point x="698" y="192" type="curve" smooth="yes"/>
      <point x="698" y="292"/>
      <point x="632" y="388"/>
      <point x="472" y="388" type="curve" smooth="yes"/>
      <point x="330" y="388"/>
      <point x="265" y="310"/>
      <point x="265" y="207" type="curve" smooth="yes"/>
      <point x="265" y="152"/>
      <point x="279" y="117"/>
      <point x="290" y="93" type="curve"/>
      <point x="441" y="81" type="line"/>
      <point x="422" y="98"/>
      <point x="399" y="138"/>
      <point x="399" y="189" type="curve" smooth="yes"/>
      <point x="399" y="237"/>
      <point x="422" y="264"/>
      <point x="462" y="264" type="curve" smooth="yes"/>
      <point x="507" y="264"/>
      <point x="519" y="227"/>
      <point x="519" y="192" type="curve" smooth="yes"/>
      <point x="519" y="147"/>
      <point x="498" y="112"/>
      <point x="442" y="112" type="curve" smooth="yes"/>
      <point x="419" y="112"/>
      <point x="393" y="114"/>
      <point x="374" y="117" type="curve"/>
      <point x="329" y="111" type="line"/>
      <point x="273" y="134"/>
      <point x="226" y="204"/>
      <point x="226" y="364" type="curve" smooth="yes"/>
      <point x="226" y="617"/>
      <point x="411" y="718"/>
      <point x="609" y="718" type="curve" smooth="yes"/>
      <point x="769" y="718"/>
      <point x="898" y="644"/>
      <point x="973" y="525" type="curve"/>
      <point x="994" y="488" type="line"/>
      <point x="1022" y="431"/>
      <point x="1037" y="365"/>
      <point x="1037" y="295" type="curve" smooth="yes"/>
      <point x="1037" y="208"/>
      <point x="1006" y="190"/>
      <point x="977" y="190" type="curve" smooth="yes"/>
      <point x="933" y="190"/>
      <point x="916" y="234"/>
      <point x="916" y="284" type="curve" smooth="yes"/>
      <point x="916" y="383"/>
      <point x="968" y="451"/>
      <point x="1119" y="454" type="curve"/>
      <point x="1165" y="450" type="line"/>
      <point x="1248" y="431"/>
      <point x="1304" y="373"/>
      <point x="1304" y="259" type="curve" smooth="yes"/>
      <point x="1304" y="198"/>
      <point x="1292" y="142"/>
      <point x="1267" y="99" type="curve"/>
      <point x="1273" y="0" type="line"/>
      <point x="1639" y="0" type="line"/>
      <point x="1639" y="130" type="line"/>
      <point x="1465" y="130" type="line"/>
      <point x="1486" y="175"/>
      <point x="1494" y="236"/>
      <point x="1494" y="283" type="curve" smooth="yes"/>
      <point x="1494" y="446"/>
      <point x="1389" y="581"/>
      <point x="1123" y="581" type="curve" smooth="yes"/>
      <point x="1091" y="581"/>
      <point x="1060" y="578"/>
      <point x="1028" y="573" type="curve"/>
      <point x="869" y="549"/>
      <point x="739" y="462"/>
      <point x="739" y="290" type="curve" smooth="yes"/>
      <point x="739" y="144"/>
      <point x="831" y="66"/>
      <point x="981" y="66" type="curve" smooth="yes"/>
      <point x="1143" y="66"/>
      <point x="1214" y="151"/>
      <point x="1214" y="309" type="curve" smooth="yes"/>
      <point x="1214" y="380"/>
      <point x="1197" y="450"/>
      <point x="1175" y="504" type="curve"/>
      <point x="1164" y="543" type="line"/>
      <point x="1071" y="739"/>
      <point x="861" y="850"/>
      <point x="600" y="850" type="curve" smooth="yes"/>
      <point x="267" y="850"/>
      <point x="44" y="663"/>
      <point x="44" y="380" type="curve" smooth="yes"/>
      <point x="44" y="142"/>
      <point x="172" y="-12"/>
    </contour>
    <contour>
      <point x="1772" y="581" type="curve" smooth="yes"/>
      <point x="1603" y="581"/>
      <point x="1544" y="484"/>
      <point x="1544" y="390" type="curve" smooth="yes"/>
      <point x="1544" y="284"/>
      <point x="1604" y="179"/>
      <point x="1838" y="179" type="curve" smooth="yes"/>
      <point x="1906" y="179" type="line" smooth="yes"/>
      <point x="1995" y="179"/>
      <point x="2055" y="209"/>
      <point x="2083" y="226" type="curve"/>
      <point x="2082" y="210"/>
      <point x="2081" y="192"/>
      <point x="2081" y="178" type="curve" smooth="yes"/>
      <point x="2081" y="130" type="line"/>
      <point x="1570" y="130" type="line"/>
      <point x="1573" y="0" type="line"/>
      <point x="2241" y="0" type="line"/>
      <point x="2241" y="362" type="line"/>
      <point x="2081" y="362" type="line"/>
      <point x="2037" y="328"/>
      <point x="1979" y="302"/>
      <point x="1905" y="302" type="curve" smooth="yes"/>
      <point x="1828" y="302" type="line" smooth="yes"/>
      <point x="1743" y="302"/>
      <point x="1710" y="333"/>
      <point x="1710" y="390" type="curve" smooth="yes"/>
      <point x="1710" y="423"/>
      <point x="1729" y="453"/>
      <point x="1762" y="453" type="curve" smooth="yes"/>
      <point x="1794" y="453"/>
      <point x="1804" y="426"/>
      <point x="1804" y="391" type="curve" smooth="yes"/>
      <point x="1804" y="362"/>
      <point x="1797" y="331"/>
      <point x="1789" y="297" type="curve"/>
      <point x="1734" y="103" type="line"/>
      <point x="1729" y="65" type="line"/>
      <point x="1643" y="-236" type="line"/>
      <point x="1820" y="-284" type="line"/>
      <point x="1959" y="209" type="line"/>
      <point x="1965" y="244" type="line"/>
      <point x="1978" y="291"/>
      <point x="1989" y="337"/>
      <point x="1989" y="393" type="curve" smooth="yes"/>
      <point x="1989" y="493"/>
      <point x="1931" y="581"/>
    </contour>
  </outline>
</glyph>
<glyph name="rupeesigntamil" format="2">
  <advance width="1231"/>
  <unicode hex="0BF9"/>
  <outline>
    <contour>
      <point x="984" y="260" type="curve" smooth="yes"/>
      <point x="935" y="260"/>
      <point x="877" y="249"/>
      <point x="840" y="228" type="curve"/>
      <point x="851" y="105" type="line"/>
      <point x="872" y="122"/>
      <point x="895" y="131"/>
      <point x="927" y="131" type="curve" smooth="yes"/>
      <point x="978" y="131"/>
      <point x="1009" y="89"/>
      <point x="1009" y="26" type="curve" smooth="yes"/>
      <point x="1009" y="-94"/>
      <point x="902" y="-188"/>
      <point x="660" y="-188" type="curve" smooth="yes"/>
      <point x="640" y="-188" type="line" smooth="yes"/>
      <point x="353" y="-188"/>
      <point x="234" y="-49"/>
      <point x="234" y="194" type="curve" smooth="yes"/>
      <point x="234" y="213" type="line" smooth="yes"/>
      <point x="234" y="428"/>
      <point x="341" y="555"/>
      <point x="459" y="617" type="curve"/>
      <point x="470" y="749" type="line"/>
      <point x="227" y="684"/>
      <point x="51" y="481"/>
      <point x="51" y="206" type="curve" smooth="yes"/>
      <point x="51" y="192" type="line" smooth="yes"/>
      <point x="51" y="-168"/>
      <point x="302" y="-321"/>
      <point x="644" y="-321" type="curve" smooth="yes"/>
      <point x="654" y="-321" type="line" smooth="yes"/>
      <point x="988" y="-321"/>
      <point x="1198" y="-191"/>
      <point x="1198" y="40" type="curve" smooth="yes"/>
      <point x="1198" y="153"/>
      <point x="1130" y="260"/>
    </contour>
    <contour>
      <point x="372" y="0" type="line"/>
      <point x="563" y="0" type="line"/>
      <point x="563" y="350" type="line"/>
      <point x="687" y="350" type="line"/>
      <point x="687" y="0" type="line"/>
      <point x="877" y="0" type="line"/>
      <point x="877" y="350" type="line"/>
      <point x="1009" y="350" type="line"/>
      <point x="1009" y="480" type="line"/>
      <point x="373" y="480" type="line"/>
    </contour>
    <contour>
      <point x="554" y="501" type="curve" smooth="yes"/>
      <point x="627" y="501"/>
      <point x="693" y="529"/>
      <point x="693" y="629" type="curve" smooth="yes"/>
      <point x="693" y="683"/>
      <point x="660" y="746"/>
      <point x="567" y="746" type="curve" smooth="yes"/>
      <point x="537" y="746"/>
      <point x="518" y="743"/>
      <point x="502" y="739" type="curve"/>
      <point x="498" y="641" type="line"/>
      <point x="513" y="651"/>
      <point x="528" y="659"/>
      <point x="550" y="659" type="curve" smooth="yes"/>
      <point x="573" y="659"/>
      <point x="584" y="645"/>
      <point x="584" y="626" type="curve" smooth="yes"/>
      <point x="584" y="607"/>
      <point x="574" y="594"/>
      <point x="551" y="594" type="curve" smooth="yes"/>
      <point x="523" y="594"/>
      <point x="511" y="619"/>
      <point x="511" y="642" type="curve" smooth="yes"/>
      <point x="511" y="652"/>
      <point x="512" y="670"/>
      <point x="519" y="683" type="curve"/>
      <point x="533" y="713" type="line"/>
      <point x="553" y="728"/>
      <point x="590" y="743"/>
      <point x="647" y="743" type="curve" smooth="yes"/>
      <point x="712" y="743"/>
      <point x="755" y="713"/>
      <point x="755" y="664" type="curve" smooth="yes"/>
      <point x="755" y="631"/>
      <point x="744" y="610"/>
      <point x="726" y="587" type="curve"/>
      <point x="726" y="503" type="line"/>
      <point x="1008" y="503" type="line"/>
      <point x="1008" y="612" type="line"/>
      <point x="842" y="612" type="line"/>
      <point x="862" y="595" type="line"/>
      <point x="878" y="616"/>
      <point x="888" y="660"/>
      <point x="888" y="693" type="curve" smooth="yes"/>
      <point x="888" y="787"/>
      <point x="812" y="851"/>
      <point x="655" y="851" type="curve" smooth="yes"/>
      <point x="511" y="851"/>
      <point x="403" y="764"/>
      <point x="402" y="656" type="curve"/>
      <point x="402" y="558"/>
      <point x="466" y="501"/>
    </contour>
  </outline>
</glyph>
<glyph name="numsigntamil" format="2">
  <advance width="1364"/>
  <unicode hex="0BFA"/>
  <outline>
    <contour>
      <point x="684" y="370" type="curve" smooth="yes"/>
      <point x="620" y="370"/>
      <point x="576" y="356"/>
      <point x="533" y="333" type="curve"/>
      <point x="548" y="210" type="line"/>
      <point x="568" y="226"/>
      <point x="600" y="240"/>
      <point x="630" y="240" type="curve" smooth="yes"/>
      <point x="686" y="240"/>
      <point x="716" y="200"/>
      <point x="716" y="123" type="curve" smooth="yes"/>
      <point x="716" y="64"/>
      <point x="703" y="27"/>
      <point x="677" y="1" type="curve" smooth="yes"/>
      <point x="639" y="-37"/>
      <point x="585" y="-50"/>
      <point x="463" y="-50" type="curve" smooth="yes"/>
      <point x="300" y="-50" type="line" smooth="yes"/>
      <point x="192" y="-50"/>
      <point x="146" y="-62"/>
      <point x="102" y="-91" type="curve" smooth="yes"/>
      <point x="58" y="-120"/>
      <point x="30" y="-169"/>
      <point x="30" y="-231" type="curve" smooth="yes"/>
      <point x="30" y="-262"/>
      <point x="32" y="-291"/>
      <point x="36" y="-322" type="curve"/>
      <point x="223" y="-312" type="line"/>
      <point x="221" y="-299"/>
      <point x="220" y="-286"/>
      <point x="220" y="-269" type="curve" smooth="yes"/>
      <point x="220" y="-235"/>
      <point x="231" y="-214"/>
      <point x="250" y="-200" type="curve" smooth="yes"/>
      <point x="273" y="-184"/>
      <point x="300" y="-180"/>
      <point x="361" y="-180" type="curve" smooth="yes"/>
      <point x="494" y="-180" type="line" smooth="yes"/>
      <point x="625" y="-180"/>
      <point x="714" y="-164"/>
      <point x="787" y="-115" type="curve" smooth="yes"/>
      <point x="857" y="-68"/>
      <point x="902" y="8"/>
      <point x="902" y="130" type="curve" smooth="yes"/>
      <point x="902" y="269"/>
      <point x="832" y="370"/>
    </contour>
    <contour>
      <point x="68" y="0" type="line"/>
      <point x="258" y="0" type="line"/>
      <point x="258" y="439" type="line"/>
      <point x="382" y="439" type="line"/>
      <point x="382" y="0" type="line"/>
      <point x="572" y="0" type="line"/>
      <point x="572" y="439" type="line"/>
      <point x="704" y="439" type="line"/>
      <point x="704" y="569" type="line"/>
      <point x="68" y="569" type="line"/>
    </contour>
    <contour>
      <point x="914" y="469" type="curve" smooth="yes"/>
      <point x="988" y="469"/>
      <point x="1055" y="499"/>
      <point x="1055" y="594" type="curve" smooth="yes"/>
      <point x="1055" y="634"/>
      <point x="1042" y="662"/>
      <point x="1021" y="682" type="curve" smooth="yes"/>
      <point x="992" y="709"/>
      <point x="955" y="720"/>
      <point x="892" y="720" type="curve" smooth="yes"/>
      <point x="792" y="720" type="line" smooth="yes"/>
      <point x="646" y="720"/>
      <point x="571" y="663"/>
      <point x="571" y="551" type="curve"/>
      <point x="704" y="516" type="line"/>
      <point x="704" y="540" type="line" smooth="yes"/>
      <point x="704" y="579"/>
      <point x="718" y="621"/>
      <point x="784" y="621" type="curve" smooth="yes"/>
      <point x="890" y="621" type="line" smooth="yes"/>
      <point x="914" y="621"/>
      <point x="927" y="619"/>
      <point x="936" y="612" type="curve" smooth="yes"/>
      <point x="942" y="607"/>
      <point x="946" y="600"/>
      <point x="946" y="590" type="curve" smooth="yes"/>
      <point x="946" y="572"/>
      <point x="935" y="563"/>
      <point x="914" y="563" type="curve" smooth="yes"/>
      <point x="885" y="563"/>
      <point x="875" y="585"/>
      <point x="875" y="613" type="curve" smooth="yes"/>
      <point x="875" y="624"/>
      <point x="876" y="637"/>
      <point x="879" y="657" type="curve"/>
      <point x="895" y="708"/>
      <point x="930" y="738"/>
      <point x="997" y="738" type="curve" smooth="yes"/>
      <point x="1079" y="738"/>
      <point x="1109" y="682"/>
      <point x="1109" y="636" type="curve" smooth="yes"/>
      <point x="1109" y="596"/>
      <point x="1097" y="564"/>
      <point x="1085" y="546" type="curve"/>
      <point x="1085" y="474" type="line"/>
      <point x="1347" y="474" type="line"/>
      <point x="1347" y="584" type="line"/>
      <point x="1200" y="584" type="line"/>
      <point x="1226" y="562" type="line"/>
      <point x="1233" y="575"/>
      <point x="1246" y="618"/>
      <point x="1246" y="659" type="curve" smooth="yes"/>
      <point x="1246" y="772"/>
      <point x="1168" y="850"/>
      <point x="1012" y="850" type="curve" smooth="yes"/>
      <point x="872" y="850"/>
      <point x="787" y="778"/>
      <point x="758" y="679" type="curve"/>
      <point x="754" y="659"/>
      <point x="753" y="638"/>
      <point x="753" y="617" type="curve" smooth="yes"/>
      <point x="753" y="524"/>
      <point x="811" y="469"/>
    </contour>
  </outline>
</glyph>
<glyph name="uni1CDA" format="2">
  <unicode hex="1CDA"/>
  <outline>
    <contour>
      <point x="-406" y="870" type="line"/>
      <point x="-406" y="654" type="line"/>
      <point x="-302" y="654" type="line"/>
      <point x="-302" y="870" type="line"/>
    </contour>
    <contour>
      <point x="-253" y="870" type="line"/>
      <point x="-253" y="654" type="line"/>
      <point x="-149" y="654" type="line"/>
      <point x="-149" y="870" type="line"/>
    </contour>
  </outline>
</glyph>
